SplineFontDB: 3.2
FontName: KAAlmouziosMartyria-Regular
FullName: KA Almouzios Martyria Regular
FamilyName: KA Almouzios Martyria
Weight: Book
Copyright: SIL OPEN FONT LICENSE Version 1.1
Version: 1.000
ItalicAngle: 0
UnderlinePosition: -100
UnderlineWidth: 50
Ascent: 800
Descent: 200
InvalidEm: 0
sfntRevision: 0x00010000
LayerCount: 2
Layer: 0 1 "Back" 1
Layer: 1 1 "Fore" 0
XUID: [1021 596 -667042339 7465220]
StyleMap: 0x0040
FSType: 8
OS2Version: 3
OS2_WeightWidthSlopeOnly: 0
OS2_UseTypoMetrics: 0
CreationTime: 1487396660
ModificationTime: 1728463703
PfmFamily: 81
TTFWeight: 400
TTFWidth: 5
LineGap: 0
VLineGap: 0
Panose: 0 0 5 0 0 0 0 0 0 0
OS2TypoAscent: 800
OS2TypoAOffset: 0
OS2TypoDescent: -200
OS2TypoDOffset: 0
OS2TypoLinegap: 200
OS2WinAscent: 1000
OS2WinAOffset: 0
OS2WinDescent: 200
OS2WinDOffset: 0
HheadAscent: 1000
HheadAOffset: 0
HheadDescent: -200
HheadDOffset: 0
OS2SubXSize: 650
OS2SubYSize: 600
OS2SubXOff: 0
OS2SubYOff: 75
OS2SupXSize: 650
OS2SupYSize: 600
OS2SupXOff: 0
OS2SupYOff: 350
OS2StrikeYSize: 50
OS2StrikeYPos: 300
OS2CapHeight: 700
OS2XHeight: 500
OS2Vendor: 'UKWN'
OS2CodePages: 00000001.00000000
OS2UnicodeRanges: 00000001.00000000.00000000.00000000
DEI: 91125
ShortTable: maxp 16
  1
  0
  73
  239
  10
  162
  4
  1
  2
  30
  6
  0
  100
  0
  1
  1
EndShort
LangName: 1033 "" "" "" "1.000;UKWN;KAAlmouziosMartyria-Regular" "" "Version 1.000" "" "" "" "Trevor Bullock" "" "" "" "This Font Software is licensed under the SIL Open Font License, Version 1.1. This license is available with a FAQ at: http://scripts.sil.org/OFL" "http://scripts.sil.org/OFL"
Encoding: UnicodeBmp
Compacted: 1
UnicodeInterp: none
NameList: AGL For New Fonts
DisplaySize: -128
AntiAlias: 1
FitToEm: 1
WinInfo: 0 14 6
BeginChars: 65537 73

StartChar: .notdef
Encoding: 65536 -1 0
Width: 626
VWidth: 1392
GlyphClass: 1
Flags: W
LayerCount: 2
Back
SplineSet
410 -200 m 1,0,-1
 93 -200 l 1,1,-1
 93 800 l 1,2,-1
 410 800 l 1,3,-1
 410 -200 l 1,0,-1
168 733 m 1,4,-1
 168 700 l 1,5,-1
 233 700 l 1,6,-1
 233 663 l 1,7,-1
 167 663 l 1,8,-1
 167 630 l 1,9,-1
 333 630 l 1,10,-1
 333 663 l 1,11,-1
 267 663 l 1,12,-1
 267 700 l 1,13,-1
 333 700 l 1,14,-1
 333 733 l 1,15,-1
 168 733 l 1,4,-1
167 604 m 1,16,-1
 167 500 l 1,17,-1
 333 500 l 1,18,-1
 333 534 l 1,19,-1
 267 534 l 1,20,-1
 267 604 l 1,21,-1
 167 604 l 1,16,-1
233 534 m 1,22,-1
 200 534 l 1,23,-1
 200 570 l 1,24,-1
 233 570 l 1,25,-1
 233 534 l 1,22,-1
167 473 m 1,26,-1
 167 440 l 1,27,-1
 233 440 l 1,28,-1
 233 403 l 1,29,-1
 167 403 l 1,30,-1
 167 370 l 1,31,-1
 267 370 l 1,32,-1
 267 440 l 1,33,-1
 333 440 l 1,34,-1
 333 473 l 1,35,-1
 167 473 l 1,26,-1
300 413 m 1,36,-1
 300 347 l 1,37,-1
 167 347 l 1,38,-1
 167 313 l 1,39,-1
 333 313 l 1,40,-1
 333 413 l 1,41,-1
 300 413 l 1,36,-1
233 291 m 1,42,-1
 233 235 l 1,43,-1
 267 235 l 1,44,-1
 267 258 l 1,45,-1
 300 258 l 1,46,-1
 300 211 l 1,47,-1
 200 211 l 1,48,-1
 200 291 l 1,49,-1
 167 291 l 1,50,-1
 167 178 l 1,51,-1
 333 178 l 1,52,-1
 333 291 l 1,53,-1
 233 291 l 1,42,-1
167 118 m 1,54,-1
 167 5 l 1,55,-1
 333 5 l 1,56,-1
 333 118 l 1,57,-1
 167 118 l 1,54,-1
300 38 m 1,58,-1
 200 38 l 1,59,-1
 200 85 l 1,60,-1
 300 85 l 1,61,-1
 300 38 l 1,58,-1
167 -18 m 1,62,-1
 167 -51 l 1,63,-1
 237 -51 l 1,64,-1
 167 -98 l 1,65,-1
 167 -131 l 1,66,-1
 333 -131 l 1,67,-1
 333 -98 l 1,68,-1
 231 -98 l 1,69,-1
 301 -51 l 1,70,-1
 333 -51 l 1,71,-1
 333 -18 l 1,72,-1
 167 -18 l 1,62,-1
EndSplineSet
Fore
SplineSet
522 0 m 1,0,-1
 154.280273438 0 l 1,1,-1
 154.280273438 1160 l 1,2,-1
 522 1160 l 1,3,-1
 522 0 l 1,0,-1
241.280273438 1082.28027344 m 1,4,-1
 241.280273438 1044 l 1,5,-1
 316.6796875 1044 l 1,6,-1
 316.6796875 1001.08007812 l 1,7,-1
 240.120117188 1001.08007812 l 1,8,-1
 240.120117188 962.799804688 l 1,9,-1
 432.6796875 962.799804688 l 1,10,-1
 432.6796875 1001.08007812 l 1,11,-1
 356.120117188 1001.08007812 l 1,12,-1
 356.120117188 1044 l 1,13,-1
 432.6796875 1044 l 1,14,-1
 432.6796875 1082.28027344 l 1,15,-1
 241.280273438 1082.28027344 l 1,4,-1
240.120117188 932.639648438 m 1,16,-1
 240.120117188 812 l 1,17,-1
 432.6796875 812 l 1,18,-1
 432.6796875 851.440429688 l 1,19,-1
 356.120117188 851.440429688 l 1,20,-1
 356.120117188 932.639648438 l 1,21,-1
 240.120117188 932.639648438 l 1,16,-1
316.6796875 851.440429688 m 1,22,-1
 278.400390625 851.440429688 l 1,23,-1
 278.400390625 893.200195312 l 1,24,-1
 316.6796875 893.200195312 l 1,25,-1
 316.6796875 851.440429688 l 1,22,-1
240.120117188 780.6796875 m 1,26,-1
 240.120117188 742.400390625 l 1,27,-1
 316.6796875 742.400390625 l 1,28,-1
 316.6796875 699.48046875 l 1,29,-1
 240.120117188 699.48046875 l 1,30,-1
 240.120117188 661.200195312 l 1,31,-1
 356.120117188 661.200195312 l 1,32,-1
 356.120117188 742.400390625 l 1,33,-1
 432.6796875 742.400390625 l 1,34,-1
 432.6796875 780.6796875 l 1,35,-1
 240.120117188 780.6796875 l 1,26,-1
394.400390625 711.080078125 m 1,36,-1
 394.400390625 634.51953125 l 1,37,-1
 240.120117188 634.51953125 l 1,38,-1
 240.120117188 595.080078125 l 1,39,-1
 432.6796875 595.080078125 l 1,40,-1
 432.6796875 711.080078125 l 1,41,-1
 394.400390625 711.080078125 l 1,36,-1
316.6796875 569.559570312 m 1,42,-1
 316.6796875 504.599609375 l 1,43,-1
 356.120117188 504.599609375 l 1,44,-1
 356.120117188 531.280273438 l 1,45,-1
 394.400390625 531.280273438 l 1,46,-1
 394.400390625 476.759765625 l 1,47,-1
 278.400390625 476.759765625 l 1,48,-1
 278.400390625 569.559570312 l 1,49,-1
 240.120117188 569.559570312 l 1,50,-1
 240.120117188 438.48046875 l 1,51,-1
 432.6796875 438.48046875 l 1,52,-1
 432.6796875 569.559570312 l 1,53,-1
 316.6796875 569.559570312 l 1,42,-1
240.120117188 368.879882812 m 1,54,-1
 240.120117188 237.799804688 l 1,55,-1
 432.6796875 237.799804688 l 1,56,-1
 432.6796875 368.879882812 l 1,57,-1
 240.120117188 368.879882812 l 1,54,-1
394.400390625 276.080078125 m 1,58,-1
 278.400390625 276.080078125 l 1,59,-1
 278.400390625 330.599609375 l 1,60,-1
 394.400390625 330.599609375 l 1,61,-1
 394.400390625 276.080078125 l 1,58,-1
240.120117188 211.120117188 m 1,62,-1
 240.120117188 172.83984375 l 1,63,-1
 321.3203125 172.83984375 l 1,64,-1
 240.120117188 118.3203125 l 1,65,-1
 240.120117188 80.0400390625 l 1,66,-1
 432.6796875 80.0400390625 l 1,67,-1
 432.6796875 118.3203125 l 1,68,-1
 314.360351562 118.3203125 l 1,69,-1
 395.559570312 172.83984375 l 1,70,-1
 432.6796875 172.83984375 l 1,71,-1
 432.6796875 211.120117188 l 1,72,-1
 240.120117188 211.120117188 l 1,62,-1
EndSplineSet
EndChar

StartChar: A
Encoding: 65 65 1
Width: 46
VWidth: 1392
GlyphClass: 1
Flags: W
LayerCount: 2
Back
Refer: 25 97 N 1 0 0 1 -500 300 2
Fore
SplineSet
-232 315.51953125 m 0,0,1
 -283.375 303.919921875 -283.375 303.919921875 -312.788085938 303.919921875 c 128,-1,2
 -342.200195312 303.919921875 -342.200195312 303.919921875 -342.200195312 310.299804688 c 128,-1,3
 -342.200195312 316.6796875 -342.200195312 316.6796875 -324.220703125 342.19921875 c 128,-1,4
 -306.240234375 367.719726562 -306.240234375 367.719726562 -306.240234375 373.51953125 c 0,5,6
 -306.240234375 390.919921875 -306.240234375 390.919921875 -323.639648438 397.879882812 c 0,7,8
 -330.599609375 401.360351562 -330.599609375 401.360351562 -336.400390625 401.360351562 c 128,-1,9
 -342.200195312 401.360351562 -342.200195312 401.360351562 -348 400.200195312 c 0,10,11
 -385.120117188 394.400390625 -385.120117188 394.400390625 -400.200195312 379.3203125 c 0,12,13
 -435 344.520507812 -435 344.520507812 -435 319 c 1,14,-1
 -432.6796875 303.919921875 l 1,15,16
 -430.784179688 284.969726562 -430.784179688 284.969726562 -410.852539062 268.924804688 c 128,-1,17
 -390.919921875 252.879882812 -390.919921875 252.879882812 -372.940429688 249.400390625 c 128,-1,18
 -354.959960938 245.919921875 -354.959960938 245.919921875 -319.580078125 247.66015625 c 128,-1,19
 -284.200195312 249.400390625 -284.200195312 249.400390625 -267.379882812 252.879882812 c 128,-1,20
 -250.559570312 256.360351562 -250.559570312 256.360351562 -124.119140625 292.900390625 c 128,-1,21
 2.3203125 329.440429688 2.3203125 329.440429688 2.3203125 317.83984375 c 0,22,23
 -0.541015625 309.2578125 -0.541015625 309.2578125 -15.9306640625 292.088867188 c 128,-1,24
 -31.3203125 274.919921875 -31.3203125 274.919921875 -31.3203125 268.540039062 c 0,25,26
 -31.3203125 255.974609375 -31.3203125 255.974609375 2.3203125 244.759765625 c 0,27,28
 5.7998046875 243.599609375 5.7998046875 243.599609375 17.98046875 243.599609375 c 128,-1,29
 30.16015625 243.599609375 30.16015625 243.599609375 48.7197265625 254.040039062 c 0,30,31
 87 275.573242188 87 275.573242188 87 312.040039062 c 0,32,33
 87 332.26953125 87 332.26953125 69.01953125 345.934570312 c 0,34,35
 38.8291015625 368.879882812 38.8291015625 368.879882812 9.5546875 368.879882812 c 0,36,37
 -40.794921875 368.879882812 -40.794921875 368.879882812 -132.240234375 343.360351562 c 2,38,-1
 -164.719726562 334.080078125 l 1,39,40
 -214.599609375 321.3203125 -214.599609375 321.3203125 -232 315.51953125 c 0,0,1
EndSplineSet
EndChar

StartChar: B
Encoding: 66 66 2
Width: 46
VWidth: 1392
GlyphClass: 1
Flags: W
LayerCount: 2
Back
Refer: 26 98 N 1 0 0 1 -770 530 2
Fore
SplineSet
-510.400390625 1140.28027344 m 1,0,1
 -489.522460938 1119.39941406 -489.522460938 1119.39941406 -464 1119.39941406 c 0,2,3
 -454.719726562 1119.39941406 -454.719726562 1119.39941406 -441.959960938 1128.6796875 c 128,-1,4
 -429.200195312 1137.95996094 -429.200195312 1137.95996094 -422.8203125 1153.62011719 c 128,-1,5
 -416.440429688 1169.28027344 -416.440429688 1169.28027344 -414.120117188 1216.83984375 c 128,-1,6
 -411.799804688 1264.39941406 -411.799804688 1264.39941406 -401.939453125 1287.01953125 c 128,-1,7
 -392.080078125 1309.63964844 -392.080078125 1309.63964844 -392.080078125 1317.75878906 c 128,-1,8
 -392.080078125 1325.87890625 -392.080078125 1325.87890625 -399.040039062 1337.47949219 c 1,9,-1
 -464 1335.16015625 l 2,10,11
 -540.560546875 1332.83984375 -540.560546875 1332.83984375 -598.560546875 1332.83984375 c 2,12,-1
 -669.3203125 1334 l 1,13,-1
 -680.919921875 1335.16015625 l 2,14,15
 -687.879882812 1335.16015625 -687.879882812 1335.16015625 -692.520507812 1330.51953125 c 0,16,17
 -704.120117188 1323.55957031 -704.120117188 1323.55957031 -707.600585938 1300.359375 c 1,18,-1
 -707.600585938 1293.39941406 l 2,19,20
 -707.600585938 1272.51953125 -707.600585938 1272.51953125 -671.640625 1272.51953125 c 0,21,22
 -654.240234375 1272.51953125 -654.240234375 1272.51953125 -627.559570312 1275.41992188 c 128,-1,23
 -600.879882812 1278.31933594 -600.879882812 1278.31933594 -550.419921875 1278.31933594 c 128,-1,24
 -499.959960938 1278.31933594 -499.959960938 1278.31933594 -499.959960938 1274.83984375 c 2,25,-1
 -505.759765625 1205.24023438 l 1,26,-1
 -510.400390625 1140.28027344 l 1,0,1
-299.280273438 1119.39941406 m 0,27,28
 -273.760742188 1119.39941406 -273.760742188 1119.39941406 -252.879882812 1140.28027344 c 1,29,-1
 -257.520507812 1205.24023438 l 1,30,-1
 -263.3203125 1274.83984375 l 2,31,32
 -263.3203125 1278.31933594 -263.3203125 1278.31933594 -212.860351562 1278.31933594 c 128,-1,33
 -162.400390625 1278.31933594 -162.400390625 1278.31933594 -135.139648438 1275.41992188 c 128,-1,34
 -107.879882812 1272.51953125 -107.879882812 1272.51953125 -91.640625 1272.51953125 c 0,35,36
 -55.6806640625 1272.51953125 -55.6806640625 1272.51953125 -55.6806640625 1293.39941406 c 0,37,38
 -55.6806640625 1320.08007812 -55.6806640625 1320.08007812 -70.759765625 1330.51953125 c 0,39,40
 -76.431640625 1336.19140625 -76.431640625 1336.19140625 -93.9599609375 1334 c 1,41,-1
 -164.719726562 1332.83984375 l 2,42,43
 -222.719726562 1332.83984375 -222.719726562 1332.83984375 -299.280273438 1335.16015625 c 2,44,-1
 -364.240234375 1337.47949219 l 1,45,46
 -371.200195312 1325.87890625 -371.200195312 1325.87890625 -371.200195312 1317.75878906 c 128,-1,47
 -371.200195312 1309.63964844 -371.200195312 1309.63964844 -361.33984375 1287.01953125 c 128,-1,48
 -351.48046875 1264.39941406 -351.48046875 1264.39941406 -349.16015625 1216.83984375 c 128,-1,49
 -346.83984375 1169.28027344 -346.83984375 1169.28027344 -340.459960938 1153.62011719 c 128,-1,50
 -334.080078125 1137.95996094 -334.080078125 1137.95996094 -321.3203125 1128.6796875 c 128,-1,51
 -308.560546875 1119.39941406 -308.560546875 1119.39941406 -299.280273438 1119.39941406 c 0,27,28
-497.640625 559.120117188 m 1,52,53
 -494.93359375 556.4140625 -494.93359375 556.4140625 -485.846679688 560.086914062 c 128,-1,54
 -476.759765625 563.759765625 -476.759765625 563.759765625 -466.3203125 563.759765625 c 2,55,-1
 -452.400390625 564.919921875 l 1,56,-1
 -407.16015625 698.319335938 l 2,57,58
 -383.959960938 767.919921875 -383.959960938 767.919921875 -360.759765625 830.559570312 c 0,59,60
 -359.600585938 830.559570312 -359.600585938 830.559570312 -334.080078125 781.83984375 c 128,-1,61
 -308.560546875 733.120117188 -308.560546875 733.120117188 -282.459960938 664.100585938 c 128,-1,62
 -256.360351562 595.080078125 -256.360351562 595.080078125 -251.719726562 584.639648438 c 0,63,64
 -249.400390625 581.16015625 -249.400390625 581.16015625 -241.860351562 581.16015625 c 128,-1,65
 -234.3203125 581.16015625 -234.3203125 581.16015625 -223.879882812 587.540039062 c 128,-1,66
 -213.440429688 593.919921875 -213.440429688 593.919921875 -209.959960938 600.299804688 c 128,-1,67
 -206.48046875 606.6796875 -206.48046875 606.6796875 -206.48046875 621.1796875 c 0,68,69
 -206.48046875 668.79296875 -206.48046875 668.79296875 -255.780273438 785.319335938 c 0,70,71
 -274.919921875 830.559570312 -274.919921875 830.559570312 -283.040039062 846.799804688 c 0,72,73
 -292.3203125 860.719726562 -292.3203125 860.719726562 -302.1796875 883.33984375 c 128,-1,74
 -312.040039062 905.959960938 -312.040039062 905.959960938 -313.780273438 912.33984375 c 128,-1,75
 -315.520507812 918.719726562 -315.520507812 918.719726562 -315.520507812 932.059570312 c 0,76,77
 -315.520507812 950.041992188 -315.520507812 950.041992188 -302.759765625 980.200195312 c 128,-1,78
 -290 1010.359375 -290 1010.359375 -281.879882812 1023.12011719 c 128,-1,79
 -273.759765625 1035.87988281 -273.759765625 1035.87988281 -259.83984375 1054.43945312 c 2,80,-1
 -234.3203125 1088.08007812 l 1,81,-1
 -237.799804688 1096.20019531 l 1,82,-1
 -240.120117188 1104.31933594 l 1,83,-1
 -256.360351562 1105.47949219 l 1,84,85
 -273.759765625 1105.47949219 -273.759765625 1105.47949219 -276.080078125 1104.31933594 c 0,86,87
 -288.83984375 1097.359375 -288.83984375 1097.359375 -316.680664062 1041.6796875 c 1,88,-1
 -339.879882812 992.959960938 l 1,89,90
 -346.939453125 971.78515625 -346.939453125 971.78515625 -363.080078125 986.580078125 c 0,91,92
 -370.040039062 992.959960938 -370.040039062 992.959960938 -399.040039062 1026.59960938 c 1,93,-1
 -437.3203125 1074.16015625 l 1,94,95
 -484.413085938 1067.43164062 -484.413085938 1067.43164062 -497.640625 1038.78027344 c 0,96,97
 -501.120117188 1031.24023438 -501.120117188 1031.24023438 -501.120117188 1019.06054688 c 128,-1,98
 -501.120117188 1006.87988281 -501.120117188 1006.87988281 -498.799804688 1002.81933594 c 128,-1,99
 -496.48046875 998.759765625 -496.48046875 998.759765625 -484.299804688 996.440429688 c 128,-1,100
 -472.120117188 994.120117188 -472.120117188 994.120117188 -450.080078125 972.080078125 c 0,101,102
 -440.799804688 961.639648438 -440.799804688 961.639648438 -422.240234375 934.379882812 c 128,-1,103
 -403.680664062 907.120117188 -403.680664062 907.120117188 -394.400390625 889.719726562 c 2,104,-1
 -386.280273438 874.639648438 l 1,105,-1
 -441.959960938 722.6796875 l 1,106,107
 -498.799804688 573.040039062 -498.799804688 573.040039062 -498.799804688 566.080078125 c 1,108,-1
 -497.640625 559.120117188 l 1,52,53
EndSplineSet
EndChar

StartChar: C
Encoding: 67 67 3
Width: 46
VWidth: 1392
GlyphClass: 1
Flags: W
LayerCount: 2
Back
Refer: 27 99 N 1 0 0 1 -700 530 2
Fore
SplineSet
-346.83984375 1346.75976562 m 0,0,1
 -310.879882812 1346.75976562 -310.879882812 1346.75976562 -310.879882812 1325.87988281 c 0,2,3
 -309.719726562 1323.55957031 -309.719726562 1323.55957031 -309.719726562 1316.01953125 c 128,-1,4
 -309.719726562 1308.47949219 -309.719726562 1308.47949219 -316.6796875 1295.71972656 c 0,5,6
 -329.440429688 1264.39941406 -329.440429688 1264.39941406 -331.759765625 1216.83984375 c 128,-1,7
 -334.080078125 1169.28027344 -334.080078125 1169.28027344 -340.459960938 1153.62011719 c 128,-1,8
 -346.83984375 1137.95996094 -346.83984375 1137.95996094 -359.599609375 1128.6796875 c 128,-1,9
 -372.360351562 1119.39941406 -372.360351562 1119.39941406 -381.639648438 1119.39941406 c 0,10,11
 -407.163085938 1119.39941406 -407.163085938 1119.39941406 -428.040039062 1140.28027344 c 1,12,-1
 -423.400390625 1205.24023438 l 1,13,-1
 -417.599609375 1274.83984375 l 2,14,15
 -417.599609375 1278.31933594 -417.599609375 1278.31933594 -468.059570312 1278.31933594 c 128,-1,16
 -518.51953125 1278.31933594 -518.51953125 1278.31933594 -545.19921875 1275.41992188 c 128,-1,17
 -571.879882812 1272.51953125 -571.879882812 1272.51953125 -589.280273438 1272.51953125 c 0,18,19
 -625.240234375 1272.51953125 -625.240234375 1272.51953125 -625.240234375 1293.39941406 c 0,20,21
 -626.400390625 1295.71972656 -626.400390625 1295.71972656 -626.400390625 1303.83984375 c 128,-1,22
 -626.400390625 1311.95996094 -626.400390625 1311.95996094 -619.440429688 1323.55957031 c 0,23,24
 -606.6796875 1354.87988281 -606.6796875 1354.87988281 -604.359375 1402.44042969 c 128,-1,25
 -602.040039062 1450 -602.040039062 1450 -595.66015625 1465.66015625 c 128,-1,26
 -589.280273438 1481.31933594 -589.280273438 1481.31933594 -576.51953125 1490.59960938 c 128,-1,27
 -563.759765625 1499.87988281 -563.759765625 1499.87988281 -554.48046875 1499.87988281 c 0,28,29
 -528.959960938 1499.87988281 -528.959960938 1499.87988281 -508.080078125 1479 c 1,30,-1
 -512.719726562 1414.04003906 l 1,31,-1
 -518.51953125 1344.43945312 l 2,32,33
 -518.51953125 1340.95996094 -518.51953125 1340.95996094 -468.059570312 1340.95996094 c 128,-1,34
 -417.599609375 1340.95996094 -417.599609375 1340.95996094 -390.919921875 1343.86035156 c 128,-1,35
 -364.240234375 1346.75976562 -364.240234375 1346.75976562 -346.83984375 1346.75976562 c 0,0,1
-508.080078125 559.120117188 m 1,36,37
 -505.373046875 556.4140625 -505.373046875 556.4140625 -496.287109375 560.086914062 c 128,-1,38
 -487.200195312 563.759765625 -487.200195312 563.759765625 -476.759765625 563.759765625 c 2,39,-1
 -462.83984375 564.919921875 l 1,40,-1
 -417.599609375 698.319335938 l 2,41,42
 -394.400390625 767.919921875 -394.400390625 767.919921875 -371.200195312 830.559570312 c 0,43,44
 -370.040039062 830.559570312 -370.040039062 830.559570312 -344.51953125 781.83984375 c 128,-1,45
 -319 733.120117188 -319 733.120117188 -292.900390625 664.100585938 c 128,-1,46
 -266.799804688 595.080078125 -266.799804688 595.080078125 -262.16015625 584.639648438 c 0,47,48
 -259.83984375 581.16015625 -259.83984375 581.16015625 -252.299804688 581.16015625 c 128,-1,49
 -244.759765625 581.16015625 -244.759765625 581.16015625 -234.3203125 587.540039062 c 128,-1,50
 -223.879882812 593.919921875 -223.879882812 593.919921875 -220.400390625 600.299804688 c 128,-1,51
 -216.919921875 606.6796875 -216.919921875 606.6796875 -216.919921875 621.1796875 c 0,52,53
 -216.919921875 668.79296875 -216.919921875 668.79296875 -266.219726562 785.319335938 c 0,54,55
 -285.360351562 830.559570312 -285.360351562 830.559570312 -293.48046875 846.799804688 c 0,56,57
 -302.759765625 860.719726562 -302.759765625 860.719726562 -312.620117188 883.33984375 c 128,-1,58
 -322.48046875 905.959960938 -322.48046875 905.959960938 -324.219726562 912.33984375 c 128,-1,59
 -325.959960938 918.719726562 -325.959960938 918.719726562 -325.959960938 932.059570312 c 0,60,61
 -325.959960938 950.041992188 -325.959960938 950.041992188 -313.200195312 980.200195312 c 128,-1,62
 -300.440429688 1010.359375 -300.440429688 1010.359375 -292.3203125 1023.12011719 c 128,-1,63
 -284.200195312 1035.87988281 -284.200195312 1035.87988281 -270.280273438 1054.43945312 c 2,64,-1
 -244.759765625 1088.08007812 l 1,65,-1
 -248.240234375 1096.20019531 l 1,66,-1
 -250.559570312 1104.31933594 l 1,67,-1
 -266.799804688 1105.47949219 l 1,68,69
 -284.200195312 1105.47949219 -284.200195312 1105.47949219 -286.51953125 1104.31933594 c 0,70,71
 -299.280273438 1097.359375 -299.280273438 1097.359375 -327.120117188 1041.6796875 c 1,72,-1
 -350.3203125 992.959960938 l 1,73,74
 -354.572265625 980.200195312 -354.572265625 980.200195312 -360.56640625 980.200195312 c 128,-1,75
 -366.559570312 980.200195312 -366.559570312 980.200195312 -373.51953125 986.580078125 c 128,-1,76
 -380.48046875 992.959960938 -380.48046875 992.959960938 -409.48046875 1026.59960938 c 1,77,-1
 -447.759765625 1074.16015625 l 1,78,79
 -494.852539062 1067.43164062 -494.852539062 1067.43164062 -508.080078125 1038.78027344 c 0,80,81
 -511.559570312 1031.24023438 -511.559570312 1031.24023438 -511.559570312 1019.06054688 c 128,-1,82
 -511.559570312 1006.87988281 -511.559570312 1006.87988281 -509.240234375 1002.81933594 c 128,-1,83
 -506.919921875 998.759765625 -506.919921875 998.759765625 -494.740234375 996.440429688 c 128,-1,84
 -482.559570312 994.120117188 -482.559570312 994.120117188 -460.51953125 972.080078125 c 0,85,86
 -451.240234375 961.639648438 -451.240234375 961.639648438 -432.6796875 934.379882812 c 128,-1,87
 -414.120117188 907.120117188 -414.120117188 907.120117188 -404.83984375 889.719726562 c 2,88,-1
 -396.719726562 874.639648438 l 1,89,-1
 -452.400390625 722.6796875 l 1,90,91
 -509.240234375 573.040039062 -509.240234375 573.040039062 -509.240234375 566.080078125 c 1,92,-1
 -508.080078125 559.120117188 l 1,36,37
EndSplineSet
EndChar

StartChar: D
Encoding: 68 68 4
Width: 46
VWidth: 1392
GlyphClass: 1
Flags: W
LayerCount: 2
Back
Refer: 28 100 N 1 0 0 1 -500 350 2
Fore
SplineSet
-256.360351562 365.400390625 m 0,0,1
 -256.360351562 354.959960938 -256.360351562 354.959960938 -230.259765625 354.959960938 c 0,2,3
 -176.900390625 354.959960938 -176.900390625 354.959960938 -162.400390625 366.559570312 c 0,4,5
 -153.120117188 375.83984375 -153.120117188 375.83984375 -153.120117188 386.859375 c 0,6,7
 -153.120117188 409.977539062 -153.120117188 409.977539062 -169.359375 419.588867188 c 128,-1,8
 -185.599609375 429.200195312 -185.599609375 429.200195312 -226.780273438 439.639648438 c 128,-1,9
 -267.959960938 450.080078125 -267.959960938 450.080078125 -290.580078125 450.080078125 c 128,-1,10
 -313.200195312 450.080078125 -313.200195312 450.080078125 -313.200195312 444.280273438 c 0,11,12
 -313.200195312 430.692382812 -313.200195312 430.692382812 -277.8203125 425.305664062 c 128,-1,13
 -242.440429688 419.919921875 -242.440429688 419.919921875 -227.940429688 412.959960938 c 128,-1,14
 -213.440429688 406 -213.440429688 406 -213.440429688 396.720703125 c 0,15,16
 -213.440429688 380.99609375 -213.440429688 380.99609375 -234.900390625 376.678710938 c 128,-1,17
 -256.360351562 372.360351562 -256.360351562 372.360351562 -256.360351562 365.400390625 c 0,0,1
-91.6396484375 365.400390625 m 0,18,19
 -91.6396484375 354.959960938 -91.6396484375 354.959960938 -65.5400390625 354.959960938 c 0,20,21
 -13.33984375 354.959960938 -13.33984375 354.959960938 1.16015625 366.559570312 c 0,22,23
 11.599609375 377 11.599609375 377 11.599609375 393.240234375 c 128,-1,24
 11.599609375 409.48046875 11.599609375 409.48046875 -5.220703125 419.33984375 c 128,-1,25
 -22.0400390625 429.200195312 -22.0400390625 429.200195312 -62.6396484375 439.639648438 c 128,-1,26
 -103.240234375 450.080078125 -103.240234375 450.080078125 -125.860351562 450.080078125 c 128,-1,27
 -148.48046875 450.080078125 -148.48046875 450.080078125 -148.48046875 444.280273438 c 0,28,29
 -148.48046875 430.69140625 -148.48046875 430.69140625 -113.099609375 425.305664062 c 128,-1,30
 -77.7197265625 419.919921875 -77.7197265625 419.919921875 -63.7998046875 412.959960938 c 128,-1,31
 -49.8798828125 406 -49.8798828125 406 -49.8798828125 396.720703125 c 0,32,33
 -49.8798828125 381.350585938 -49.8798828125 381.350585938 -70.759765625 376.85546875 c 128,-1,34
 -91.6396484375 372.360351562 -91.6396484375 372.360351562 -91.6396484375 365.400390625 c 0,18,19
-232 245.919921875 m 0,35,36
 -283.369140625 234.3203125 -283.369140625 234.3203125 -312.784179688 234.3203125 c 128,-1,37
 -342.200195312 234.3203125 -342.200195312 234.3203125 -342.200195312 240.700195312 c 128,-1,38
 -342.200195312 247.080078125 -342.200195312 247.080078125 -324.220703125 272.599609375 c 128,-1,39
 -306.240234375 298.120117188 -306.240234375 298.120117188 -306.240234375 303.919921875 c 0,40,41
 -306.240234375 321.319335938 -306.240234375 321.319335938 -323.639648438 328.280273438 c 0,42,43
 -330.599609375 331.759765625 -330.599609375 331.759765625 -336.400390625 331.759765625 c 128,-1,44
 -342.200195312 331.759765625 -342.200195312 331.759765625 -348 330.599609375 c 0,45,46
 -385.120117188 324.799804688 -385.120117188 324.799804688 -400.200195312 309.719726562 c 0,47,48
 -435 274.919921875 -435 274.919921875 -435 249.400390625 c 1,49,-1
 -432.6796875 234.3203125 l 1,50,51
 -430.784179688 215.370117188 -430.784179688 215.370117188 -410.852539062 199.325195312 c 128,-1,52
 -390.919921875 183.280273438 -390.919921875 183.280273438 -372.940429688 179.799804688 c 128,-1,53
 -354.959960938 176.3203125 -354.959960938 176.3203125 -319.580078125 178.060546875 c 128,-1,54
 -284.200195312 179.799804688 -284.200195312 179.799804688 -267.379882812 183.280273438 c 128,-1,55
 -250.559570312 186.759765625 -250.559570312 186.759765625 -124.119140625 223.299804688 c 128,-1,56
 2.3203125 259.83984375 2.3203125 259.83984375 2.3203125 248.240234375 c 0,57,58
 -0.541015625 239.657226562 -0.541015625 239.657226562 -15.9306640625 222.48828125 c 128,-1,59
 -31.3203125 205.3203125 -31.3203125 205.3203125 -31.3203125 198.939453125 c 0,60,61
 -31.3203125 186.372070312 -31.3203125 186.372070312 2.3203125 175.16015625 c 0,62,63
 5.7998046875 174 5.7998046875 174 17.98046875 174 c 128,-1,64
 30.16015625 174 30.16015625 174 48.7197265625 184.440429688 c 0,65,66
 87 205.971679688 87 205.971679688 87 242.440429688 c 0,67,68
 87 262.669921875 87 262.669921875 69.01953125 276.334960938 c 0,69,70
 38.8291015625 299.280273438 38.8291015625 299.280273438 9.5546875 299.280273438 c 0,71,72
 -40.791015625 299.280273438 -40.791015625 299.280273438 -132.240234375 273.759765625 c 2,73,-1
 -164.719726562 264.48046875 l 1,74,75
 -214.599609375 251.719726562 -214.599609375 251.719726562 -232 245.919921875 c 0,35,36
EndSplineSet
EndChar

StartChar: E
Encoding: 69 69 5
Width: 46
VWidth: 1392
GlyphClass: 1
Flags: W
LayerCount: 2
Back
Refer: 29 101 N 1 0 0 1 -630 480 2
Fore
SplineSet
-334.080078125 263.319335938 m 256,0,1
 -327.120117188 263.319335938 -327.120117188 263.319335938 -309.719726562 266.799804688 c 128,-1,2
 -292.319335938 270.280273438 -292.319335938 270.280273438 -281.879882812 277.240234375 c 128,-1,3
 -271.439453125 284.200195312 -271.439453125 284.200195312 -271.439453125 291.16015625 c 128,-1,4
 -271.439453125 298.120117188 -271.439453125 298.120117188 -296.959960938 304.5 c 128,-1,5
 -322.479492188 310.879882812 -322.479492188 310.879882812 -343.939453125 330.01953125 c 128,-1,6
 -365.399414062 349.16015625 -365.399414062 349.16015625 -365.399414062 363.66015625 c 128,-1,7
 -365.399414062 378.16015625 -365.399414062 378.16015625 -350.3203125 408.3203125 c 128,-1,8
 -335.240234375 438.479492188 -335.240234375 438.479492188 -329.439453125 455.299804688 c 128,-1,9
 -323.639648438 472.120117188 -323.639648438 472.120117188 -323.639648438 494.16015625 c 256,10,11
 -323.639648438 528.185546875 -323.639648438 528.185546875 -336.979492188 550.61328125 c 128,-1,12
 -350.319335938 573.040039062 -350.319335938 573.040039062 -385.120117188 588.700195312 c 128,-1,13
 -419.919921875 604.359375 -419.919921875 604.359375 -464 604.359375 c 128,-1,14
 -508.080078125 604.359375 -508.080078125 604.359375 -538.240234375 572.459960938 c 128,-1,15
 -568.399414062 540.559570312 -568.399414062 540.559570312 -568.399414062 493 c 0,16,17
 -568.399414062 465.16015625 -568.399414062 465.16015625 -556.219726562 452.979492188 c 128,-1,18
 -544.040039062 440.799804688 -544.040039062 440.799804688 -523.740234375 440.799804688 c 128,-1,19
 -503.439453125 440.799804688 -503.439453125 440.799804688 -497.059570312 443.120117188 c 0,20,21
 -482.559570312 448.391601562 -482.559570312 448.391601562 -482.559570312 459.095703125 c 128,-1,22
 -482.559570312 469.799804688 -482.559570312 469.799804688 -488.360351562 483.719726562 c 128,-1,23
 -494.16015625 497.639648438 -494.16015625 497.639648438 -494.16015625 505.759765625 c 0,24,25
 -494.16015625 524.319335938 -494.16015625 524.319335938 -472.120117188 535.919921875 c 0,26,27
 -464 540.559570312 -464 540.559570312 -447.759765625 540.559570312 c 256,28,29
 -407.544921875 540.559570312 -407.544921875 540.559570312 -388.599609375 524.319335938 c 0,30,31
 -382.799804688 518.51953125 -382.799804688 518.51953125 -382.799804688 512.139648438 c 0,32,33
 -382.799804688 501.116210938 -382.799804688 501.116210938 -400.780273438 462.837890625 c 128,-1,34
 -418.759765625 424.559570312 -418.759765625 424.559570312 -418.759765625 381.059570312 c 128,-1,35
 -418.759765625 337.559570312 -418.759765625 337.559570312 -399.620117188 306.240234375 c 0,36,37
 -373.390625 263.319335938 -373.390625 263.319335938 -334.080078125 263.319335938 c 256,0,1
-92.2197265625 306.240234375 m 0,38,39
 -65.9912109375 263.319335938 -65.9912109375 263.319335938 -27.259765625 263.319335938 c 0,40,41
 -19.7197265625 263.319335938 -19.7197265625 263.319335938 -2.3203125 266.799804688 c 128,-1,42
 15.080078125 270.280273438 15.080078125 270.280273438 25.5205078125 276.66015625 c 128,-1,43
 35.9599609375 283.040039062 35.9599609375 283.040039062 35.9599609375 288.83984375 c 0,44,45
 35.9599609375 298.120117188 35.9599609375 298.120117188 10.439453125 304.5 c 128,-1,46
 -15.080078125 310.879882812 -15.080078125 310.879882812 -36.5400390625 330.01953125 c 128,-1,47
 -58 349.16015625 -58 349.16015625 -58 363.66015625 c 128,-1,48
 -58 378.16015625 -58 378.16015625 -42.919921875 408.3203125 c 128,-1,49
 -27.83984375 438.479492188 -27.83984375 438.479492188 -22.0400390625 455.299804688 c 128,-1,50
 -16.240234375 472.120117188 -16.240234375 472.120117188 -16.240234375 494.16015625 c 256,51,52
 -16.240234375 528.1875 -16.240234375 528.1875 -29.580078125 550.614257812 c 128,-1,53
 -42.919921875 573.040039062 -42.919921875 573.040039062 -77.7197265625 588.700195312 c 128,-1,54
 -112.51953125 604.359375 -112.51953125 604.359375 -156.599609375 604.359375 c 128,-1,55
 -200.6796875 604.359375 -200.6796875 604.359375 -230.83984375 572.459960938 c 128,-1,56
 -261 540.559570312 -261 540.559570312 -261 493 c 0,57,58
 -261 465.16015625 -261 465.16015625 -248.819335938 452.979492188 c 128,-1,59
 -236.639648438 440.799804688 -236.639648438 440.799804688 -216.33984375 440.799804688 c 128,-1,60
 -196.040039062 440.799804688 -196.040039062 440.799804688 -189.66015625 443.120117188 c 0,61,62
 -175.16015625 448.391601562 -175.16015625 448.391601562 -175.16015625 459.095703125 c 128,-1,63
 -175.16015625 469.799804688 -175.16015625 469.799804688 -180.959960938 483.719726562 c 128,-1,64
 -186.759765625 497.639648438 -186.759765625 497.639648438 -186.759765625 505.759765625 c 0,65,66
 -186.759765625 524.319335938 -186.759765625 524.319335938 -164.719726562 535.919921875 c 0,67,68
 -156.599609375 540.559570312 -156.599609375 540.559570312 -140.359375 540.559570312 c 256,69,70
 -100.142578125 540.559570312 -100.142578125 540.559570312 -81.2001953125 524.319335938 c 0,71,72
 -75.3994140625 518.51953125 -75.3994140625 518.51953125 -75.3994140625 512.139648438 c 0,73,74
 -75.3994140625 501.125 -75.3994140625 501.125 -93.3798828125 462.841796875 c 128,-1,75
 -111.359375 424.559570312 -111.359375 424.559570312 -111.359375 381.059570312 c 128,-1,76
 -111.359375 337.559570312 -111.359375 337.559570312 -92.2197265625 306.240234375 c 0,38,39
EndSplineSet
EndChar

StartChar: F
Encoding: 70 70 6
Width: 46
VWidth: 1392
GlyphClass: 1
Flags: W
LayerCount: 2
Back
Refer: 30 102 N 1 0 0 1 -500 350 2
Fore
SplineSet
-396.719726562 219.240234375 m 2,0,1
 -458.200195312 171.126953125 -458.200195312 171.126953125 -458.200195312 154.862304688 c 0,2,3
 -458.200195312 147.32421875 -458.200195312 147.32421875 -446.01953125 135.142578125 c 128,-1,4
 -433.83984375 122.959960938 -433.83984375 122.959960938 -430.939453125 122.959960938 c 128,-1,5
 -428.040039062 122.959960938 -428.040039062 122.959960938 -357.280273438 197.200195312 c 2,6,-1
 -327.120117188 228.51953125 l 1,7,8
 -296.18359375 209.959960938 -296.18359375 209.959960938 -264.48046875 209.959960938 c 256,9,10
 -255.200195312 209.959960938 -255.200195312 209.959960938 -249.400390625 211.120117188 c 0,11,12
 -203 218.080078125 -203 218.080078125 -169.940429688 239.540039062 c 0,13,14
 -128.759765625 266.270507812 -128.759765625 266.270507812 -128.759765625 298.120117188 c 0,15,16
 -128.759765625 300.440429688 -128.759765625 300.440429688 -134.559570312 315.51953125 c 0,17,18
 -145 334.080078125 -145 334.080078125 -150.799804688 341.040039062 c 0,19,20
 -162.399414062 354.9609375 -162.399414062 354.9609375 -158.919921875 359.020507812 c 128,-1,21
 -155.440429688 363.080078125 -155.440429688 363.080078125 -142.6796875 369.459960938 c 128,-1,22
 -129.919921875 375.83984375 -129.919921875 375.83984375 -125.279296875 372.939453125 c 128,-1,23
 -120.639648438 370.040039062 -120.639648438 370.040039062 -101.5 354.959960938 c 128,-1,24
 -82.3603515625 339.879882812 -82.3603515625 339.879882812 -73.66015625 336.98046875 c 128,-1,25
 -64.9599609375 334.080078125 -64.9599609375 334.080078125 -60.3203125 339.879882812 c 128,-1,26
 -55.6796875 345.6796875 -55.6796875 345.6796875 -62.0595703125 354.379882812 c 128,-1,27
 -68.4404296875 363.080078125 -68.4404296875 363.080078125 -95.1201171875 385.120117188 c 0,28,29
 -100.919921875 390.919921875 -100.919921875 390.919921875 -100.919921875 396.140625 c 128,-1,30
 -100.919921875 401.360351562 -100.919921875 401.360351562 -87 411.799804688 c 0,31,32
 -55.6796875 433.83984375 -55.6796875 433.83984375 -55.6796875 444.280273438 c 256,33,34
 -55.6796875 454.719726562 -55.6796875 454.719726562 -77.7197265625 465.16015625 c 0,35,36
 -84.6796875 468.639648438 -84.6796875 468.639648438 -93.9599609375 468.639648438 c 128,-1,37
 -103.240234375 468.639648438 -103.240234375 468.639648438 -125.280273438 446.599609375 c 0,38,39
 -145 429.200195312 -145 429.200195312 -146.740234375 429.780273438 c 0,40,41
 -154.4453125 432.348632812 -154.4453125 432.348632812 -163.559570312 439.639648438 c 0,42,43
 -169.360351562 441.959960938 -169.360351562 441.959960938 -178.059570312 447.1796875 c 128,-1,44
 -186.759765625 452.400390625 -186.759765625 452.400390625 -192.560546875 454.720703125 c 128,-1,45
 -198.360351562 457.040039062 -198.360351562 457.040039062 -201.83984375 457.040039062 c 128,-1,46
 -205.3203125 457.040039062 -205.3203125 457.040039062 -214.599609375 449.5 c 128,-1,47
 -223.879882812 441.959960938 -223.879882812 441.959960938 -220.98046875 437.900390625 c 0,48,49
 -214.875976562 429.354492188 -214.875976562 429.354492188 -193.719726562 417.599609375 c 1,50,-1
 -169.360351562 401.360351562 l 1,51,52
 -185.3671875 377.348632812 -185.3671875 377.348632812 -200.6796875 373.51953125 c 0,53,54
 -205.3203125 372.360351562 -205.3203125 372.360351562 -214.01953125 373.51953125 c 128,-1,55
 -222.719726562 374.6796875 -222.719726562 374.6796875 -241.279296875 374.6796875 c 0,56,57
 -286.524414062 374.6796875 -286.524414062 374.6796875 -313.782226562 365.98046875 c 128,-1,58
 -341.040039062 357.280273438 -341.040039062 357.280273438 -360.759765625 336.400390625 c 128,-1,59
 -380.48046875 315.51953125 -380.48046875 315.51953125 -380.48046875 295.219726562 c 128,-1,60
 -380.48046875 274.919921875 -380.48046875 274.919921875 -372.360351562 256.360351562 c 1,61,-1
 -365.400390625 243.599609375 l 1,62,-1
 -396.719726562 219.240234375 l 2,0,1
-244.759765625 251.719726562 m 0,63,64
 -252.879882812 247.080078125 -252.879882812 247.080078125 -263.900390625 247.080078125 c 0,65,66
 -289.553710938 247.080078125 -289.553710938 247.080078125 -301.599609375 278.400390625 c 0,67,68
 -305.080078125 288.83984375 -305.080078125 288.83984375 -305.080078125 295.799804688 c 0,69,70
 -305.080078125 314.360351562 -305.080078125 314.360351562 -280.719726562 330.599609375 c 0,71,72
 -268.193359375 341.040039062 -268.193359375 341.040039062 -251.256835938 341.040039062 c 128,-1,73
 -234.3203125 341.040039062 -234.3203125 341.040039062 -221.559570312 328.280273438 c 128,-1,74
 -208.799804688 315.51953125 -208.799804688 315.51953125 -208.799804688 296.959960938 c 0,75,76
 -208.799804688 269.120117188 -208.799804688 269.120117188 -244.759765625 251.719726562 c 0,63,64
EndSplineSet
EndChar

StartChar: G
Encoding: 71 71 7
Width: 46
VWidth: 1392
GlyphClass: 1
Flags: W
LayerCount: 2
Back
Refer: 31 103 N 1 0 0 1 -500 350 2
Fore
SplineSet
-374.6796875 209.959960938 m 1,0,1
 -374.6796875 209.959960938 -374.6796875 209.959960938 -445.440429688 240.120117188 c 1,2,3
 -450.080078125 240.120117188 -450.080078125 240.120117188 -454.720703125 235.48046875 c 128,-1,4
 -459.360351562 230.83984375 -459.360351562 230.83984375 -459.360351562 226.779296875 c 0,5,6
 -459.360351562 216.147460938 -459.360351562 216.147460938 -442.540039062 210.734375 c 128,-1,7
 -425.719726562 205.3203125 -425.719726562 205.3203125 -416.440429688 197.200195312 c 1,8,-1
 -400.200195312 186.759765625 l 1,9,-1
 -426.879882812 164.719726562 l 1,10,11
 -452.400390625 141.51953125 -452.400390625 141.51953125 -452.400390625 138.0390625 c 128,-1,12
 -452.400390625 134.559570312 -452.400390625 134.559570312 -443.700195312 128.1796875 c 0,13,14
 -427.090820312 116 -427.090820312 116 -411.325195312 116 c 128,-1,15
 -395.559570312 116 -395.559570312 116 -367.719726562 146.16015625 c 0,16,17
 -353.805664062 160.080078125 -353.805664062 160.080078125 -348.002929688 160.080078125 c 128,-1,18
 -342.200195312 160.080078125 -342.200195312 160.080078125 -320.740234375 149.640625 c 128,-1,19
 -299.280273438 139.200195312 -299.280273438 139.200195312 -290 139.200195312 c 128,-1,20
 -280.719726562 139.200195312 -280.719726562 139.200195312 -272.01953125 145.580078125 c 128,-1,21
 -263.3203125 151.959960938 -263.3203125 151.959960938 -263.3203125 158.919921875 c 128,-1,22
 -263.3203125 165.879882812 -263.3203125 165.879882812 -288.83984375 174.580078125 c 0,23,24
 -329.440429688 188.420898438 -329.440429688 188.420898438 -329.440429688 189.911132812 c 128,-1,25
 -329.440429688 191.400390625 -329.440429688 191.400390625 -316.6796875 206.48046875 c 0,26,27
 -305.080078125 216.919921875 -305.080078125 216.919921875 -301.01953125 218.66015625 c 128,-1,28
 -296.959960938 220.400390625 -296.959960938 220.400390625 -270.279296875 220.400390625 c 0,29,30
 -211.119140625 220.400390625 -211.119140625 220.400390625 -160.080078125 245.33984375 c 128,-1,31
 -109.040039062 270.280273438 -109.040039062 270.280273438 -109.040039062 314.360351562 c 0,32,33
 -109.040039062 324.212890625 -109.040039062 324.212890625 -121.799804688 343.360351562 c 0,34,35
 -135.719726562 360.759765625 -135.719726562 360.759765625 -133.400390625 361.919921875 c 2,36,-1
 -90.48046875 395.559570312 l 1,37,38
 -32.6142578125 437.994140625 -32.6142578125 437.994140625 -34.7998046875 448.919921875 c 0,39,40
 -37.1201171875 454.719726562 -37.1201171875 454.719726562 -50.4599609375 466.900390625 c 128,-1,41
 -63.7998046875 479.080078125 -63.7998046875 479.080078125 -70.759765625 479.080078125 c 128,-1,42
 -77.7197265625 479.080078125 -77.7197265625 479.080078125 -149.639648438 411.799804688 c 0,43,44
 -184.440429688 377 -184.440429688 377 -188.5 380.48046875 c 128,-1,45
 -192.559570312 383.959960938 -192.559570312 383.959960938 -217.5 383.959960938 c 128,-1,46
 -242.440429688 383.959960938 -242.440429688 383.959960938 -254.040039062 382.220703125 c 128,-1,47
 -265.639648438 380.48046875 -265.639648438 380.48046875 -290 372.360351562 c 0,48,49
 -332.810546875 358.08984375 -332.810546875 358.08984375 -354.905273438 338.544921875 c 128,-1,50
 -377 319 -377 319 -381.640625 309.140625 c 128,-1,51
 -386.280273438 299.280273438 -386.280273438 299.280273438 -386.280273438 289.419921875 c 0,52,53
 -386.280273438 272.600585938 -386.280273438 272.600585938 -359.599609375 245.919921875 c 1,54,-1
 -344.51953125 228.51953125 l 1,55,-1
 -357.280273438 218.080078125 l 1,56,-1
 -374.6796875 209.959960938 l 1,0,1
-257.51953125 250.559570312 m 1,57,-1
 -276.080078125 261 l 2,58,59
 -300.440429688 274.919921875 -300.440429688 274.919921875 -300.440429688 292.900390625 c 128,-1,60
 -300.440429688 310.879882812 -300.440429688 310.879882812 -266.799804688 334.080078125 c 0,61,62
 -251.719726562 344.51953125 -251.719726562 344.51953125 -240.69921875 344.51953125 c 128,-1,63
 -229.6796875 344.51953125 -229.6796875 344.51953125 -212.859375 332.919921875 c 128,-1,64
 -196.040039062 321.3203125 -196.040039062 321.3203125 -196.040039062 305.080078125 c 0,65,66
 -196.040039062 275.749023438 -196.040039062 275.749023438 -241.280273438 256.360351562 c 0,67,68
 -252.879882812 250.559570312 -252.879882812 250.559570312 -257.51953125 250.559570312 c 1,57,-1
EndSplineSet
EndChar

StartChar: H
Encoding: 72 72 8
Width: 46
VWidth: 1392
GlyphClass: 1
Flags: W
LayerCount: 2
Back
Refer: 32 104 N 1 0 0 1 -500 350 2
Fore
SplineSet
-437.900390625 158.919921875 m 128,-1,1
 -416.440429688 134.559570312 -416.440429688 134.559570312 -402.51953125 129.919921875 c 128,-1,2
 -388.599609375 125.280273438 -388.599609375 125.280273438 -381.059570312 125.280273438 c 128,-1,3
 -373.51953125 125.280273438 -373.51953125 125.280273438 -351.48046875 134.559570312 c 0,4,5
 -296.887695312 163.293945312 -296.887695312 163.293945312 -266.799804688 213.440429688 c 1,6,-1
 -252.879882812 207.639648438 l 2,7,8
 -220.979492188 194.879882812 -220.979492188 194.879882812 -195.169921875 194.879882812 c 128,-1,9
 -169.360351562 194.879882812 -169.360351562 194.879882812 -150.219726562 205.900390625 c 128,-1,10
 -131.080078125 216.919921875 -131.080078125 216.919921875 -124.120117188 230.83984375 c 128,-1,11
 -117.16015625 244.759765625 -117.16015625 244.759765625 -117.16015625 261.580078125 c 128,-1,12
 -117.16015625 278.400390625 -117.16015625 278.400390625 -118.900390625 286.51953125 c 128,-1,13
 -120.639648438 294.639648438 -120.639648438 294.639648438 -131.080078125 315.51953125 c 128,-1,14
 -141.51953125 336.400390625 -141.51953125 336.400390625 -140.360351562 339.879882812 c 0,15,16
 -139.200195312 342.200195312 -139.200195312 342.200195312 -103.240234375 368.879882812 c 0,17,18
 -41.759765625 414.494140625 -41.759765625 414.494140625 -41.759765625 431.51953125 c 0,19,20
 -41.759765625 448.100585938 -41.759765625 448.100585938 -54.51953125 460.110351562 c 128,-1,21
 -67.2802734375 472.120117188 -67.2802734375 472.120117188 -70.759765625 472.120117188 c 256,22,23
 -74.240234375 472.120117188 -74.240234375 472.120117188 -121.799804688 422.240234375 c 2,24,-1
 -170.51953125 372.360351562 l 1,25,-1
 -182.120117188 381.639648438 l 1,26,27
 -194.879882812 394.400390625 -194.879882812 394.400390625 -207.059570312 398.459960938 c 128,-1,28
 -219.240234375 402.51953125 -219.240234375 402.51953125 -237.220703125 402.51953125 c 0,29,30
 -265.256835938 402.51953125 -265.256835938 402.51953125 -280.719726562 396.719726562 c 0,31,32
 -292.3203125 389.759765625 -292.3203125 389.759765625 -303.33984375 378.16015625 c 128,-1,33
 -314.360351562 366.559570312 -314.360351562 366.559570312 -317.259765625 356.69921875 c 128,-1,34
 -320.16015625 346.83984375 -320.16015625 346.83984375 -320.16015625 323.060546875 c 128,-1,35
 -320.16015625 299.280273438 -320.16015625 299.280273438 -308.560546875 279.560546875 c 128,-1,36
 -296.959960938 259.83984375 -296.959960938 259.83984375 -296.959960938 254.620117188 c 128,-1,37
 -296.959960938 249.400390625 -296.959960938 249.400390625 -326.540039062 218.080078125 c 128,-1,38
 -356.120117188 186.759765625 -356.120117188 186.759765625 -370.620117188 186.759765625 c 128,-1,39
 -385.120117188 186.759765625 -385.120117188 186.759765625 -394.400390625 205.3203125 c 0,40,41
 -414.119140625 244.759765625 -414.119140625 244.759765625 -429.200195312 244.759765625 c 0,42,43
 -440.799804688 244.759765625 -440.799804688 244.759765625 -450.080078125 230.259765625 c 128,-1,44
 -459.360351562 215.759765625 -459.360351562 215.759765625 -459.360351562 199.51953125 c 128,-1,0
 -459.360351562 183.280273438 -459.360351562 183.280273438 -437.900390625 158.919921875 c 128,-1,1
-223.879882812 259.83984375 m 1,45,-1
 -229.6796875 259.83984375 l 2,46,47
 -238.669921875 259.83984375 -238.669921875 259.83984375 -244.759765625 267.959960938 c 0,48,49
 -252.879882812 274.919921875 -252.879882812 274.919921875 -252.879882812 286.51953125 c 128,-1,50
 -252.879882812 298.120117188 -252.879882812 298.120117188 -246.5 312.620117188 c 128,-1,51
 -240.120117188 327.120117188 -240.120117188 327.120117188 -232.580078125 331.1796875 c 128,-1,52
 -225.040039062 335.240234375 -225.040039062 335.240234375 -209.379882812 335.240234375 c 128,-1,53
 -193.719726562 335.240234375 -193.719726562 335.240234375 -189.66015625 331.759765625 c 128,-1,54
 -185.599609375 328.280273438 -185.599609375 328.280273438 -185.599609375 312.040039062 c 256,55,56
 -185.599609375 278.565429688 -185.599609375 278.565429688 -204.16015625 267.959960938 c 0,57,58
 -207.639648438 265.639648438 -207.639648438 265.639648438 -223.879882812 259.83984375 c 1,45,-1
EndSplineSet
EndChar

StartChar: I
Encoding: 73 73 9
Width: 806
VWidth: 1392
GlyphClass: 1
Flags: W
LayerCount: 2
Back
SplineSet
248 311.5 m 128,-1,1
 268 315 268 315 274 321 c 0,2,3
 285 332 285 332 285 345 c 0,4,5
 285 354 285 354 280 363 c 128,-1,6
 275 372 275 372 266 378 c 0,7,8
 250 388 250 388 206.5 398.5 c 128,-1,9
 163 409 163 409 136 409 c 0,10,11
 114 409 114 409 114 401 c 0,12,13
 114 396 114 396 124 391.5 c 128,-1,14
 134 387 134 387 151 384 c 0,15,16
 189 378 189 378 204.5 370.5 c 128,-1,17
 220 363 220 363 220 351 c 0,18,19
 220 344 220 344 213 338.5 c 128,-1,20
 206 333 206 333 196 331 c 0,21,22
 175 328 175 328 175 319 c 0,23,24
 175 308 175 308 208 308 c 0,25,0
 228 308 228 308 248 311.5 c 128,-1,1
423 311.5 m 128,-1,27
 443 315 443 315 449 321 c 0,28,29
 460 332 460 332 460 345 c 0,30,31
 460 354 460 354 455 363 c 128,-1,32
 450 372 450 372 441 378 c 0,33,34
 426 388 426 388 382 398.5 c 128,-1,35
 338 409 338 409 312 409 c 0,36,37
 289 409 289 409 289 401 c 0,38,39
 289 396 289 396 299.5 391 c 128,-1,40
 310 386 310 386 327 384 c 0,41,42
 365 378 365 378 380 370.5 c 128,-1,43
 395 363 395 363 395 351 c 0,44,45
 395 344 395 344 388 338.5 c 128,-1,46
 381 333 381 333 371 331 c 0,47,48
 350 328 350 328 350 319 c 0,49,50
 350 308 350 308 383 308 c 0,51,26
 403 308 403 308 423 311.5 c 128,-1,27
484 -306 m 0,53,54
 502 -306 502 -306 506 -302 c 0,55,56
 510 -299 510 -299 517 -270 c 0,57,58
 523 -248 523 -248 523 -238 c 0,59,60
 523 -230 523 -230 522 -224 c 0,61,62
 518 -191 518 -191 505.5 -171 c 128,-1,63
 493 -151 493 -151 467 -137 c 0,64,65
 446 -126 446 -126 427.5 -113 c 128,-1,66
 409 -100 409 -100 400 -90 c 0,67,68
 392 -81 392 -81 385.5 -67 c 128,-1,69
 379 -53 379 -53 371 -24 c 0,70,71
 365 2 365 2 365 14 c 0,72,73
 365 64 365 64 409 204 c 2,74,-1
 420 238 l 1,75,-1
 414 244 l 2,76,77
 411 248 411 248 398 254.5 c 128,-1,78
 385 261 385 261 373 266 c 0,79,80
 371 267 371 267 368 267 c 256,81,82
 365 267 365 267 361 262 c 0,83,84
 358 259 358 259 352 240 c 2,85,-1
 348 224 l 1,86,-1
 341 233 l 2,87,88
 321 256 321 256 305 256 c 0,89,90
 297 256 297 256 283 251 c 128,-1,91
 269 246 269 246 256 239 c 0,92,93
 235 230 235 230 209.5 205.5 c 128,-1,94
 184 181 184 181 170 157 c 0,95,96
 151 125 151 125 151 96 c 0,97,98
 151 75 151 75 162.5 60.5 c 128,-1,99
 174 46 174 46 195 39 c 0,100,101
 205 37 205 37 209 37 c 0,102,103
 240 37 240 37 259.5 46.5 c 128,-1,104
 279 56 279 56 308 84 c 0,105,106
 324 100 324 100 328 102.5 c 128,-1,107
 332 105 332 105 330 99 c 0,108,109
 324 60 324 60 324 22 c 0,110,111
 324 -5 324 -5 326 -14 c 0,112,113
 333 -47 333 -47 353 -78.5 c 128,-1,114
 373 -110 373 -110 413 -151 c 0,115,116
 460 -200 460 -200 460 -221 c 0,117,118
 460 -225 460 -225 456.5 -235.5 c 128,-1,119
 453 -246 453 -246 450 -256 c 0,120,121
 446 -268 446 -268 443 -278 c 128,-1,122
 440 -288 440 -288 439 -292 c 0,123,124
 439 -298 439 -298 445 -300.5 c 128,-1,125
 451 -303 451 -303 466 -305 c 0,126,52
 473 -306 473 -306 484 -306 c 0,53,54
243 76 m 0,128,129
 237 76 237 76 234 81 c 0,130,131
 229 89 229 89 229 99 c 0,132,133
 229 124 229 124 253 164 c 0,134,135
 267 187 267 187 285.5 204.5 c 128,-1,136
 304 222 304 222 312 219 c 0,137,138
 314 217 314 217 314.5 215 c 128,-1,139
 315 213 315 213 314 208 c 0,140,141
 314 196 314 196 306 172 c 0,142,143
 298 138 298 138 284 112 c 128,-1,144
 270 86 270 86 256 80 c 0,145,127
 246 76 246 76 243 76 c 0,128,129
EndSplineSet
Fore
SplineSet
249.400390625 602.040039062 m 0,0,1
 249.400390625 589.280273438 249.400390625 589.280273438 299.280273438 589.280273438 c 128,-1,2
 349.16015625 589.280273438 349.16015625 589.280273438 363.080078125 603.200195312 c 128,-1,3
 377 617.120117188 377 617.120117188 377 629.879882812 c 0,4,5
 377 655.785735008 377 655.785735008 356.700195312 668.932906566 c 128,-1,6
 336.400390625 682.080078125 336.400390625 682.080078125 285.940429688 694.259765625 c 128,-1,7
 235.48046875 706.440429688 235.48046875 706.440429688 207.060058594 706.440429688 c 128,-1,8
 178.639648438 706.440429688 178.639648438 706.440429688 178.639648438 697.16015625 c 0,9,10
 178.639648438 685.013533319 178.639648438 685.013533319 222.139648438 677.747001035 c 128,-1,11
 265.639648438 670.48046875 265.639648438 670.48046875 283.620117188 661.780273438 c 128,-1,12
 301.599609375 653.080078125 301.599609375 653.080078125 301.599609375 642.060058594 c 0,13,14
 301.599609375 621.528398411 301.599609375 621.528398411 275.5 617.004433581 c 128,-1,15
 249.400390625 612.48046875 249.400390625 612.48046875 249.400390625 602.040039062 c 0,0,1
452.400390625 602.040039062 m 0,16,17
 452.400390625 589.280273438 452.400390625 589.280273438 502.280273438 589.280273438 c 128,-1,18
 552.16015625 589.280273438 552.16015625 589.280273438 566.080078125 603.200195312 c 128,-1,19
 580 617.120117188 580 617.120117188 580 629.879882812 c 0,20,21
 580 655.785735008 580 655.785735008 560.279785156 668.932906566 c 128,-1,22
 540.559570312 682.080078125 540.559570312 682.080078125 489.51953125 694.259765625 c 128,-1,23
 438.48046875 706.440429688 438.48046875 706.440429688 410.060058594 706.440429688 c 128,-1,24
 381.639648438 706.440429688 381.639648438 706.440429688 381.639648438 697.16015625 c 0,25,26
 381.639648438 691.360351562 381.639648438 691.360351562 393.8203125 685.559570312 c 128,-1,27
 406 679.759765625 406 679.759765625 437.899902344 675.120117188 c 0,28,29
 504.599609375 665.419047003 504.599609375 665.419047003 504.599609375 639.16015625 c 0,30,31
 504.599609375 631.040039062 504.599609375 631.040039062 496.48046875 624.66015625 c 128,-1,32
 488.360351562 618.280273438 488.360351562 618.280273438 470.380371094 615.380371094 c 128,-1,33
 452.400390625 612.48046875 452.400390625 612.48046875 452.400390625 602.040039062 c 0,16,17
555.639648438 -106.719726562 m 0,34,35
 555.639648438 -122.959960938 555.639648438 -122.959960938 607.83984375 -122.959960938 c 0,36,37
 628.719726562 -122.959960938 628.719726562 -122.959960938 633.359863281 -118.899902344 c 128,-1,38
 638 -114.83984375 638 -114.83984375 645.540039062 -85.259765625 c 128,-1,39
 653.080078125 -55.6796875 653.080078125 -55.6796875 653.080078125 -45.2397460938 c 0,40,41
 653.080078125 38.1013140274 653.080078125 38.1013140274 588.120117188 73.080078125 c 0,42,43
 533.914103311 101.472773147 533.914103311 101.472773147 510.400390625 127.599609375 c 0,44,45
 492.245852045 148.023704078 492.245852045 148.023704078 481.022828366 191.172008289 c 128,-1,46
 469.799804688 234.3203125 469.799804688 234.3203125 469.799804688 248.240234375 c 0,47,48
 469.799804688 306.240234375 469.799804688 306.240234375 520.83984375 468.639648438 c 1,49,-1
 533.599609375 508.080078125 l 1,50,51
 516.862244908 524.817442592 516.862244908 524.817442592 479.080078125 540.559570312 c 0,52,53
 476.759765625 541.719726562 476.759765625 541.719726562 473.280273438 541.719726562 c 256,54,55
 464.609970137 541.719726562 464.609970137 541.719726562 454.719726562 510.400390625 c 1,56,-1
 450.080078125 491.83984375 l 1,57,-1
 441.959960938 502.280273438 l 1,58,59
 418.759765625 528.959960938 418.759765625 528.959960938 404.83984375 528.959960938 c 0,60,61
 379.982362095 528.959960938 379.982362095 528.959960938 343.360351562 509.240234375 c 0,62,63
 319 498.799804688 319 498.799804688 289.419921875 470.379882812 c 0,64,65
 221.559570312 405.181072936 221.559570312 405.181072936 221.559570312 343.360351562 c 0,66,67
 221.559570312 294.254262791 221.559570312 294.254262791 272.599609375 277.240234375 c 0,68,69
 284.200195312 274.919921875 284.200195312 274.919921875 304.5 274.919921875 c 0,70,71
 347.213423741 274.919921875 347.213423741 274.919921875 403.6796875 329.440429688 c 0,72,73
 422.240234375 348 422.240234375 348 426.879882812 350.900390625 c 128,-1,74
 431.51953125 353.799804688 431.51953125 353.799804688 429.200195312 346.83984375 c 0,75,76
 422.240234375 301.599609375 422.240234375 301.599609375 422.240234375 263.899902344 c 128,-1,77
 422.240234375 226.200195312 422.240234375 226.200195312 427.459960938 201.840332031 c 0,78,79
 439.68692518 144.778496757 439.68692518 144.778496757 525.48046875 56.83984375 c 0,80,81
 580 0 580 0 580 -24.3603515625 c 0,82,83
 580 -29 580 -29 575.940429688 -41.1796875 c 128,-1,84
 571.879882812 -53.3603515625 571.879882812 -53.3603515625 567.819824219 -66.1201171875 c 0,85,86
 558.34901456 -95.8845426845 558.34901456 -95.8845426845 555.639648438 -106.719726562 c 0,34,35
375.83984375 361.919921875 m 128,-1,88
 359.599609375 331.759765625 359.599609375 331.759765625 345.6796875 325.959960938 c 128,-1,89
 331.759765625 320.16015625 331.759765625 320.16015625 326.540039062 320.16015625 c 128,-1,90
 321.3203125 320.16015625 321.3203125 320.16015625 316.680175781 327.700195312 c 128,-1,91
 312.040039062 335.240234375 312.040039062 335.240234375 312.040039062 346.83984375 c 0,92,93
 312.040039062 375.83984375 312.040039062 375.83984375 334.080078125 412.379882812 c 128,-1,94
 356.120117188 448.919921875 356.120117188 448.919921875 377.580078125 469.219726562 c 0,95,96
 407.247363385 497.283155855 407.247363385 497.283155855 411.219726562 481.400390625 c 0,97,98
 414.119541706 469.801130051 414.119541706 469.801130051 401.360351562 431.51953125 c 0,99,87
 392.080078125 392.080078125 392.080078125 392.080078125 375.83984375 361.919921875 c 128,-1,88
EndSplineSet
EndChar

StartChar: J
Encoding: 74 74 10
Width: 46
VWidth: 1392
GlyphClass: 1
Flags: W
LayerCount: 2
Back
Refer: 34 106 N 1 0 0 1 -650 350 2
Fore
SplineSet
-157.759765625 290 m 0,0,1
 -92.7939453125 285.359375 -92.7939453125 285.359375 -82.3603515625 283.040039062 c 0,2,3
 -80.0400390625 283.040039062 -80.0400390625 283.040039062 -86.419921875 265.640625 c 128,-1,4
 -92.7998046875 248.240234375 -92.7998046875 248.240234375 -92.7998046875 243.01953125 c 128,-1,5
 -92.7998046875 237.799804688 -92.7998046875 237.799804688 -87 233.740234375 c 128,-1,6
 -81.2001953125 229.6796875 -81.2001953125 229.6796875 -73.080078125 229.6796875 c 256,7,8
 -64.9599609375 229.6796875 -64.9599609375 229.6796875 -56.83984375 234.3203125 c 0,9,10
 -32.48046875 244.759765625 -32.48046875 244.759765625 -32.48046875 271.440429688 c 2,11,-1
 -32.48046875 278.400390625 l 1,12,-1
 -20.8798828125 278.400390625 l 2,13,14
 -9.2802734375 278.400390625 -9.2802734375 278.400390625 12.759765625 274.33984375 c 128,-1,15
 34.7998046875 270.280273438 34.7998046875 270.280273438 49.2998046875 263.3203125 c 0,16,17
 73.080078125 251.90625 73.080078125 251.90625 73.080078125 226.200195312 c 0,18,19
 73.080078125 216.919921875 73.080078125 216.919921875 69.01953125 208.219726562 c 0,20,21
 62.3759765625 193.982421875 62.3759765625 193.982421875 66.1201171875 190.240234375 c 2,22,-1
 75.400390625 183.280273438 l 1,23,24
 82.3603515625 179.799804688 82.3603515625 179.799804688 110.780273438 179.799804688 c 128,-1,25
 139.200195312 179.799804688 139.200195312 179.799804688 145 182.120117188 c 128,-1,26
 150.799804688 184.440429688 150.799804688 184.440429688 160.080078125 195.4609375 c 128,-1,27
 169.360351562 206.48046875 169.360351562 206.48046875 171.099609375 210.540039062 c 128,-1,28
 172.83984375 214.599609375 172.83984375 214.599609375 172.83984375 224.459960938 c 0,29,30
 172.83984375 240.120117188 172.83984375 240.120117188 158.919921875 253.459960938 c 128,-1,31
 145 266.799804688 145 266.799804688 132.8203125 272.599609375 c 0,32,33
 82.392578125 296.615234375 82.392578125 296.615234375 55.1162109375 300.267578125 c 128,-1,34
 27.83203125 303.920898438 27.83203125 303.920898438 -24.3603515625 314.360351562 c 1,35,-1
 -30.16015625 317.83984375 l 1,36,-1
 -30.16015625 352.639648438 l 1,37,-1
 -38.2802734375 359.599609375 l 1,38,39
 -44.369140625 367.719726562 -44.369140625 367.719726562 -54.6640625 367.719726562 c 128,-1,40
 -64.9599609375 367.719726562 -64.9599609375 367.719726562 -71.919921875 360.759765625 c 128,-1,41
 -78.8798828125 353.799804688 -78.8798828125 353.799804688 -79.4599609375 349.740234375 c 128,-1,42
 -80.0400390625 345.6796875 -80.0400390625 345.6796875 -78.8798828125 336.400390625 c 2,43,-1
 -76.5595703125 319 l 1,44,-1
 -91.6396484375 320.16015625 l 1,45,46
 -107.879882812 322.48046875 -107.879882812 322.48046875 -131.080078125 322.48046875 c 2,47,-1
 -156.599609375 322.48046875 l 1,48,49
 -163.0703125 374.239257812 -163.0703125 374.239257812 -186.759765625 399.620117188 c 0,50,51
 -206.29296875 420.547851562 -206.29296875 420.547851562 -236.639648438 412.959960938 c 0,52,53
 -244.911132812 410.892578125 -244.911132812 410.892578125 -272.599609375 386.280273438 c 0,54,55
 -286.51953125 371.200195312 -286.51953125 371.200195312 -296.379882812 352.060546875 c 128,-1,56
 -306.240234375 332.919921875 -306.240234375 332.919921875 -313.200195312 325.959960938 c 1,57,-1
 -321.3203125 321.3203125 l 1,58,-1
 -357.280273438 320.16015625 l 2,59,60
 -399.040039062 317.83984375 -399.040039062 317.83984375 -419.919921875 314.360351562 c 1,61,-1
 -519.6796875 310.879882812 l 2,62,63
 -615.0390625 307.28125 -615.0390625 307.28125 -624.779296875 302.700195312 c 0,64,65
 -642.469726562 294.381835938 -642.469726562 294.381835938 -635.6796875 284.200195312 c 0,66,67
 -633.360351562 281.879882812 -633.360351562 281.879882812 -621.759765625 281.879882812 c 2,68,-1
 -472.120117188 286.51953125 l 2,69,70
 -377 290 -377 290 -338.719726562 290 c 2,71,-1
 -321.3203125 290 l 1,72,73
 -314.360351562 269.123046875 -314.360351562 269.123046875 -313.780273438 254.041015625 c 0,74,75
 -312.643554688 224.483398438 -312.643554688 224.483398438 -293.48046875 205.3203125 c 0,76,77
 -271.440429688 185.599609375 -271.440429688 185.599609375 -254.620117188 185.599609375 c 128,-1,78
 -237.799804688 185.599609375 -237.799804688 185.599609375 -225.040039062 191.98046875 c 128,-1,79
 -212.280273438 198.360351562 -212.280273438 198.360351562 -194.879882812 222.139648438 c 128,-1,80
 -177.48046875 245.919921875 -177.48046875 245.919921875 -165.879882812 276.080078125 c 0,81,82
 -162.400390625 290 -162.400390625 290 -157.759765625 290 c 0,0,1
-238.959960938 322.48046875 m 1,83,-1
 -248.240234375 322.48046875 l 2,84,85
 -262.16015625 322.48046875 -262.16015625 322.48046875 -264.48046875 324.799804688 c 128,-1,86
 -266.799804688 327.120117188 -266.799804688 327.120117188 -264.48046875 336.400390625 c 0,87,88
 -264.48046875 353.799804688 -264.48046875 353.799804688 -249.98046875 360.759765625 c 128,-1,89
 -235.48046875 367.719726562 -235.48046875 367.719726562 -230.83984375 367.719726562 c 128,-1,90
 -226.200195312 367.719726562 -226.200195312 367.719726562 -220.400390625 363.66015625 c 128,-1,91
 -214.599609375 359.599609375 -214.599609375 359.599609375 -211.700195312 348.580078125 c 0,92,93
 -208.247070312 335.4609375 -208.247070312 335.4609375 -213.440429688 322.48046875 c 1,94,-1
 -238.959960938 322.48046875 l 1,83,-1
-259.259765625 247.080078125 m 128,-1,96
 -265.639648438 251.719726562 -265.639648438 251.719726562 -267.379882812 255.779296875 c 128,-1,97
 -269.120117188 259.83984375 -269.120117188 259.83984375 -269.120117188 269.69921875 c 128,-1,98
 -269.120117188 279.55859375 -269.120117188 279.55859375 -266.799804688 293.48046875 c 1,99,-1
 -214.599609375 293.48046875 l 1,100,101
 -219.046875 262.350585938 -219.046875 262.350585938 -234.3203125 247.080078125 c 0,102,103
 -241.280273438 242.440429688 -241.280273438 242.440429688 -247.080078125 242.440429688 c 256,104,95
 -252.879882812 242.440429688 -252.879882812 242.440429688 -259.259765625 247.080078125 c 128,-1,96
EndSplineSet
EndChar

StartChar: M
Encoding: 77 77 11
Width: 46
VWidth: 1392
GlyphClass: 1
Flags: W
LayerCount: 2
Back
Refer: 35 109 N 1 0 0 1 -600 530 2
Fore
SplineSet
-450.080078125 1339.79980469 m 1,0,1
 -459.360351562 1328.19921875 -459.360351562 1328.19921875 -459.360351562 1322.39941406 c 128,-1,2
 -459.360351562 1316.59960938 -459.360351562 1316.59960938 -452.400390625 1305 c 0,3,4
 -439.109375 1282.84765625 -439.109375 1282.84765625 -435.89453125 1232.44433594 c 128,-1,5
 -432.6796875 1182.04003906 -432.6796875 1182.04003906 -426.879882812 1165.79980469 c 128,-1,6
 -421.080078125 1149.55957031 -421.080078125 1149.55957031 -406 1139.12011719 c 0,7,8
 -397.879882812 1131 -397.879882812 1131 -388.599609375 1131 c 256,9,10
 -379.3203125 1131 -379.3203125 1131 -368.879882812 1136.79980469 c 0,11,12
 -352.639648438 1141.43945312 -352.639648438 1141.43945312 -348 1146.08007812 c 128,-1,13
 -343.360351562 1150.71972656 -343.360351562 1150.71972656 -343.360351562 1158.25976562 c 128,-1,14
 -343.360351562 1165.79980469 -343.360351562 1165.79980469 -352.639648438 1277.16015625 c 1,15,-1
 -352.639648438 1282.95996094 l 1,16,-1
 -320.16015625 1282.95996094 l 1,17,-1
 -234.3203125 1280.63964844 l 2,18,19
 -215.759765625 1279.47949219 -215.759765625 1279.47949219 -194.879882812 1279.47949219 c 128,-1,20
 -174 1279.47949219 -174 1279.47949219 -167.040039062 1281.21972656 c 0,21,22
 -155.440429688 1284.12011719 -155.440429688 1284.12011719 -155.440429688 1304.41992188 c 128,-1,23
 -155.440429688 1324.71972656 -155.440429688 1324.71972656 -157.759765625 1349.08007812 c 2,24,-1
 -162.400390625 1418.6796875 l 1,25,-1
 -164.719726562 1431.43945312 l 1,26,-1
 -71.919921875 1429.12011719 l 1,27,-1
 -24.3603515625 1429.12011719 l 2,28,29
 28.419921875 1429.12011719 28.419921875 1429.12011719 31.6103515625 1435.5 c 128,-1,30
 34.7998046875 1441.87988281 34.7998046875 1441.87988281 33.6396484375 1454.63964844 c 0,31,32
 29 1472.04003906 29 1472.04003906 22.0400390625 1479 c 2,33,-1
 12.759765625 1487.12011719 l 1,34,-1
 -262.16015625 1488.28027344 l 1,35,36
 -269.120117188 1481.31933594 -269.120117188 1481.31933594 -269.120117188 1470.87890625 c 128,-1,37
 -269.120117188 1460.43945312 -269.120117188 1460.43945312 -259.83984375 1440.71972656 c 128,-1,38
 -250.559570312 1421 -250.559570312 1421 -247.080078125 1365.31933594 c 1,39,-1
 -245.919921875 1337.47949219 l 1,40,-1
 -450.080078125 1339.79980469 l 1,0,1
-506.919921875 559.120117188 m 1,41,42
 -504.212890625 556.413085938 -504.212890625 556.413085938 -495.125976562 560.0859375 c 128,-1,43
 -486.040039062 563.759765625 -486.040039062 563.759765625 -475.599609375 563.759765625 c 2,44,-1
 -461.6796875 564.919921875 l 1,45,-1
 -416.440429688 698.319335938 l 2,46,47
 -393.240234375 767.919921875 -393.240234375 767.919921875 -370.040039062 830.559570312 c 0,48,49
 -368.879882812 830.559570312 -368.879882812 830.559570312 -343.359375 781.83984375 c 128,-1,50
 -317.83984375 733.120117188 -317.83984375 733.120117188 -291.740234375 664.100585938 c 128,-1,51
 -265.639648438 595.080078125 -265.639648438 595.080078125 -261 584.639648438 c 0,52,53
 -258.6796875 581.16015625 -258.6796875 581.16015625 -251.139648438 581.16015625 c 128,-1,54
 -243.599609375 581.16015625 -243.599609375 581.16015625 -233.16015625 587.540039062 c 128,-1,55
 -222.719726562 593.919921875 -222.719726562 593.919921875 -219.240234375 600.299804688 c 128,-1,56
 -215.759765625 606.6796875 -215.759765625 606.6796875 -215.759765625 621.1796875 c 0,57,58
 -215.759765625 668.79296875 -215.759765625 668.79296875 -265.059570312 785.319335938 c 0,59,60
 -284.200195312 830.559570312 -284.200195312 830.559570312 -292.3203125 846.799804688 c 0,61,62
 -301.599609375 860.719726562 -301.599609375 860.719726562 -311.459960938 883.33984375 c 128,-1,63
 -321.3203125 905.959960938 -321.3203125 905.959960938 -323.059570312 912.33984375 c 128,-1,64
 -324.799804688 918.719726562 -324.799804688 918.719726562 -324.799804688 932.059570312 c 0,65,66
 -324.799804688 950.040039062 -324.799804688 950.040039062 -312.040039062 980.200195312 c 128,-1,67
 -299.280273438 1010.359375 -299.280273438 1010.359375 -291.16015625 1023.12011719 c 128,-1,68
 -283.040039062 1035.87988281 -283.040039062 1035.87988281 -269.120117188 1054.43945312 c 2,69,-1
 -243.599609375 1088.08007812 l 1,70,-1
 -247.080078125 1096.20019531 l 1,71,-1
 -249.400390625 1104.31933594 l 1,72,-1
 -265.639648438 1105.47949219 l 1,73,74
 -283.040039062 1105.47949219 -283.040039062 1105.47949219 -285.360351562 1104.31933594 c 0,75,76
 -298.120117188 1097.359375 -298.120117188 1097.359375 -325.959960938 1041.6796875 c 1,77,-1
 -349.16015625 992.959960938 l 1,78,79
 -353.4140625 980.200195312 -353.4140625 980.200195312 -359.407226562 980.200195312 c 128,-1,80
 -365.400390625 980.200195312 -365.400390625 980.200195312 -372.360351562 986.580078125 c 128,-1,81
 -379.3203125 992.959960938 -379.3203125 992.959960938 -408.3203125 1026.59960938 c 1,82,-1
 -446.599609375 1074.16015625 l 1,83,84
 -493.696289062 1067.43164062 -493.696289062 1067.43164062 -506.919921875 1038.78027344 c 0,85,86
 -510.400390625 1031.24023438 -510.400390625 1031.24023438 -510.400390625 1019.06054688 c 128,-1,87
 -510.400390625 1006.87988281 -510.400390625 1006.87988281 -508.080078125 1002.81933594 c 128,-1,88
 -505.759765625 998.759765625 -505.759765625 998.759765625 -493.580078125 996.440429688 c 128,-1,89
 -481.400390625 994.120117188 -481.400390625 994.120117188 -459.360351562 972.080078125 c 0,90,91
 -450.080078125 961.639648438 -450.080078125 961.639648438 -431.51953125 934.379882812 c 128,-1,92
 -412.959960938 907.120117188 -412.959960938 907.120117188 -403.6796875 889.719726562 c 2,93,-1
 -395.559570312 874.639648438 l 1,94,-1
 -451.240234375 722.6796875 l 1,95,96
 -508.080078125 573.040039062 -508.080078125 573.040039062 -508.080078125 566.080078125 c 1,97,-1
 -506.919921875 559.120117188 l 1,41,42
EndSplineSet
EndChar

StartChar: N
Encoding: 78 78 12
Width: 46
VWidth: 1392
GlyphClass: 1
Flags: W
LayerCount: 2
Back
Refer: 36 110 N 1 0 0 1 -600 530 2
Fore
SplineSet
-389.759765625 1119.39941406 m 0,0,1
 -364.237304688 1119.39941406 -364.237304688 1119.39941406 -343.360351562 1140.28027344 c 1,2,-1
 -348 1205.24023438 l 1,3,-1
 -353.799804688 1274.83984375 l 2,4,5
 -353.799804688 1278.31933594 -353.799804688 1278.31933594 -303.33984375 1278.31933594 c 128,-1,6
 -252.879882812 1278.31933594 -252.879882812 1278.31933594 -225.620117188 1275.41992188 c 128,-1,7
 -198.360351562 1272.51953125 -198.360351562 1272.51953125 -182.120117188 1272.51953125 c 0,8,9
 -146.16015625 1272.51953125 -146.16015625 1272.51953125 -146.16015625 1293.39941406 c 0,10,11
 -146.16015625 1320.08007812 -146.16015625 1320.08007812 -161.240234375 1330.51953125 c 0,12,13
 -166.91015625 1336.19140625 -166.91015625 1336.19140625 -184.440429688 1334 c 1,14,-1
 -255.200195312 1332.83984375 l 2,15,16
 -313.200195312 1332.83984375 -313.200195312 1332.83984375 -389.759765625 1335.16015625 c 2,17,-1
 -454.719726562 1337.47949219 l 1,18,19
 -461.6796875 1325.88183594 -461.6796875 1325.88183594 -461.6796875 1317.76074219 c 128,-1,20
 -461.6796875 1309.63964844 -461.6796875 1309.63964844 -451.8203125 1287.01953125 c 128,-1,21
 -441.959960938 1264.39941406 -441.959960938 1264.39941406 -439.640625 1216.83984375 c 128,-1,22
 -437.3203125 1169.28027344 -437.3203125 1169.28027344 -430.940429688 1153.62011719 c 128,-1,23
 -424.559570312 1137.95996094 -424.559570312 1137.95996094 -411.799804688 1128.6796875 c 128,-1,24
 -399.040039062 1119.39941406 -399.040039062 1119.39941406 -389.759765625 1119.39941406 c 0,0,1
-506.919921875 559.120117188 m 1,25,26
 -504.212890625 556.413085938 -504.212890625 556.413085938 -495.125976562 560.0859375 c 128,-1,27
 -486.040039062 563.759765625 -486.040039062 563.759765625 -475.599609375 563.759765625 c 2,28,-1
 -461.6796875 564.919921875 l 1,29,-1
 -416.440429688 698.319335938 l 2,30,31
 -393.240234375 767.919921875 -393.240234375 767.919921875 -370.040039062 830.559570312 c 0,32,33
 -368.879882812 830.559570312 -368.879882812 830.559570312 -343.359375 781.83984375 c 128,-1,34
 -317.83984375 733.120117188 -317.83984375 733.120117188 -291.740234375 664.100585938 c 128,-1,35
 -265.639648438 595.080078125 -265.639648438 595.080078125 -261 584.639648438 c 0,36,37
 -258.6796875 581.16015625 -258.6796875 581.16015625 -251.139648438 581.16015625 c 128,-1,38
 -243.599609375 581.16015625 -243.599609375 581.16015625 -233.16015625 587.540039062 c 128,-1,39
 -222.719726562 593.919921875 -222.719726562 593.919921875 -219.240234375 600.299804688 c 128,-1,40
 -215.759765625 606.6796875 -215.759765625 606.6796875 -215.759765625 621.1796875 c 0,41,42
 -215.759765625 668.79296875 -215.759765625 668.79296875 -265.059570312 785.319335938 c 0,43,44
 -284.200195312 830.559570312 -284.200195312 830.559570312 -292.3203125 846.799804688 c 0,45,46
 -301.599609375 860.719726562 -301.599609375 860.719726562 -311.459960938 883.33984375 c 128,-1,47
 -321.3203125 905.959960938 -321.3203125 905.959960938 -323.059570312 912.33984375 c 128,-1,48
 -324.799804688 918.719726562 -324.799804688 918.719726562 -324.799804688 932.059570312 c 0,49,50
 -324.799804688 950.040039062 -324.799804688 950.040039062 -312.040039062 980.200195312 c 128,-1,51
 -299.280273438 1010.359375 -299.280273438 1010.359375 -291.16015625 1023.12011719 c 128,-1,52
 -283.040039062 1035.87988281 -283.040039062 1035.87988281 -269.120117188 1054.43945312 c 2,53,-1
 -243.599609375 1088.08007812 l 1,54,-1
 -247.080078125 1096.20019531 l 1,55,-1
 -249.400390625 1104.31933594 l 1,56,-1
 -265.639648438 1105.47949219 l 1,57,58
 -283.040039062 1105.47949219 -283.040039062 1105.47949219 -285.360351562 1104.31933594 c 0,59,60
 -298.120117188 1097.359375 -298.120117188 1097.359375 -325.959960938 1041.6796875 c 1,61,-1
 -349.16015625 992.959960938 l 1,62,63
 -353.4140625 980.200195312 -353.4140625 980.200195312 -359.407226562 980.200195312 c 128,-1,64
 -365.400390625 980.200195312 -365.400390625 980.200195312 -372.360351562 986.580078125 c 128,-1,65
 -379.3203125 992.959960938 -379.3203125 992.959960938 -408.3203125 1026.59960938 c 1,66,-1
 -446.599609375 1074.16015625 l 1,67,68
 -493.696289062 1067.43164062 -493.696289062 1067.43164062 -506.919921875 1038.78027344 c 0,69,70
 -510.400390625 1031.24023438 -510.400390625 1031.24023438 -510.400390625 1019.06054688 c 128,-1,71
 -510.400390625 1006.87988281 -510.400390625 1006.87988281 -508.080078125 1002.81933594 c 128,-1,72
 -505.759765625 998.759765625 -505.759765625 998.759765625 -493.580078125 996.440429688 c 128,-1,73
 -481.400390625 994.120117188 -481.400390625 994.120117188 -459.360351562 972.080078125 c 0,74,75
 -450.080078125 961.639648438 -450.080078125 961.639648438 -431.51953125 934.379882812 c 128,-1,76
 -412.959960938 907.120117188 -412.959960938 907.120117188 -403.6796875 889.719726562 c 2,77,-1
 -395.559570312 874.639648438 l 1,78,-1
 -451.240234375 722.6796875 l 1,79,80
 -508.080078125 573.040039062 -508.080078125 573.040039062 -508.080078125 566.080078125 c 1,81,-1
 -506.919921875 559.120117188 l 1,25,26
EndSplineSet
EndChar

StartChar: O
Encoding: 79 79 13
Width: 1047
VWidth: 1392
GlyphClass: 1
Flags: W
LayerCount: 2
Back
SplineSet
410 148 m 128,-1,1
 430 152 430 152 437 157 c 0,2,3
 448 168 448 168 448 181 c 0,4,5
 448 190 448 190 443 199 c 128,-1,6
 438 208 438 208 429 214 c 0,7,8
 413 224 413 224 368.5 235 c 128,-1,9
 324 246 324 246 298 246 c 0,10,11
 275 246 275 246 275 238 c 0,12,13
 275 233 275 233 285.5 227.5 c 128,-1,14
 296 222 296 222 313 220 c 0,15,16
 351 214 351 214 366.5 206.5 c 128,-1,17
 382 199 382 199 382 187 c 0,18,19
 382 180 382 180 375 174.5 c 128,-1,20
 368 169 368 169 358 167 c 0,21,22
 337 164 337 164 337 155 c 0,23,24
 337 150 337 150 346 147 c 128,-1,25
 355 144 355 144 371 144 c 0,26,0
 390 144 390 144 410 148 c 128,-1,1
587 148 m 128,-1,28
 607 152 607 152 614 157 c 0,29,30
 625 168 625 168 625 181 c 0,31,32
 625 190 625 190 620 199 c 128,-1,33
 615 208 615 208 606 214 c 0,34,35
 590 224 590 224 545.5 235 c 128,-1,36
 501 246 501 246 475 246 c 0,37,38
 452 246 452 246 452 238 c 0,39,40
 452 233 452 233 462.5 227.5 c 128,-1,41
 473 222 473 222 490 220 c 0,42,43
 528 214 528 214 543.5 206.5 c 128,-1,44
 559 199 559 199 559 187 c 0,45,46
 559 180 559 180 552 174.5 c 128,-1,47
 545 169 545 169 535 167 c 0,48,49
 514 164 514 164 514 155 c 0,50,51
 514 150 514 150 523 147 c 128,-1,52
 532 144 532 144 548 144 c 0,53,27
 567 144 567 144 587 148 c 128,-1,28
628 -56 m 0,55,56
 645 -56 645 -56 664 -45 c 128,-1,57
 683 -34 683 -34 695 -16 c 0,58,59
 703 -3 703 -3 703 16 c 0,60,61
 703 26 703 26 700 33 c 0,62,63
 696 42 696 42 681 54 c 128,-1,64
 666 66 666 66 651 70 c 0,65,66
 638 75 638 75 627 75 c 0,67,68
 592 75 592 75 559 69 c 128,-1,69
 526 63 526 63 475 48 c 2,70,-1
 455 43 l 2,71,72
 389 25 389 25 371 19 c 0,73,74
 333 11 333 11 319.5 9 c 128,-1,75
 306 7 306 7 286 7 c 0,76,77
 269 7 269 7 262 8.5 c 128,-1,78
 255 10 255 10 255 15 c 0,79,80
 255 22 255 22 273 44 c 0,81,82
 283 59 283 59 288.5 68.5 c 128,-1,83
 294 78 294 78 294 83 c 0,84,85
 294 89 294 89 291 93 c 0,86,87
 286 101 286 101 275 105 c 0,88,89
 268 109 268 109 262 109 c 0,90,91
 255 109 255 109 250 108 c 0,92,93
 211 102 211 102 190 81 c 0,94,95
 179 71 179 71 173 61.5 c 128,-1,96
 167 52 167 52 161 36 c 0,97,98
 159 26 159 26 159 23 c 2,99,-1
 161 7 l 2,100,101
 163 -6 163 -6 168.5 -14 c 128,-1,102
 174 -22 174 -22 188 -33 c 0,103,104
 205 -46 205 -46 223.5 -49.5 c 128,-1,105
 242 -53 242 -53 280 -52 c 0,106,107
 315 -50 315 -50 332.5 -46.5 c 128,-1,108
 350 -43 350 -43 431 -19 c 0,109,110
 518 6 518 6 566.5 17 c 128,-1,111
 615 28 615 28 615 22 c 0,112,113
 615 17 615 17 592 -10 c 0,114,115
 579 -25 579 -25 579 -30 c 0,116,117
 579 -37 579 -37 592 -43 c 0,118,119
 604 -51 604 -51 615 -54 c 0,120,54
 623 -56 623 -56 628 -56 c 0,55,56
EndSplineSet
Fore
SplineSet
437.3203125 411.799804688 m 0,0,1
 437.3203125 399.040039062 437.3203125 399.040039062 468.060058594 399.040039062 c 0,2,3
 532.207187461 399.040039062 532.207187461 399.040039062 553.3203125 414.120117188 c 0,4,5
 566.080078125 426.879882812 566.080078125 426.879882812 566.080078125 439.640136719 c 0,6,7
 566.080078125 465.547562184 566.080078125 465.547562184 545.780273438 478.693702967 c 128,-1,8
 525.48046875 491.83984375 525.48046875 491.83984375 473.860351562 504.599609375 c 128,-1,9
 422.240234375 517.360351562 422.240234375 517.360351562 393.8203125 517.360351562 c 128,-1,10
 365.400390625 517.360351562 365.400390625 517.360351562 365.400390625 508.080078125 c 0,11,12
 365.400390625 502.280273438 365.400390625 502.280273438 377.580078125 495.900390625 c 128,-1,13
 389.759765625 489.51953125 389.759765625 489.51953125 421.659667969 484.879882812 c 0,14,15
 489.51953125 475.010074897 489.51953125 475.010074897 489.51953125 448.919921875 c 0,16,17
 489.51953125 440.799804688 489.51953125 440.799804688 481.400390625 434.419921875 c 128,-1,18
 473.280273438 428.040039062 473.280273438 428.040039062 455.300292969 425.140136719 c 128,-1,19
 437.3203125 422.240234375 437.3203125 422.240234375 437.3203125 411.799804688 c 0,0,1
642.639648438 411.799804688 m 0,20,21
 642.639648438 399.040039062 642.639648438 399.040039062 673.379882812 399.040039062 c 0,22,23
 737.526523398 399.040039062 737.526523398 399.040039062 758.639648438 414.120117188 c 0,24,25
 771.400390625 426.879882812 771.400390625 426.879882812 771.400390625 439.640136719 c 0,26,27
 771.400390625 465.546187752 771.400390625 465.546187752 751.100097656 478.693015751 c 128,-1,28
 730.799804688 491.83984375 730.799804688 491.83984375 679.1796875 504.599609375 c 128,-1,29
 627.559570312 517.360351562 627.559570312 517.360351562 599.139648438 517.360351562 c 128,-1,30
 570.719726562 517.360351562 570.719726562 517.360351562 570.719726562 508.080078125 c 0,31,32
 570.719726562 502.280273438 570.719726562 502.280273438 582.900390625 495.900390625 c 128,-1,33
 595.080078125 489.51953125 595.080078125 489.51953125 626.979980469 484.879882812 c 0,34,35
 694.83984375 475.010074897 694.83984375 475.010074897 694.83984375 448.919921875 c 0,36,37
 694.83984375 440.799804688 694.83984375 440.799804688 686.719726562 434.419921875 c 128,-1,38
 678.599609375 428.040039062 678.599609375 428.040039062 660.619628906 425.140136719 c 128,-1,39
 642.639648438 422.240234375 642.639648438 422.240234375 642.639648438 411.799804688 c 0,20,21
417.01953125 242.440429688 m 128,-1,41
 401.360351562 240.120117188 401.360351562 240.120117188 371.780273438 240.120117188 c 128,-1,42
 342.200195312 240.120117188 342.200195312 240.120117188 342.200195312 248.819824219 c 128,-1,43
 342.200195312 257.51953125 342.200195312 257.51953125 363.080078125 283.040039062 c 0,44,45
 387.440429688 319.582617286 387.440429688 319.582617286 387.440429688 327.411425831 c 0,46,47
 387.440429688 345.785705071 387.440429688 345.785705071 365.400390625 353.799804688 c 0,48,49
 357.280273438 358.440429688 357.280273438 358.440429688 349.740234375 358.440429688 c 128,-1,50
 342.200195312 358.440429688 342.200195312 358.440429688 336.400390625 357.280273438 c 0,51,52
 275.199702982 347.864884653 275.199702982 347.864884653 247.080078125 303.33984375 c 0,53,54
 230.83984375 277.627088778 230.83984375 277.627088778 230.83984375 258.6796875 c 1,55,-1
 233.16015625 240.120117188 l 2,56,57
 235.48046875 225.040039062 235.48046875 225.040039062 241.860351562 215.759765625 c 128,-1,58
 248.240234375 206.48046875 248.240234375 206.48046875 266.220214844 192.560058594 c 128,-1,59
 284.200195312 178.639648438 284.200195312 178.639648438 305.66015625 174.580078125 c 128,-1,60
 327.120117188 170.51953125 327.120117188 170.51953125 369.459960938 172.259765625 c 128,-1,61
 411.799804688 174 411.799804688 174 432.099609375 178.059570312 c 128,-1,62
 452.400390625 182.120117188 452.400390625 182.120117188 549.840332031 210.540039062 c 0,63,64
 759.799804688 271.778087071 759.799804688 271.778087071 759.799804688 257.51953125 c 0,65,66
 759.799804688 251.719726562 759.799804688 251.719726562 738.919921875 227.359863281 c 128,-1,67
 718.040039062 203 718.040039062 203 718.040039062 196.040039062 c 128,-1,68
 718.040039062 189.080078125 718.040039062 189.080078125 733.120117188 182.120117188 c 0,69,70
 773.800675585 154.998793598 773.800675585 154.998793598 816.639648438 179.799804688 c 0,71,72
 861.879882812 205.990991818 861.879882812 205.990991818 861.879882812 250.559570312 c 0,73,74
 861.879882812 262.16015625 861.879882812 262.16015625 857.819824219 271.439941406 c 128,-1,75
 853.759765625 280.719726562 853.759765625 280.719726562 836.360351562 294.639648438 c 0,76,77
 805.9090576 319 805.9090576 319 769.514587394 319 c 0,78,79
 703.885585986 319 703.885585986 319 597.400390625 287.6796875 c 1,80,-1
 574.200195312 281.879882812 l 1,81,82
 497.639648438 261 497.639648438 261 476.759765625 254.040039062 c 0,83,40
 432.6796875 244.759765625 432.6796875 244.759765625 417.01953125 242.440429688 c 128,-1,41
EndSplineSet
EndChar

StartChar: P
Encoding: 80 80 14
Width: 1419
VWidth: 1392
GlyphClass: 1
Flags: W
LayerCount: 2
Back
SplineSet
1033.5 340.5 m 128,-1,1
 1038 344 1038 344 1038 351 c 0,2,3
 1038 363 1038 363 1026 372 c 0,4,5
 951 422 951 422 855 434 c 0,6,7
 833 436 833 436 768 436 c 0,8,9
 712 436 712 436 578 434 c 0,10,11
 473 431 473 431 390 431 c 0,12,13
 318 431 318 431 292 434 c 0,14,15
 240 440 240 440 209.5 444.5 c 128,-1,16
 179 449 179 449 165 456 c 0,17,18
 161 458 161 458 159 458 c 0,19,20
 153 458 153 458 149 452.5 c 128,-1,21
 145 447 145 447 146 440 c 0,22,23
 151 417 151 417 188.5 400 c 128,-1,24
 226 383 226 383 290 374 c 0,25,26
 381 363 381 363 468 364 c 0,27,28
 555 367 555 367 749 367 c 2,29,-1
 859 366 l 2,30,31
 927 362 927 362 977 353 c 0,32,33
 990 350 990 350 1003 346.5 c 128,-1,34
 1016 343 1016 343 1023 341 c 0,35,0
 1029 337 1029 337 1033.5 340.5 c 128,-1,1
530 8 m 0,37,38
 537 8 537 8 543 18 c 128,-1,39
 549 28 549 28 560 51 c 0,40,41
 604 140 604 140 631 177 c 0,42,43
 643 192 643 192 647 192 c 0,44,45
 652 192 652 192 652 178 c 0,46,47
 652 169 652 169 646.5 164.5 c 128,-1,48
 641 160 641 160 641 148 c 0,49,50
 641 123 641 123 665 123 c 0,51,52
 685 123 685 123 696 139 c 0,53,54
 704 149 704 149 708 169.5 c 128,-1,55
 712 190 712 190 712 212 c 0,56,57
 712 252 712 252 701 263 c 256,58,59
 690 274 690 274 667 274 c 0,60,61
 659 274 659 274 647 270 c 0,62,63
 635 265 635 265 628 258 c 128,-1,64
 621 251 621 251 608 229 c 2,65,-1
 549 137 l 2,66,67
 547 135 547 135 547 150 c 2,68,-1
 548 203 l 2,69,70
 548 237 548 237 538 252.5 c 128,-1,71
 528 268 528 268 507 268 c 0,72,73
 501 268 501 268 496.5 266.5 c 128,-1,74
 492 265 492 265 488 262 c 0,75,76
 478 255 478 255 459.5 233.5 c 128,-1,77
 441 212 441 212 405 166 c 0,78,79
 397 156 397 156 389.5 144.5 c 128,-1,80
 382 133 382 133 378 133 c 0,81,82
 371 133 371 133 357 154 c 0,83,84
 356 155 356 155 358 178 c 0,85,86
 358 186 358 186 359 196 c 128,-1,87
 360 206 360 206 360 218 c 0,88,89
 361 252 361 252 363.5 275.5 c 128,-1,90
 366 299 366 299 366 307 c 0,91,92
 366 313 366 313 363.5 315 c 128,-1,93
 361 317 361 317 355 317 c 0,94,95
 329 317 329 317 321.5 315 c 128,-1,96
 314 313 314 313 309 305 c 0,97,98
 307 301 307 301 306.5 285.5 c 128,-1,99
 306 270 306 270 306 234 c 0,100,101
 306 182 306 182 304.5 166.5 c 128,-1,102
 303 151 303 151 297 139 c 0,103,104
 290 126 290 126 275 115.5 c 128,-1,105
 260 105 260 105 248 105 c 0,106,107
 223 105 223 105 213.5 117.5 c 128,-1,108
 204 130 204 130 204 154 c 0,109,110
 204 170 204 170 208 204 c 0,111,112
 212 241 212 241 220 256 c 128,-1,113
 228 271 228 271 242 271 c 0,114,115
 251 271 251 271 259.5 264 c 128,-1,116
 268 257 268 257 271 247 c 0,117,118
 280 215 280 215 286 215 c 0,119,120
 294 215 294 215 294 251 c 0,121,122
 294 286 294 286 285.5 301 c 128,-1,123
 277 316 277 316 255 316 c 0,124,125
 207 315 207 315 181.5 281.5 c 128,-1,126
 156 248 156 248 156 183 c 0,127,128
 156 131 156 131 177 99 c 128,-1,129
 198 67 198 67 243 67 c 0,130,131
 266 67 266 67 281.5 73.5 c 128,-1,132
 297 80 297 80 309 94 c 0,133,134
 320 105 320 105 320 105 c 1,135,136
 333 89 333 89 341 81 c 128,-1,137
 349 73 349 73 355 73 c 0,138,139
 368 73 368 73 387.5 87.5 c 128,-1,140
 407 102 407 102 426 127 c 0,141,142
 439 144 439 144 465 184 c 2,143,-1
 482 209 l 2,144,145
 493 223 493 223 493 223 c 2,146,147
 494 223 494 223 494.5 215.5 c 128,-1,148
 495 208 495 208 496 199 c 0,149,150
 500 114 500 114 505.5 73 c 128,-1,151
 511 32 511 32 521 15 c 0,152,36
 525 8 525 8 530 8 c 0,37,38
998 194 m 0,154,155
 1012 194 1012 194 1015 196 c 0,156,157
 1021 199 1021 199 1021 204 c 256,158,159
 1021 209 1021 209 1014 212 c 0,160,161
 1007 214 1007 214 1002 223.5 c 128,-1,162
 997 233 997 233 989 263 c 0,163,164
 982 289 982 289 975 300 c 128,-1,165
 968 311 968 311 955.5 314.5 c 128,-1,166
 943 318 943 318 917 318 c 0,167,168
 890 318 890 318 887 310 c 2,169,-1
 887 309 l 2,170,171
 887 305 887 305 896 301 c 0,172,173
 903 299 903 299 907 290.5 c 128,-1,174
 911 282 911 282 922 248 c 0,175,176
 930 224 930 224 938 213 c 128,-1,177
 946 202 946 202 959 198 c 0,178,153
 977 194 977 194 998 194 c 0,154,155
883 194 m 0,180,181
 897 194 897 194 900 196 c 0,182,183
 906 199 906 199 906 204 c 256,184,185
 906 209 906 209 899 212 c 0,186,187
 893 214 893 214 888.5 223.5 c 128,-1,188
 884 233 884 233 875 263 c 0,189,190
 868 288 868 288 860.5 299.5 c 128,-1,191
 853 311 853 311 841 314.5 c 128,-1,192
 829 318 829 318 805 318 c 0,193,194
 779 318 779 318 773 310 c 2,195,-1
 772 308 l 2,196,197
 772 305 772 305 781 301 c 0,198,199
 789 299 789 299 793.5 289.5 c 128,-1,200
 798 280 798 280 808 248 c 0,201,202
 815 225 815 225 823.5 213.5 c 128,-1,203
 832 202 832 202 845 198 c 0,204,179
 863 194 863 194 883 194 c 0,180,181
EndSplineSet
Fore
SplineSet
1038.20019531 735.440429688 m 0,0,1
 1012.6796875 737.759765625 1012.6796875 737.759765625 974.979980469 737.759765625 c 128,-1,2
 937.280273438 737.759765625 937.280273438 737.759765625 498.799804688 731.959960938 c 1,3,4
 395.566189561 731.959960938 395.566189561 731.959960938 324.803114312 742.399902344 c 128,-1,5
 254.040039062 752.83984375 254.040039062 752.83984375 243.600097656 758.060058594 c 128,-1,6
 233.16015625 763.280273438 233.16015625 763.280273438 228.520019531 763.280273438 c 128,-1,7
 223.879882812 763.280273438 223.879882812 763.280273438 219.240234375 756.900390625 c 128,-1,8
 214.599609375 750.51953125 214.599609375 750.51953125 215.759765625 742.400390625 c 0,9,10
 227.659753048 687.657242557 227.659753048 687.657242557 382.799804688 665.83984375 c 0,11,12
 488.360351562 653.080078125 488.360351562 653.080078125 589.280273438 654.240234375 c 0,13,14
 690.200195312 657.719726562 690.200195312 657.719726562 915.240234375 657.719726562 c 1,15,-1
 1042.83984375 656.559570312 l 1,16,17
 1154.59653919 649.986135377 1154.59653919 649.986135377 1233.08007812 627.559570312 c 0,18,19
 1240.04003906 622.919921875 1240.04003906 622.919921875 1245.25976562 626.98046875 c 128,-1,20
 1250.48046875 631.040039062 1250.48046875 631.040039062 1250.48046875 642.060058594 c 128,-1,21
 1250.48046875 653.080078125 1250.48046875 653.080078125 1236.55957031 663.51953125 c 0,22,23
 1149.55957031 721.51953125 1149.55957031 721.51953125 1038.20019531 735.440429688 c 0,0,1
417.599609375 353.799804688 m 1,24,25
 447.760559105 316.6796875 447.760559105 316.6796875 460.520416271 316.6796875 c 128,-1,26
 473.280273438 316.6796875 473.280273438 316.6796875 495.900390625 333.5 c 128,-1,27
 518.51953125 350.3203125 518.51953125 350.3203125 537.079589844 374.680175781 c 128,-1,28
 555.639648438 399.040039062 555.639648438 399.040039062 585.799804688 445.440429688 c 1,29,-1
 605.51953125 474.440429688 l 1,30,31
 605.51953125 474.440429688 605.51953125 474.440429688 618.280273438 490.6796875 c 0,32,33
 619.440429688 490.6796875 619.440429688 490.6796875 620.01953125 481.98046875 c 128,-1,34
 620.599609375 473.280273438 620.599609375 473.280273438 623.5 418.760253906 c 0,35,36
 632.94169272 241.280273438 632.94169272 241.280273438 661.200195312 241.280273438 c 0,37,38
 669.3203125 241.280273438 669.3203125 241.280273438 676.280273438 252.879882812 c 128,-1,39
 683.240234375 264.48046875 683.240234375 264.48046875 715.140136719 329.440429688 c 128,-1,40
 747.040039062 394.400390625 747.040039062 394.400390625 778.360351562 437.3203125 c 0,41,42
 792.280273438 454.719726562 792.280273438 454.719726562 797.5 454.719726562 c 128,-1,43
 802.719726562 454.719726562 802.719726562 454.719726562 802.719726562 441.379882812 c 128,-1,44
 802.719726562 428.040039062 802.719726562 428.040039062 796.33984375 422.8203125 c 128,-1,45
 789.959960938 417.599609375 789.959960938 417.599609375 789.959960938 403.6796875 c 0,46,47
 789.959960938 374.6796875 789.959960938 374.6796875 817.799804688 374.6796875 c 0,48,49
 872.3203125 374.6796875 872.3203125 374.6796875 872.3203125 477.919921875 c 0,50,51
 872.3203125 524.3203125 872.3203125 524.3203125 859.559570312 537.080078125 c 256,52,53
 846.799804688 549.83984375 846.799804688 549.83984375 828.819824219 549.83984375 c 128,-1,54
 810.83984375 549.83984375 810.83984375 549.83984375 796.919921875 544.620117188 c 128,-1,55
 783 539.400390625 783 539.400390625 774.879882812 531.280273438 c 128,-1,56
 766.759765625 523.16015625 766.759765625 523.16015625 751.6796875 497.639648438 c 1,57,-1
 683.240234375 390.919921875 l 2,58,59
 680.919921875 388.599609375 680.919921875 388.599609375 680.919921875 406 c 2,60,-1
 682.080078125 467.48046875 l 1,61,62
 682.080078125 542.879882812 682.080078125 542.879882812 634.51953125 542.879882812 c 0,63,64
 621.758463816 542.879882812 621.758463816 542.879882812 611.319173314 535.33984375 c 0,65,66
 591.946048326 521.347118943 591.946048326 521.347118943 516.200195312 424.559570312 c 0,67,68
 506.919921875 412.959960938 506.919921875 412.959960938 498.219726562 399.620117188 c 128,-1,69
 489.51953125 386.280273438 489.51953125 386.280273438 484.879882812 386.280273438 c 0,70,71
 476.759765625 386.280273438 476.759765625 386.280273438 460.51953125 410.639648438 c 0,72,73
 459.360351562 411.799804688 459.360351562 411.799804688 460.520019531 425.140136719 c 128,-1,74
 461.6796875 438.48046875 461.6796875 438.48046875 463.419921875 481.400390625 c 128,-1,75
 465.16015625 524.3203125 465.16015625 524.3203125 468.059570312 551.580078125 c 128,-1,76
 470.959960938 578.83984375 470.959960938 578.83984375 470.959960938 586.959960938 c 128,-1,77
 470.959960938 595.080078125 470.959960938 595.080078125 468.059570312 597.400390625 c 128,-1,78
 465.16015625 599.719726562 465.16015625 599.719726562 446.600097656 599.719726562 c 128,-1,79
 428.040039062 599.719726562 428.040039062 599.719726562 419.33984375 597.400390625 c 128,-1,80
 410.639648438 595.080078125 410.639648438 595.080078125 406.579589844 588.120117188 c 0,81,82
 401.360351562 579.173030902 401.360351562 579.173030902 401.360351562 511.146574045 c 128,-1,83
 401.360351562 443.120117188 401.360351562 443.120117188 399.620117188 425.139648438 c 128,-1,84
 397.879882812 407.16015625 397.879882812 407.16015625 390.33984375 392.66015625 c 128,-1,85
 382.799804688 378.16015625 382.799804688 378.16015625 365.400390625 365.98046875 c 128,-1,86
 348 353.799804688 348 353.799804688 326.540039062 353.799804688 c 0,87,88
 283.040039062 353.799804688 283.040039062 353.799804688 283.040039062 410.639648438 c 0,89,90
 283.040039062 429.200195312 283.040039062 429.200195312 287.680175781 470.379882812 c 128,-1,91
 292.3203125 511.559570312 292.3203125 511.559570312 301.599609375 528.959960938 c 128,-1,92
 310.879882812 546.360351562 310.879882812 546.360351562 324.219726562 546.360351562 c 128,-1,93
 337.559570312 546.360351562 337.559570312 546.360351562 347.419921875 538.240234375 c 128,-1,94
 357.280273438 530.120117188 357.280273438 530.120117188 360.759765625 518.51953125 c 0,95,96
 371.200195312 481.400390625 371.200195312 481.400390625 378.16015625 481.400390625 c 0,97,98
 387.440429688 481.400390625 387.440429688 481.400390625 387.440429688 522.580078125 c 128,-1,99
 387.440429688 563.759765625 387.440429688 563.759765625 377.580078125 581.16015625 c 128,-1,100
 367.719726562 598.559570312 367.719726562 598.559570312 342.200195312 598.559570312 c 0,101,102
 286.51953125 597.400390625 286.51953125 597.400390625 256.940429688 558.540039062 c 128,-1,103
 227.360351562 519.6796875 227.360351562 519.6796875 227.360351562 451.819824219 c 0,104,105
 227.360351562 309.719726562 227.360351562 309.719726562 328.280273438 309.719726562 c 0,106,107
 377.994399711 309.719726562 377.994399711 309.719726562 404.83984375 341.040039062 c 1,108,109
 404.83984375 341.040039062 404.83984375 341.040039062 417.599609375 353.799804688 c 1,24,25
1134.48046875 479.080078125 m 132,-1,111
 1143.75976562 466.3203125 1143.75976562 466.3203125 1161.73974609 461.680175781 c 132,-1,112
 1179.71972656 457.040039062 1179.71972656 457.040039062 1205.23974609 457.040039062 c 132,-1,113
 1230.75976562 457.040039062 1230.75976562 457.040039062 1230.75976562 468.639648438 c 260,114,115
 1230.75976562 474.440429688 1230.75976562 474.440429688 1222.63964844 477.919921875 c 4,116,117
 1214.51953125 480.240234375 1214.51953125 480.240234375 1208.71972656 491.259765625 c 132,-1,118
 1202.91992188 502.280273438 1202.91992188 502.280273438 1194.21972656 534.760253906 c 132,-1,119
 1185.51953125 567.240234375 1185.51953125 567.240234375 1177.40039062 580 c 132,-1,120
 1169.28027344 592.759765625 1169.28027344 592.759765625 1154.78027344 596.8203125 c 132,-1,121
 1140.28027344 600.879882812 1140.28027344 600.879882812 1109.54003906 600.879882812 c 132,-1,122
 1078.79980469 600.879882812 1078.79980469 600.879882812 1075.3203125 591.599609375 c 5,123,-1
 1075.3203125 590.440429688 l 6,124,125
 1075.3203125 585.799804688 1075.3203125 585.799804688 1084.60009766 582.319824219 c 132,-1,126
 1093.87988281 578.83984375 1093.87988281 578.83984375 1098.51953125 568.98046875 c 132,-1,127
 1103.16015625 559.120117188 1103.16015625 559.120117188 1114.18017578 525.479980469 c 132,-1,110
 1125.20019531 491.83984375 1125.20019531 491.83984375 1134.48046875 479.080078125 c 132,-1,111
1021.95996094 596.8203125 m 132,-1,129
 1008.04003906 600.879882812 1008.04003906 600.879882812 977.881103824 600.879882812 c 132,-1,130
 947.722168586 600.879882812 947.722168586 600.879882812 941.919921875 589.280273438 c 5,131,132
 941.919921875 585.799804688 941.919921875 585.799804688 951.779785156 582.319824219 c 132,-1,133
 961.639648438 578.83984375 961.639648438 578.83984375 966.860351562 567.8203125 c 132,-1,134
 972.080078125 556.799804688 972.080078125 556.799804688 981.939941406 524.899902344 c 132,-1,135
 991.799804688 493 991.799804688 493 1001.66015625 479.66015625 c 4,136,137
 1018.37850933 457.040039062 1018.37850933 457.040039062 1070.6796875 457.040039062 c 4,138,139
 1097.36035156 457.040039062 1097.36035156 457.040039062 1097.36035156 468.639648438 c 260,140,141
 1097.36035156 474.440429688 1097.36035156 474.440429688 1089.8203125 477.340332031 c 132,-1,142
 1082.28027344 480.240234375 1082.28027344 480.240234375 1077.05957031 491.259765625 c 132,-1,143
 1071.83984375 502.280273438 1071.83984375 502.280273438 1062.56005859 534.180175781 c 132,-1,144
 1053.28027344 566.080078125 1053.28027344 566.080078125 1044.58007812 579.419921875 c 132,-1,128
 1035.87988281 592.759765625 1035.87988281 592.759765625 1021.95996094 596.8203125 c 132,-1,129
EndSplineSet
EndChar

StartChar: Q
Encoding: 81 81 15
Width: 46
VWidth: 1392
GlyphClass: 1
Flags: W
LayerCount: 2
Back
Refer: 39 113 N 1 0 0 1 -470 470 2
Fore
SplineSet
-77.7197265625 33.640625 m 1,0,1
 -77.7197265625 18.560546875 -77.7197265625 18.560546875 -30.16015625 18.560546875 c 0,2,3
 -11.6005859375 18.560546875 -11.6005859375 18.560546875 -7.5400390625 22.6201171875 c 128,-1,4
 -3.48046875 26.6806640625 -3.48046875 26.6806640625 3.4794921875 53.3603515625 c 128,-1,5
 10.439453125 80.0400390625 10.439453125 80.0400390625 10.439453125 89.3203125 c 0,6,7
 10.439453125 166.333984375 10.439453125 166.333984375 -48.7197265625 197.200195312 c 0,8,9
 -119.350585938 234.978515625 -119.350585938 234.978515625 -135.140625 270.860351562 c 0,10,11
 -141.520507812 285.360351562 -141.520507812 285.360351562 -149.060546875 313.780273438 c 128,-1,12
 -156.600585938 342.200195312 -156.600585938 342.200195312 -156.600585938 356.120117188 c 0,13,14
 -156.600585938 407.16015625 -156.600585938 407.16015625 -110.200195312 556.799804688 c 1,15,-1
 -98.6005859375 592.759765625 l 1,16,17
 -116.328125 610.490234375 -116.328125 610.490234375 -147.3203125 621.759765625 c 0,18,19
 -153.120117188 624.080078125 -153.120117188 624.080078125 -154.860351562 623.5 c 0,20,21
 -164.305664062 620.3515625 -164.305664062 620.3515625 -169.360351562 595.080078125 c 1,22,-1
 -174 577.680664062 l 1,23,-1
 -180.959960938 586.959960938 l 1,24,25
 -201.83984375 611.3203125 -201.83984375 611.3203125 -214.599609375 611.3203125 c 0,26,27
 -241.611328125 611.3203125 -241.611328125 611.3203125 -271.440429688 593.919921875 c 0,28,29
 -293.48046875 584.640625 -293.48046875 584.640625 -320.16015625 558.540039062 c 0,30,31
 -382.799804688 497.26171875 -382.799804688 497.26171875 -382.799804688 443.120117188 c 0,32,33
 -382.799804688 397.067382812 -382.799804688 397.067382812 -335.240234375 382.799804688 c 0,34,35
 -325.959960938 380.48046875 -325.959960938 380.48046875 -307.399414062 380.48046875 c 0,36,37
 -267.634765625 380.48046875 -267.634765625 380.48046875 -215.759765625 430.360351562 c 0,38,39
 -190.240234375 458.200195312 -190.240234375 458.200195312 -192.560546875 446.600585938 c 0,40,41
 -199.520507812 404.83984375 -199.520507812 404.83984375 -199.520507812 370.620117188 c 128,-1,42
 -199.520507812 336.400390625 -199.520507812 336.400390625 -197.200195312 327.120117188 c 0,43,44
 -190.240234375 292.3203125 -190.240234375 292.3203125 -168.780273438 258.680664062 c 128,-1,45
 -147.3203125 225.040039062 -147.3203125 225.040039062 -101.5 178.639648438 c 128,-1,46
 -55.6806640625 132.240234375 -55.6806640625 132.240234375 -55.6806640625 107.879882812 c 1,47,48
 -55.6806640625 107.879882812 -55.6806640625 107.879882812 -77.7197265625 33.640625 c 1,0,1
-285.360351562 422.240234375 m 0,49,50
 -299.280273438 422.240234375 -299.280273438 422.240234375 -299.280273438 447.1796875 c 128,-1,51
 -299.280273438 472.120117188 -299.280273438 472.120117188 -279.559570312 505.1796875 c 128,-1,52
 -259.83984375 538.240234375 -259.83984375 538.240234375 -240.120117188 556.799804688 c 0,53,54
 -212.888671875 582.4296875 -212.888671875 582.4296875 -209.379882812 568.400390625 c 0,55,56
 -207.3046875 560.1015625 -207.3046875 560.1015625 -218.080078125 523.16015625 c 0,57,58
 -226.200195312 487.200195312 -226.200195312 487.200195312 -241.280273438 459.940429688 c 0,59,60
 -262.135742188 422.240234375 -262.135742188 422.240234375 -285.360351562 422.240234375 c 0,49,50
EndSplineSet
EndChar

StartChar: R
Encoding: 82 82 16
Width: 46
VWidth: 1392
GlyphClass: 1
Flags: W
LayerCount: 2
Back
Refer: 40 114 N 1 0 0 1 -560 460 2
Fore
SplineSet
-349.159179688 627.559570312 m 0,0,1
 -349.159179688 614.799804688 -349.159179688 614.799804688 -318.419921875 614.799804688 c 128,-1,2
 -287.6796875 614.799804688 -287.6796875 614.799804688 -263.899414062 619.439453125 c 128,-1,3
 -240.119140625 624.080078125 -240.119140625 624.080078125 -230.259765625 632.780273438 c 128,-1,4
 -220.399414062 641.479492188 -220.399414062 641.479492188 -220.399414062 661.780273438 c 128,-1,5
 -220.399414062 682.080078125 -220.399414062 682.080078125 -240.700195312 694.83984375 c 128,-1,6
 -261 707.599609375 -261 707.599609375 -312.619140625 720.359375 c 128,-1,7
 -364.239257812 733.119140625 -364.239257812 733.119140625 -392.66015625 733.119140625 c 128,-1,8
 -421.080078125 733.119140625 -421.080078125 733.119140625 -421.080078125 723.83984375 c 0,9,10
 -421.080078125 718.040039062 -421.080078125 718.040039062 -408.899414062 711.659179688 c 128,-1,11
 -396.719726562 705.279296875 -396.719726562 705.279296875 -364.8203125 700.639648438 c 0,12,13
 -296.959960938 690.770507812 -296.959960938 690.770507812 -296.959960938 664.6796875 c 0,14,15
 -296.959960938 656.559570312 -296.959960938 656.559570312 -305.080078125 650.1796875 c 128,-1,16
 -313.19921875 643.799804688 -313.19921875 643.799804688 -331.1796875 640.900390625 c 128,-1,17
 -349.159179688 638 -349.159179688 638 -349.159179688 627.559570312 c 0,0,1
-143.83984375 627.559570312 m 0,18,19
 -143.83984375 614.799804688 -143.83984375 614.799804688 -113.099609375 614.799804688 c 128,-1,20
 -82.359375 614.799804688 -82.359375 614.799804688 -58.580078125 619.439453125 c 128,-1,21
 -34.7998046875 624.080078125 -34.7998046875 624.080078125 -24.9404296875 632.780273438 c 128,-1,22
 -15.080078125 641.479492188 -15.080078125 641.479492188 -15.080078125 661.780273438 c 128,-1,23
 -15.080078125 682.080078125 -15.080078125 682.080078125 -35.3798828125 694.83984375 c 128,-1,24
 -55.6796875 707.599609375 -55.6796875 707.599609375 -107.299804688 720.359375 c 128,-1,25
 -158.919921875 733.119140625 -158.919921875 733.119140625 -187.33984375 733.119140625 c 128,-1,26
 -215.759765625 733.119140625 -215.759765625 733.119140625 -215.759765625 723.83984375 c 0,27,28
 -215.759765625 718.040039062 -215.759765625 718.040039062 -203.580078125 711.659179688 c 128,-1,29
 -191.399414062 705.279296875 -191.399414062 705.279296875 -159.5 700.639648438 c 0,30,31
 -91.6396484375 690.770507812 -91.6396484375 690.770507812 -91.6396484375 664.6796875 c 0,32,33
 -91.6396484375 656.559570312 -91.6396484375 656.559570312 -99.759765625 650.1796875 c 128,-1,34
 -107.879882812 643.799804688 -107.879882812 643.799804688 -125.860351562 640.900390625 c 128,-1,35
 -143.83984375 638 -143.83984375 638 -143.83984375 627.559570312 c 0,18,19
-193.719726562 498.799804688 m 0,36,37
 -160.080078125 498.799804688 -160.080078125 498.799804688 -160.080078125 444.279296875 c 0,38,39
 -160.080078125 411.799804688 -160.080078125 411.799804688 -169.360351562 345.099609375 c 128,-1,40
 -178.639648438 278.399414062 -178.639648438 278.399414062 -178.639648438 250.559570312 c 128,-1,41
 -178.639648438 222.719726562 -178.639648438 222.719726562 -168.779296875 214.01953125 c 128,-1,42
 -158.919921875 205.319335938 -158.919921875 205.319335938 -131.080078125 205.319335938 c 2,43,-1
 -70.759765625 206.479492188 l 2,44,45
 -68.439453125 206.479492188 -68.439453125 206.479492188 -76.5595703125 186.1796875 c 128,-1,46
 -84.6796875 165.879882812 -84.6796875 165.879882812 -99.1796875 139.200195312 c 0,47,48
 -132.239257812 78.3701171875 -132.239257812 78.3701171875 -132.239257812 53.10546875 c 128,-1,49
 -132.239257812 27.83984375 -132.239257812 27.83984375 -130.5 22.0400390625 c 128,-1,50
 -128.759765625 16.2392578125 -128.759765625 16.2392578125 -121.799804688 15.080078125 c 128,-1,51
 -114.83984375 13.919921875 -114.83984375 13.919921875 -94.5400390625 13.919921875 c 0,52,53
 -54.5205078125 13.919921875 -54.5205078125 13.919921875 -59.1591796875 25.51953125 c 0,54,55
 -62.6396484375 30.1591796875 -62.6396484375 30.1591796875 -62.6396484375 43.5 c 128,-1,56
 -62.6396484375 56.83984375 -62.6396484375 56.83984375 -51.0400390625 85.83984375 c 128,-1,57
 -39.439453125 114.83984375 -39.439453125 114.83984375 -12.1796875 160.66015625 c 128,-1,58
 15.080078125 206.479492188 15.080078125 206.479492188 15.080078125 232.580078125 c 128,-1,59
 15.080078125 258.6796875 15.080078125 258.6796875 3.48046875 266.799804688 c 0,60,61
 -6.4853515625 274.2734375 -6.4853515625 274.2734375 -60.3193359375 271.439453125 c 1,62,-1
 -112.51953125 266.799804688 l 1,63,-1
 -100.919921875 329.439453125 l 1,64,65
 -83.51953125 417.599609375 -83.51953125 417.599609375 -83.51953125 457.620117188 c 128,-1,66
 -83.51953125 497.639648438 -83.51953125 497.639648438 -93.9599609375 517.359375 c 0,67,68
 -117.909179688 562.599609375 -117.909179688 562.599609375 -206.479492188 562.599609375 c 0,69,70
 -304.552734375 562.599609375 -304.552734375 562.599609375 -338.719726562 499.959960938 c 0,71,72
 -352.639648438 474.439453125 -352.639648438 474.439453125 -352.639648438 432.6796875 c 0,73,74
 -350.319335938 383.959960938 -350.319335938 383.959960938 -342.19921875 358.439453125 c 2,75,-1
 -334.080078125 334.080078125 l 1,76,-1
 -370.040039062 341.040039062 l 2,77,78
 -375.83984375 342.19921875 -375.83984375 342.19921875 -396.139648438 342.19921875 c 128,-1,79
 -416.439453125 342.19921875 -416.439453125 342.19921875 -439.059570312 328.279296875 c 128,-1,80
 -461.6796875 314.359375 -461.6796875 314.359375 -474.439453125 285.939453125 c 128,-1,81
 -487.19921875 257.51953125 -487.19921875 257.51953125 -487.19921875 229.6796875 c 0,82,83
 -487.19921875 178.639648438 -487.19921875 178.639648438 -448.33984375 144.419921875 c 128,-1,84
 -409.479492188 110.19921875 -409.479492188 110.19921875 -349.740234375 110.19921875 c 128,-1,85
 -290 110.19921875 -290 110.19921875 -260.419921875 137.459960938 c 128,-1,86
 -230.83984375 164.719726562 -230.83984375 164.719726562 -230.83984375 211.120117188 c 128,-1,87
 -230.83984375 257.51953125 -230.83984375 257.51953125 -250.559570312 313.200195312 c 128,-1,88
 -270.279296875 368.879882812 -270.279296875 368.879882812 -270.279296875 412.959960938 c 0,89,90
 -270.279296875 486.040039062 -270.279296875 486.040039062 -212.279296875 496.479492188 c 0,91,92
 -198.359375 498.799804688 -198.359375 498.799804688 -193.719726562 498.799804688 c 0,36,37
-344.51953125 156.599609375 m 256,93,94
 -372.359375 156.599609375 -372.359375 156.599609375 -392.659179688 175.739257812 c 128,-1,95
 -412.959960938 194.879882812 -412.959960938 194.879882812 -412.959960938 216.33984375 c 128,-1,96
 -412.959960938 237.799804688 -412.959960938 237.799804688 -406.580078125 254.620117188 c 0,97,98
 -392.279296875 292.319335938 -392.279296875 292.319335938 -343.359375 292.319335938 c 256,99,100
 -316.6796875 292.319335938 -316.6796875 292.319335938 -298.69921875 270.859375 c 128,-1,101
 -280.719726562 249.399414062 -280.719726562 249.399414062 -280.719726562 223.879882812 c 128,-1,102
 -280.719726562 198.359375 -280.719726562 198.359375 -294.639648438 180.959960938 c 0,103,104
 -316.6796875 156.599609375 -316.6796875 156.599609375 -344.51953125 156.599609375 c 256,93,94
EndSplineSet
EndChar

StartChar: S
Encoding: 83 83 17
Width: 46
VWidth: 1392
GlyphClass: 1
Flags: W
LayerCount: 2
Back
Refer: 41 115 N 1 0 0 1 -640 415 2
Fore
SplineSet
-522 207.640625 m 0,0,1
 -540.560546875 194.880859375 -540.560546875 194.880859375 -549.259765625 194.880859375 c 128,-1,2
 -557.959960938 194.880859375 -557.959960938 194.880859375 -568.979492188 209.380859375 c 128,-1,3
 -580 223.880859375 -580 223.880859375 -580 234.3203125 c 128,-1,4
 -580 244.760742188 -580 244.760742188 -560.280273438 256.360351562 c 1,5,6
 -541.720703125 272.600585938 -541.720703125 272.600585938 -517.360351562 285.360351562 c 128,-1,7
 -493 298.120117188 -493 298.120117188 -436.16015625 321.3203125 c 1,8,-1
 -374.680664062 348 l 1,9,-1
 -373.520507812 385.120117188 l 1,10,11
 -373.520507812 445.440429688 -373.520507812 445.440429688 -328.280273438 472.120117188 c 0,12,13
 -317.840820312 479.080078125 -317.840820312 479.080078125 -302.180664062 481.400390625 c 128,-1,14
 -286.520507812 483.720703125 -286.520507812 483.720703125 -232.580078125 483.720703125 c 128,-1,15
 -178.640625 483.720703125 -178.640625 483.720703125 -158.33984375 481.400390625 c 0,16,17
 -125.768554688 477.676757812 -125.768554688 477.676757812 -101.744140625 489.3984375 c 0,18,19
 -54.197265625 512.596679688 -54.197265625 512.596679688 48.7197265625 584.640625 c 0,20,21
 55.6796875 590.440429688 55.6796875 590.440429688 70.1796875 590.440429688 c 128,-1,22
 84.6796875 590.440429688 84.6796875 590.440429688 95.119140625 578.260742188 c 128,-1,23
 105.559570312 566.080078125 105.559570312 566.080078125 102.66015625 552.16015625 c 0,24,25
 96.8056640625 524.059570312 96.8056640625 524.059570312 -40.6005859375 467.48046875 c 1,26,-1
 -107.880859375 440.80078125 l 1,27,-1
 -107.880859375 409.48046875 l 2,28,29
 -107.880859375 351.48046875 -107.880859375 351.48046875 -155.440429688 322.48046875 c 0,30,31
 -185.268554688 305.080078125 -185.268554688 305.080078125 -261 305.080078125 c 0,32,33
 -291.16015625 305.080078125 -291.16015625 305.080078125 -306.240234375 307.98046875 c 128,-1,34
 -321.3203125 310.880859375 -321.3203125 310.880859375 -331.760742188 310.880859375 c 256,35,36
 -346.674804688 310.880859375 -346.674804688 310.880859375 -383.959960938 293.48046875 c 0,37,38
 -435 272.600585938 -435 272.600585938 -522 207.640625 c 0,0,1
-312.040039062 388.600585938 m 0,39,40
 -312.040039062 356.120117188 -312.040039062 356.120117188 -264.48046875 356.120117188 c 0,41,42
 -223.880859375 356.120117188 -223.880859375 356.120117188 -204.16015625 371.780273438 c 128,-1,43
 -184.440429688 387.440429688 -184.440429688 387.440429688 -184.440429688 407.16015625 c 0,44,45
 -184.440429688 445.440429688 -184.440429688 445.440429688 -245.919921875 445.440429688 c 0,46,47
 -265.640625 445.440429688 -265.640625 445.440429688 -274.340820312 441.959960938 c 128,-1,48
 -283.040039062 438.48046875 -283.040039062 438.48046875 -297.540039062 421.66015625 c 128,-1,49
 -312.040039062 404.840820312 -312.040039062 404.840820312 -312.040039062 388.600585938 c 0,39,40
EndSplineSet
EndChar

StartChar: T
Encoding: 84 84 18
Width: 46
VWidth: 1392
GlyphClass: 1
Flags: W
LayerCount: 2
Back
Refer: 42 116 N 1 0 0 1 -470 590 2
Fore
SplineSet
-356.120117188 678.600585938 m 0,0,1
 -356.120117188 667 -356.120117188 667 -328.280273438 667 c 0,2,3
 -268.42578125 667 -268.42578125 667 -251.719726562 680.919921875 c 0,4,5
 -240.120117188 692.520507812 -240.120117188 692.520507812 -240.120117188 704.120117188 c 0,6,7
 -240.120117188 727.75390625 -240.120117188 727.75390625 -258.6796875 739.717773438 c 128,-1,8
 -277.240234375 751.680664062 -277.240234375 751.680664062 -323.060546875 762.700195312 c 128,-1,9
 -368.879882812 773.720703125 -368.879882812 773.720703125 -394.979492188 773.720703125 c 128,-1,10
 -421.080078125 773.720703125 -421.080078125 773.720703125 -421.080078125 766.760742188 c 0,11,12
 -421.080078125 751.137695312 -421.080078125 751.137695312 -381.059570312 745.608398438 c 128,-1,13
 -341.040039062 740.080078125 -341.040039062 740.080078125 -325.379882812 732.540039062 c 128,-1,14
 -309.719726562 725 -309.719726562 725 -309.719726562 714.559570312 c 0,15,16
 -309.719726562 694.405273438 -309.719726562 694.405273438 -334.080078125 691.360351562 c 0,17,18
 -344.520507812 690.200195312 -344.520507812 690.200195312 -350.3203125 686.140625 c 128,-1,19
 -356.120117188 682.080078125 -356.120117188 682.080078125 -356.120117188 678.600585938 c 0,0,1
-171.680664062 678.600585938 m 0,20,21
 -171.680664062 667 -171.680664062 667 -143.83984375 667 c 0,22,23
 -83.984375 667 -83.984375 667 -67.2802734375 680.919921875 c 0,24,25
 -55.6806640625 692.520507812 -55.6806640625 692.520507812 -55.6806640625 704.120117188 c 0,26,27
 -55.6806640625 727.755859375 -55.6806640625 727.755859375 -74.240234375 739.717773438 c 128,-1,28
 -92.7998046875 751.680664062 -92.7998046875 751.680664062 -138.620117188 762.700195312 c 128,-1,29
 -184.440429688 773.720703125 -184.440429688 773.720703125 -209.959960938 773.720703125 c 128,-1,30
 -235.48046875 773.720703125 -235.48046875 773.720703125 -235.48046875 766.760742188 c 0,31,32
 -235.48046875 753.274414062 -235.48046875 753.274414062 -196.040039062 746.676757812 c 128,-1,33
 -156.600585938 740.080078125 -156.600585938 740.080078125 -140.360351562 732.540039062 c 128,-1,34
 -124.120117188 725 -124.120117188 725 -124.120117188 714.559570312 c 0,35,36
 -124.120117188 694.196289062 -124.120117188 694.196289062 -149.640625 691.360351562 c 256,37,38
 -160.080078125 690.200195312 -160.080078125 690.200195312 -165.879882812 686.140625 c 128,-1,39
 -171.680664062 682.080078125 -171.680664062 682.080078125 -171.680664062 678.600585938 c 0,20,21
-77.7197265625 33.640625 m 1,40,41
 -77.7197265625 18.560546875 -77.7197265625 18.560546875 -30.16015625 18.560546875 c 0,42,43
 -11.6005859375 18.560546875 -11.6005859375 18.560546875 -7.5400390625 22.6201171875 c 128,-1,44
 -3.48046875 26.6806640625 -3.48046875 26.6806640625 3.4794921875 53.3603515625 c 128,-1,45
 10.439453125 80.0400390625 10.439453125 80.0400390625 10.439453125 89.3203125 c 0,46,47
 10.439453125 166.333984375 10.439453125 166.333984375 -48.7197265625 197.200195312 c 0,48,49
 -119.350585938 234.979492188 -119.350585938 234.979492188 -135.140625 270.860351562 c 0,50,51
 -141.520507812 285.360351562 -141.520507812 285.360351562 -149.060546875 313.780273438 c 128,-1,52
 -156.600585938 342.200195312 -156.600585938 342.200195312 -156.600585938 356.120117188 c 0,53,54
 -156.600585938 407.16015625 -156.600585938 407.16015625 -110.200195312 556.80078125 c 1,55,-1
 -98.6005859375 592.760742188 l 1,56,57
 -116.329101562 610.489257812 -116.329101562 610.489257812 -147.3203125 621.760742188 c 0,58,59
 -153.120117188 624.080078125 -153.120117188 624.080078125 -154.860351562 623.5 c 0,60,61
 -164.305664062 620.3515625 -164.305664062 620.3515625 -169.360351562 595.080078125 c 1,62,-1
 -174 577.680664062 l 1,63,-1
 -180.959960938 586.959960938 l 1,64,65
 -201.83984375 611.3203125 -201.83984375 611.3203125 -214.599609375 611.3203125 c 0,66,67
 -241.611328125 611.3203125 -241.611328125 611.3203125 -271.440429688 593.919921875 c 0,68,69
 -293.48046875 584.640625 -293.48046875 584.640625 -320.16015625 558.540039062 c 0,70,71
 -382.799804688 497.26171875 -382.799804688 497.26171875 -382.799804688 443.120117188 c 0,72,73
 -382.799804688 397.068359375 -382.799804688 397.068359375 -335.240234375 382.80078125 c 0,74,75
 -325.959960938 380.48046875 -325.959960938 380.48046875 -307.399414062 380.48046875 c 0,76,77
 -267.634765625 380.48046875 -267.634765625 380.48046875 -215.759765625 430.360351562 c 0,78,79
 -190.240234375 458.200195312 -190.240234375 458.200195312 -192.560546875 446.600585938 c 0,80,81
 -199.520507812 404.840820312 -199.520507812 404.840820312 -199.520507812 370.620117188 c 128,-1,82
 -199.520507812 336.400390625 -199.520507812 336.400390625 -197.200195312 327.120117188 c 0,83,84
 -190.240234375 292.3203125 -190.240234375 292.3203125 -168.780273438 258.680664062 c 128,-1,85
 -147.3203125 225.040039062 -147.3203125 225.040039062 -101.5 178.639648438 c 128,-1,86
 -55.6806640625 132.240234375 -55.6806640625 132.240234375 -55.6806640625 107.880859375 c 1,87,88
 -55.6806640625 107.880859375 -55.6806640625 107.880859375 -77.7197265625 33.640625 c 1,40,41
-285.360351562 422.240234375 m 0,89,90
 -299.280273438 422.240234375 -299.280273438 422.240234375 -299.280273438 447.1796875 c 128,-1,91
 -299.280273438 472.120117188 -299.280273438 472.120117188 -279.559570312 505.1796875 c 128,-1,92
 -259.83984375 538.240234375 -259.83984375 538.240234375 -240.120117188 556.80078125 c 0,93,94
 -212.887695312 582.430664062 -212.887695312 582.430664062 -209.379882812 568.400390625 c 0,95,96
 -207.3046875 560.1015625 -207.3046875 560.1015625 -218.080078125 523.16015625 c 0,97,98
 -226.200195312 487.200195312 -226.200195312 487.200195312 -241.280273438 459.940429688 c 0,99,100
 -262.135742188 422.240234375 -262.135742188 422.240234375 -285.360351562 422.240234375 c 0,89,90
EndSplineSet
EndChar

StartChar: U
Encoding: 85 85 19
Width: 46
VWidth: 1392
GlyphClass: 1
Flags: W
LayerCount: 2
Back
Refer: 43 117 N 1 0 0 1 -560 430 2
Fore
SplineSet
2.900390625 228.51953125 m 128,-1,1
 6.9599609375 222.719726562 6.9599609375 222.719726562 9.4384765625 198.77734375 c 128,-1,2
 11.9169921875 174.8359375 11.9169921875 174.8359375 -7.9619140625 142.517578125 c 0,3,4
 -46.3994140625 80.02734375 -46.3994140625 80.02734375 -46.3994140625 69.599609375 c 256,5,6
 -46.3994140625 64.9599609375 -46.3994140625 64.9599609375 -58.580078125 61.4794921875 c 128,-1,7
 -70.759765625 58 -70.759765625 58 -91.0595703125 58 c 128,-1,8
 -111.359375 58 -111.359375 58 -117.739257812 62.0595703125 c 0,9,10
 -130.813476562 70.380859375 -130.813476562 70.380859375 -90.4794921875 129.919921875 c 0,11,12
 -70.759765625 158.919921875 -70.759765625 158.919921875 -70.759765625 169.359375 c 256,13,14
 -70.759765625 179.799804688 -70.759765625 179.799804688 -90.4794921875 179.799804688 c 1,15,-1
 -113.6796875 177.479492188 l 2,16,17
 -134.559570312 175.16015625 -134.559570312 175.16015625 -139.19921875 175.16015625 c 0,18,19
 -161.239257812 175.16015625 -161.239257812 175.16015625 -169.939453125 186.759765625 c 128,-1,20
 -178.639648438 198.359375 -178.639648438 198.359375 -178.639648438 228.51953125 c 128,-1,21
 -178.639648438 258.6796875 -178.639648438 258.6796875 -171.6796875 318.419921875 c 128,-1,22
 -164.719726562 378.16015625 -164.719726562 378.16015625 -164.719726562 409.48046875 c 128,-1,23
 -164.719726562 440.799804688 -164.719726562 440.799804688 -167.040039062 447.759765625 c 0,24,25
 -172.453125 464 -172.453125 464 -206.479492188 464 c 256,26,27
 -242.955078125 464 -242.955078125 464 -254.297851562 442.540039062 c 128,-1,28
 -265.639648438 421.080078125 -265.639648438 421.080078125 -265.639648438 370.040039062 c 128,-1,29
 -265.639648438 319 -265.639648438 319 -249.399414062 272.599609375 c 256,30,31
 -233.159179688 226.200195312 -233.159179688 226.200195312 -233.159179688 182.700195312 c 128,-1,32
 -233.159179688 139.200195312 -233.159179688 139.200195312 -263.319335938 110.200195312 c 128,-1,33
 -293.479492188 81.2001953125 -293.479492188 81.2001953125 -351.479492188 81.2001953125 c 128,-1,34
 -409.479492188 81.2001953125 -409.479492188 81.2001953125 -448.33984375 117.16015625 c 128,-1,35
 -487.19921875 153.120117188 -487.19921875 153.120117188 -487.19921875 199.520507812 c 128,-1,36
 -487.19921875 245.919921875 -487.19921875 245.919921875 -452.399414062 280.719726562 c 0,37,38
 -431.51953125 301.599609375 -431.51953125 301.599609375 -416.439453125 307.399414062 c 128,-1,39
 -401.359375 313.200195312 -401.359375 313.200195312 -384.540039062 311.459960938 c 128,-1,40
 -367.719726562 309.719726562 -367.719726562 309.719726562 -352.059570312 309.719726562 c 128,-1,41
 -336.399414062 309.719726562 -336.399414062 309.719726562 -336.399414062 313.200195312 c 2,42,-1
 -342.19921875 339.879882812 l 1,43,-1
 -348 368.879882812 l 2,44,45
 -351.479492188 387.439453125 -351.479492188 387.439453125 -351.479492188 406 c 0,46,47
 -351.479492188 464 -351.479492188 464 -312.040039062 498.799804688 c 128,-1,48
 -272.599609375 533.599609375 -272.599609375 533.599609375 -207.059570312 533.599609375 c 128,-1,49
 -141.51953125 533.599609375 -141.51953125 533.599609375 -113.099609375 507.5 c 128,-1,50
 -84.6796875 481.399414062 -84.6796875 481.399414062 -84.6796875 422.240234375 c 0,51,52
 -84.6796875 394.399414062 -84.6796875 394.399414062 -96.2802734375 330.01953125 c 128,-1,53
 -107.879882812 265.639648438 -107.879882812 265.639648438 -110.780273438 254.620117188 c 128,-1,54
 -113.6796875 243.599609375 -113.6796875 243.599609375 -103.239257812 240.700195312 c 128,-1,55
 -92.7998046875 237.799804688 -92.7998046875 237.799804688 -58.580078125 237.799804688 c 128,-1,56
 -24.359375 237.799804688 -24.359375 237.799804688 -12.759765625 236.059570312 c 128,-1,0
 -1.1591796875 234.319335938 -1.1591796875 234.319335938 2.900390625 228.51953125 c 128,-1,1
-299.279296875 147.319335938 m 256,57,58
 -278.399414062 168.19921875 -278.399414062 168.19921875 -278.399414062 193.139648438 c 128,-1,59
 -278.399414062 218.080078125 -278.399414062 218.080078125 -301.599609375 242.439453125 c 128,-1,60
 -324.799804688 266.799804688 -324.799804688 266.799804688 -347.419921875 266.799804688 c 128,-1,61
 -370.040039062 266.799804688 -370.040039062 266.799804688 -393.819335938 243.01953125 c 128,-1,62
 -417.599609375 219.240234375 -417.599609375 219.240234375 -417.599609375 196.620117188 c 128,-1,63
 -417.599609375 174 -417.599609375 174 -393.819335938 150.799804688 c 128,-1,64
 -370.040039062 127.599609375 -370.040039062 127.599609375 -345.6796875 127.599609375 c 0,65,66
 -335.239257812 127.599609375 -335.239257812 127.599609375 -321.319335938 133.399414062 c 128,-1,67
 -307.399414062 139.200195312 -307.399414062 139.200195312 -299.279296875 147.319335938 c 256,57,58
EndSplineSet
EndChar

StartChar: V
Encoding: 86 86 20
Width: 46
VWidth: 1392
GlyphClass: 1
Flags: W
LayerCount: 2
Back
Refer: 44 118 N 1 0 0 1 -700 530 2
Fore
SplineSet
-428.040039062 1140.28027344 m 1,0,1
 -407.163085938 1119.39941406 -407.163085938 1119.39941406 -381.639648438 1119.39941406 c 0,2,3
 -372.360351562 1119.39941406 -372.360351562 1119.39941406 -359.599609375 1128.6796875 c 128,-1,4
 -346.83984375 1137.95996094 -346.83984375 1137.95996094 -340.459960938 1153.62011719 c 128,-1,5
 -334.080078125 1169.28027344 -334.080078125 1169.28027344 -331.759765625 1216.83984375 c 128,-1,6
 -329.440429688 1264.39941406 -329.440429688 1264.39941406 -319.580078125 1287.01953125 c 128,-1,7
 -309.719726562 1309.63964844 -309.719726562 1309.63964844 -309.719726562 1317.75878906 c 128,-1,8
 -309.719726562 1325.87890625 -309.719726562 1325.87890625 -316.6796875 1337.47949219 c 1,9,-1
 -381.639648438 1335.16015625 l 2,10,11
 -458.200195312 1332.83984375 -458.200195312 1332.83984375 -516.200195312 1332.83984375 c 2,12,-1
 -586.959960938 1334 l 1,13,-1
 -598.559570312 1335.16015625 l 2,14,15
 -605.51953125 1335.16015625 -605.51953125 1335.16015625 -610.16015625 1330.51953125 c 0,16,17
 -621.759765625 1323.55957031 -621.759765625 1323.55957031 -625.240234375 1300.359375 c 1,18,-1
 -625.240234375 1293.39941406 l 2,19,20
 -625.240234375 1272.51953125 -625.240234375 1272.51953125 -589.280273438 1272.51953125 c 0,21,22
 -571.879882812 1272.51953125 -571.879882812 1272.51953125 -545.19921875 1275.41992188 c 128,-1,23
 -518.51953125 1278.31933594 -518.51953125 1278.31933594 -468.059570312 1278.31933594 c 128,-1,24
 -417.599609375 1278.31933594 -417.599609375 1278.31933594 -417.599609375 1274.83984375 c 2,25,-1
 -423.400390625 1205.24023438 l 1,26,-1
 -428.040039062 1140.28027344 l 1,0,1
-508.080078125 559.120117188 m 1,27,28
 -505.373046875 556.4140625 -505.373046875 556.4140625 -496.287109375 560.086914062 c 128,-1,29
 -487.200195312 563.759765625 -487.200195312 563.759765625 -476.759765625 563.759765625 c 2,30,-1
 -462.83984375 564.919921875 l 1,31,-1
 -417.599609375 698.319335938 l 2,32,33
 -394.400390625 767.919921875 -394.400390625 767.919921875 -371.200195312 830.559570312 c 0,34,35
 -370.040039062 830.559570312 -370.040039062 830.559570312 -344.51953125 781.83984375 c 128,-1,36
 -319 733.120117188 -319 733.120117188 -292.900390625 664.100585938 c 128,-1,37
 -266.799804688 595.080078125 -266.799804688 595.080078125 -262.16015625 584.639648438 c 0,38,39
 -259.83984375 581.16015625 -259.83984375 581.16015625 -252.299804688 581.16015625 c 128,-1,40
 -244.759765625 581.16015625 -244.759765625 581.16015625 -234.3203125 587.540039062 c 128,-1,41
 -223.879882812 593.919921875 -223.879882812 593.919921875 -220.400390625 600.299804688 c 128,-1,42
 -216.919921875 606.6796875 -216.919921875 606.6796875 -216.919921875 621.1796875 c 0,43,44
 -216.919921875 668.79296875 -216.919921875 668.79296875 -266.219726562 785.319335938 c 0,45,46
 -285.360351562 830.559570312 -285.360351562 830.559570312 -293.48046875 846.799804688 c 0,47,48
 -302.759765625 860.719726562 -302.759765625 860.719726562 -312.620117188 883.33984375 c 128,-1,49
 -322.48046875 905.959960938 -322.48046875 905.959960938 -324.219726562 912.33984375 c 128,-1,50
 -325.959960938 918.719726562 -325.959960938 918.719726562 -325.959960938 932.059570312 c 0,51,52
 -325.959960938 950.041992188 -325.959960938 950.041992188 -313.200195312 980.200195312 c 128,-1,53
 -300.440429688 1010.359375 -300.440429688 1010.359375 -292.3203125 1023.12011719 c 128,-1,54
 -284.200195312 1035.87988281 -284.200195312 1035.87988281 -270.280273438 1054.43945312 c 2,55,-1
 -244.759765625 1088.08007812 l 1,56,-1
 -248.240234375 1096.20019531 l 1,57,-1
 -250.559570312 1104.31933594 l 1,58,-1
 -266.799804688 1105.47949219 l 1,59,60
 -284.200195312 1105.47949219 -284.200195312 1105.47949219 -286.51953125 1104.31933594 c 0,61,62
 -299.280273438 1097.359375 -299.280273438 1097.359375 -327.120117188 1041.6796875 c 1,63,-1
 -350.3203125 992.959960938 l 1,64,65
 -354.572265625 980.200195312 -354.572265625 980.200195312 -360.56640625 980.200195312 c 128,-1,66
 -366.559570312 980.200195312 -366.559570312 980.200195312 -373.51953125 986.580078125 c 128,-1,67
 -380.48046875 992.959960938 -380.48046875 992.959960938 -409.48046875 1026.59960938 c 1,68,-1
 -447.759765625 1074.16015625 l 1,69,70
 -494.852539062 1067.43164062 -494.852539062 1067.43164062 -508.080078125 1038.78027344 c 0,71,72
 -511.559570312 1031.24023438 -511.559570312 1031.24023438 -511.559570312 1019.06054688 c 128,-1,73
 -511.559570312 1006.87988281 -511.559570312 1006.87988281 -509.240234375 1002.81933594 c 128,-1,74
 -506.919921875 998.759765625 -506.919921875 998.759765625 -494.740234375 996.440429688 c 128,-1,75
 -482.559570312 994.120117188 -482.559570312 994.120117188 -460.51953125 972.080078125 c 0,76,77
 -451.240234375 961.639648438 -451.240234375 961.639648438 -432.6796875 934.379882812 c 128,-1,78
 -414.120117188 907.120117188 -414.120117188 907.120117188 -404.83984375 889.719726562 c 2,79,-1
 -396.719726562 874.639648438 l 1,80,-1
 -452.400390625 722.6796875 l 1,81,82
 -509.240234375 573.040039062 -509.240234375 573.040039062 -509.240234375 566.080078125 c 1,83,-1
 -508.080078125 559.120117188 l 1,27,28
EndSplineSet
EndChar

StartChar: W
Encoding: 87 87 21
Width: 46
VWidth: 1392
GlyphClass: 1
Flags: W
LayerCount: 2
Back
Refer: 45 119 N 1 0 0 1 -470 470 2
Fore
SplineSet
-232 321.3203125 m 1,0,1
 -209.959960938 285.360351562 -209.959960938 285.360351562 -186.759765625 259.83984375 c 128,-1,2
 -163.560546875 234.3203125 -163.560546875 234.3203125 -126.342773438 214.01953125 c 128,-1,3
 -89.1240234375 193.719726562 -89.1240234375 193.719726562 -49.8798828125 193.719726562 c 0,4,5
 -39.4404296875 193.719726562 -39.4404296875 193.719726562 -34.2197265625 198.939453125 c 0,6,7
 -25.8515625 207.30859375 -25.8515625 207.30859375 -30.9052734375 214.434570312 c 0,8,9
 -43.1064453125 231.635742188 -43.1064453125 231.635742188 -62.640625 238.959960938 c 0,10,11
 -78.77734375 248.182617188 -78.77734375 248.182617188 -82.888671875 267.3515625 c 128,-1,12
 -87 286.520507812 -87 286.520507812 -89.900390625 325.959960938 c 128,-1,13
 -92.7998046875 365.400390625 -92.7998046875 365.400390625 -92.2197265625 367.719726562 c 128,-1,14
 -91.640625 370.040039062 -91.640625 370.040039062 -37.1201171875 365.400390625 c 1,15,-1
 15.080078125 363.080078125 l 1,16,-1
 19.7197265625 371.200195312 l 1,17,18
 25.51953125 377 25.51953125 377 25.51953125 381.640625 c 256,19,20
 25.51953125 386.280273438 25.51953125 386.280273438 22.0400390625 392.080078125 c 1,21,-1
 15.080078125 400.200195312 l 1,22,-1
 -62.640625 406 l 1,23,-1
 -140.360351562 414.120117188 l 1,24,25
 -150.6015625 407.975585938 -150.6015625 407.975585938 -151.28125 401.1875 c 128,-1,26
 -151.959960938 394.400390625 -151.959960938 394.400390625 -151.959960938 381.640625 c 256,27,28
 -151.959960938 368.879882812 -151.959960938 368.879882812 -152.540039062 364.240234375 c 128,-1,29
 -153.120117188 359.600585938 -153.120117188 359.600585938 -153.120117188 358.440429688 c 1,30,31
 -159.4140625 364.731445312 -159.4140625 364.731445312 -169.360351562 392.080078125 c 0,32,33
 -211.120117188 489.520507812 -211.120117188 489.520507812 -227.360351562 519.680664062 c 0,34,35
 -238.959960938 537.080078125 -238.959960938 537.080078125 -266.799804688 561.440429688 c 0,36,37
 -321.15625 609 -321.15625 609 -365.318359375 609 c 128,-1,38
 -409.48046875 609 -409.48046875 609 -409.48046875 589.280273438 c 2,39,-1
 -409.48046875 580 l 1,40,-1
 -385.120117188 570.719726562 l 1,41,42
 -356.120117188 561.440429688 -356.120117188 561.440429688 -341.040039062 552.16015625 c 128,-1,43
 -325.959960938 542.879882812 -325.959960938 542.879882812 -310.879882812 523.16015625 c 128,-1,44
 -295.799804688 503.440429688 -295.799804688 503.440429688 -284.200195312 472.120117188 c 128,-1,45
 -272.600585938 440.799804688 -272.600585938 440.799804688 -277.240234375 419.33984375 c 128,-1,46
 -281.879882812 397.879882812 -281.879882812 397.879882812 -308.560546875 346.83984375 c 128,-1,47
 -335.240234375 295.799804688 -335.240234375 295.799804688 -361.33984375 262.16015625 c 128,-1,48
 -387.440429688 228.520507812 -387.440429688 228.520507812 -380.48046875 222.719726562 c 0,49,50
 -352.0546875 214.600585938 -352.0546875 214.600585938 -329.440429688 214.600585938 c 2,51,-1
 -315.520507812 214.600585938 l 1,52,-1
 -303.919921875 226.200195312 l 1,53,54
 -278.400390625 258.680664062 -278.400390625 258.680664062 -256.360351562 302.759765625 c 1,55,-1
 -238.959960938 335.240234375 l 1,56,-1
 -232 321.3203125 l 1,0,1
EndSplineSet
EndChar

StartChar: X
Encoding: 88 88 22
Width: 46
VWidth: 1392
GlyphClass: 1
Flags: W
LayerCount: 2
Back
Refer: 46 120 N 1 0 0 1 -840 530 2
Fore
SplineSet
-402.520507812 1277.16015625 m 1,0,1
 -402.520507812 1277.16015625 -402.520507812 1277.16015625 -411.80078125 1165.79980469 c 1,2,3
 -411.80078125 1150.71972656 -411.80078125 1150.71972656 -407.16015625 1146.08007812 c 128,-1,4
 -402.520507812 1141.43945312 -402.520507812 1141.43945312 -386.280273438 1136.79980469 c 0,5,6
 -375.840820312 1131 -375.840820312 1131 -366.560546875 1131 c 256,7,8
 -357.280273438 1131 -357.280273438 1131 -349.16015625 1139.12011719 c 0,9,10
 -334.080078125 1149.55957031 -334.080078125 1149.55957031 -328.280273438 1165.79980469 c 128,-1,11
 -322.48046875 1182.04003906 -322.48046875 1182.04003906 -320.16015625 1218.58007812 c 0,12,13
 -316.008789062 1283.96679688 -316.008789062 1283.96679688 -300.440429688 1307.31933594 c 0,14,15
 -295.80078125 1313.12011719 -295.80078125 1313.12011719 -295.80078125 1320.66015625 c 128,-1,16
 -295.80078125 1328.20019531 -295.80078125 1328.20019531 -305.080078125 1339.79980469 c 1,17,-1
 -509.240234375 1337.47949219 l 1,18,-1
 -508.080078125 1365.31933594 l 1,19,20
 -504.600585938 1421 -504.600585938 1421 -495.3203125 1440.71972656 c 128,-1,21
 -486.040039062 1460.43945312 -486.040039062 1460.43945312 -486.040039062 1470.87890625 c 128,-1,22
 -486.040039062 1481.31933594 -486.040039062 1481.31933594 -493 1488.28027344 c 1,23,-1
 -767.919921875 1487.12011719 l 1,24,-1
 -777.200195312 1479 l 2,25,26
 -784.16015625 1472.04003906 -784.16015625 1472.04003906 -788.80078125 1454.63964844 c 0,27,28
 -789.959960938 1441.87988281 -789.959960938 1441.87988281 -787.640625 1437.24023438 c 0,29,30
 -783.580078125 1429.12011719 -783.580078125 1429.12011719 -730.80078125 1429.12011719 c 2,31,-1
 -683.240234375 1429.12011719 l 1,32,-1
 -590.440429688 1431.43945312 l 1,33,-1
 -592.760742188 1418.6796875 l 1,34,-1
 -597.400390625 1349.08007812 l 1,35,-1
 -599.720703125 1302.6796875 l 2,36,37
 -599.720703125 1284.12011719 -599.720703125 1284.12011719 -590.440429688 1281.79980469 c 128,-1,38
 -581.16015625 1279.47949219 -581.16015625 1279.47949219 -560.280273438 1279.47949219 c 128,-1,39
 -539.400390625 1279.47949219 -539.400390625 1279.47949219 -520.840820312 1280.63964844 c 2,40,-1
 -435 1282.95996094 l 1,41,-1
 -402.520507812 1282.95996094 l 1,42,-1
 -402.520507812 1277.16015625 l 1,0,1
-501.120117188 559.120117188 m 1,43,44
 -498.413085938 556.412109375 -498.413085938 556.412109375 -489.326171875 560.0859375 c 128,-1,45
 -480.240234375 563.759765625 -480.240234375 563.759765625 -469.80078125 563.759765625 c 2,46,-1
 -455.880859375 564.919921875 l 1,47,-1
 -410.640625 698.319335938 l 2,48,49
 -387.440429688 767.919921875 -387.440429688 767.919921875 -364.240234375 830.559570312 c 0,50,51
 -363.080078125 830.559570312 -363.080078125 830.559570312 -337.559570312 781.83984375 c 128,-1,52
 -312.040039062 733.120117188 -312.040039062 733.120117188 -285.940429688 664.100585938 c 128,-1,53
 -259.840820312 595.080078125 -259.840820312 595.080078125 -255.200195312 584.639648438 c 0,54,55
 -252.880859375 581.16015625 -252.880859375 581.16015625 -245.340820312 581.16015625 c 128,-1,56
 -237.80078125 581.16015625 -237.80078125 581.16015625 -227.360351562 587.540039062 c 128,-1,57
 -216.919921875 593.919921875 -216.919921875 593.919921875 -213.440429688 600.299804688 c 128,-1,58
 -209.959960938 606.6796875 -209.959960938 606.6796875 -209.959960938 621.1796875 c 0,59,60
 -209.959960938 668.795898438 -209.959960938 668.795898438 -259.260742188 785.319335938 c 0,61,62
 -278.400390625 830.559570312 -278.400390625 830.559570312 -286.520507812 846.799804688 c 0,63,64
 -295.80078125 860.719726562 -295.80078125 860.719726562 -305.66015625 883.33984375 c 128,-1,65
 -315.520507812 905.959960938 -315.520507812 905.959960938 -317.260742188 912.33984375 c 128,-1,66
 -319 918.719726562 -319 918.719726562 -319 932.059570312 c 0,67,68
 -319 950.040039062 -319 950.040039062 -306.240234375 980.200195312 c 128,-1,69
 -293.48046875 1010.359375 -293.48046875 1010.359375 -285.360351562 1023.12011719 c 128,-1,70
 -277.240234375 1035.87988281 -277.240234375 1035.87988281 -263.3203125 1054.43945312 c 2,71,-1
 -237.80078125 1088.08007812 l 1,72,-1
 -241.280273438 1096.20019531 l 1,73,-1
 -243.600585938 1104.31933594 l 1,74,-1
 -259.840820312 1105.47949219 l 1,75,76
 -277.240234375 1105.47949219 -277.240234375 1105.47949219 -279.560546875 1104.31933594 c 0,77,78
 -292.3203125 1097.359375 -292.3203125 1097.359375 -320.16015625 1041.6796875 c 1,79,-1
 -343.360351562 992.959960938 l 1,80,81
 -350.418945312 971.78515625 -350.418945312 971.78515625 -366.560546875 986.580078125 c 0,82,83
 -373.520507812 992.959960938 -373.520507812 992.959960938 -402.520507812 1026.59960938 c 1,84,-1
 -440.80078125 1074.16015625 l 1,85,86
 -487.896484375 1067.43066406 -487.896484375 1067.43066406 -501.120117188 1038.78027344 c 0,87,88
 -504.600585938 1031.24023438 -504.600585938 1031.24023438 -504.600585938 1019.06054688 c 128,-1,89
 -504.600585938 1006.87988281 -504.600585938 1006.87988281 -502.280273438 1002.81933594 c 128,-1,90
 -499.959960938 998.759765625 -499.959960938 998.759765625 -487.780273438 996.440429688 c 128,-1,91
 -475.600585938 994.120117188 -475.600585938 994.120117188 -453.560546875 972.080078125 c 0,92,93
 -444.280273438 961.639648438 -444.280273438 961.639648438 -425.720703125 934.379882812 c 128,-1,94
 -407.16015625 907.120117188 -407.16015625 907.120117188 -397.880859375 889.719726562 c 2,95,-1
 -389.760742188 874.639648438 l 1,96,-1
 -445.440429688 722.6796875 l 1,97,98
 -502.280273438 573.040039062 -502.280273438 573.040039062 -502.280273438 566.080078125 c 1,99,-1
 -501.120117188 559.120117188 l 1,43,44
EndSplineSet
EndChar

StartChar: Y
Encoding: 89 89 23
Width: 46
VWidth: 1392
GlyphClass: 1
Flags: W
LayerCount: 2
Back
Refer: 47 121 N 1 0 0 1 -586 420 2
Fore
SplineSet
-327.120117188 330.600585938 m 1,0,1
 -296.9609375 293.48046875 -296.9609375 293.48046875 -284.200195312 293.48046875 c 128,-1,2
 -271.439453125 293.48046875 -271.439453125 293.48046875 -248.819335938 310.299804688 c 128,-1,3
 -226.200195312 327.120117188 -226.200195312 327.120117188 -207.640625 351.479492188 c 128,-1,4
 -189.080078125 375.83984375 -189.080078125 375.83984375 -158.919921875 422.240234375 c 1,5,-1
 -139.200195312 451.240234375 l 1,6,7
 -139.200195312 451.240234375 -139.200195312 451.240234375 -126.439453125 467.48046875 c 0,8,9
 -125.279296875 467.48046875 -125.279296875 467.48046875 -124.700195312 458.780273438 c 128,-1,10
 -124.120117188 450.080078125 -124.120117188 450.080078125 -121.219726562 395.559570312 c 0,11,12
 -111.778320312 218.080078125 -111.778320312 218.080078125 -83.51953125 218.080078125 c 0,13,14
 -75.3994140625 218.080078125 -75.3994140625 218.080078125 -68.439453125 229.680664062 c 128,-1,15
 -61.4794921875 241.280273438 -61.4794921875 241.280273438 -29.580078125 306.240234375 c 128,-1,16
 2.3203125 371.200195312 2.3203125 371.200195312 33.640625 414.120117188 c 0,17,18
 47.560546875 431.520507812 47.560546875 431.520507812 52.7802734375 431.520507812 c 128,-1,19
 58 431.520507812 58 431.520507812 58 418.1796875 c 128,-1,20
 58 404.83984375 58 404.83984375 51.6201171875 399.620117188 c 128,-1,21
 45.240234375 394.400390625 45.240234375 394.400390625 45.240234375 380.48046875 c 0,22,23
 45.240234375 351.48046875 45.240234375 351.48046875 73.080078125 351.48046875 c 0,24,25
 127.600585938 351.48046875 127.600585938 351.48046875 127.600585938 454.719726562 c 0,26,27
 127.600585938 501.120117188 127.600585938 501.120117188 114.83984375 513.879882812 c 256,28,29
 102.080078125 526.640625 102.080078125 526.640625 84.099609375 526.640625 c 128,-1,30
 66.1201171875 526.640625 66.1201171875 526.640625 52.2001953125 521.419921875 c 128,-1,31
 38.2802734375 516.200195312 38.2802734375 516.200195312 30.16015625 508.080078125 c 128,-1,32
 22.0400390625 499.959960938 22.0400390625 499.959960938 6.9599609375 474.440429688 c 1,33,-1
 -61.4794921875 367.719726562 l 2,34,35
 -63.7998046875 365.400390625 -63.7998046875 365.400390625 -63.7998046875 382.799804688 c 2,36,-1
 -62.6396484375 444.280273438 l 1,37,38
 -62.6396484375 519.680664062 -62.6396484375 519.680664062 -110.200195312 519.680664062 c 0,39,40
 -122.958984375 519.680664062 -122.958984375 519.680664062 -133.399414062 512.140625 c 0,41,42
 -152.76953125 498.151367188 -152.76953125 498.151367188 -228.51953125 401.360351562 c 0,43,44
 -237.799804688 389.759765625 -237.799804688 389.759765625 -246.5 376.419921875 c 128,-1,45
 -255.200195312 363.080078125 -255.200195312 363.080078125 -259.83984375 363.080078125 c 0,46,47
 -267.959960938 363.080078125 -267.959960938 363.080078125 -284.200195312 387.440429688 c 0,48,49
 -285.359375 388.600585938 -285.359375 388.600585938 -284.200195312 401.940429688 c 128,-1,50
 -283.040039062 415.280273438 -283.040039062 415.280273438 -281.299804688 458.200195312 c 128,-1,51
 -279.559570312 501.120117188 -279.559570312 501.120117188 -276.66015625 528.379882812 c 128,-1,52
 -273.759765625 555.640625 -273.759765625 555.640625 -273.759765625 563.759765625 c 128,-1,53
 -273.759765625 571.879882812 -273.759765625 571.879882812 -276.66015625 574.200195312 c 128,-1,54
 -279.559570312 576.520507812 -279.559570312 576.520507812 -298.120117188 576.520507812 c 128,-1,55
 -316.6796875 576.520507812 -316.6796875 576.520507812 -325.379882812 574.200195312 c 128,-1,56
 -334.080078125 571.879882812 -334.080078125 571.879882812 -338.140625 564.919921875 c 0,57,58
 -343.359375 555.97265625 -343.359375 555.97265625 -343.359375 487.946289062 c 128,-1,59
 -343.359375 419.919921875 -343.359375 419.919921875 -345.099609375 401.940429688 c 128,-1,60
 -346.83984375 383.959960938 -346.83984375 383.959960938 -354.379882812 369.459960938 c 128,-1,61
 -361.919921875 354.959960938 -361.919921875 354.959960938 -379.319335938 342.780273438 c 128,-1,62
 -396.719726562 330.600585938 -396.719726562 330.600585938 -418.1796875 330.600585938 c 0,63,64
 -461.6796875 330.600585938 -461.6796875 330.600585938 -461.6796875 387.440429688 c 0,65,66
 -461.6796875 406 -461.6796875 406 -457.040039062 447.1796875 c 128,-1,67
 -452.399414062 488.360351562 -452.399414062 488.360351562 -443.120117188 505.759765625 c 128,-1,68
 -433.83984375 523.16015625 -433.83984375 523.16015625 -420.5 523.16015625 c 128,-1,69
 -407.16015625 523.16015625 -407.16015625 523.16015625 -397.299804688 515.040039062 c 128,-1,70
 -387.439453125 506.919921875 -387.439453125 506.919921875 -383.959960938 495.3203125 c 0,71,72
 -373.51953125 458.200195312 -373.51953125 458.200195312 -366.559570312 458.200195312 c 0,73,74
 -357.279296875 458.200195312 -357.279296875 458.200195312 -357.279296875 499.379882812 c 128,-1,75
 -357.279296875 540.560546875 -357.279296875 540.560546875 -367.139648438 557.959960938 c 128,-1,76
 -377 575.360351562 -377 575.360351562 -402.51953125 575.360351562 c 0,77,78
 -458.200195312 574.200195312 -458.200195312 574.200195312 -487.779296875 535.33984375 c 128,-1,79
 -517.359375 496.48046875 -517.359375 496.48046875 -517.359375 428.620117188 c 0,80,81
 -517.359375 286.520507812 -517.359375 286.520507812 -416.439453125 286.520507812 c 0,82,83
 -366.7265625 286.520507812 -366.7265625 286.520507812 -339.879882812 317.83984375 c 1,84,85
 -339.879882812 317.83984375 -339.879882812 317.83984375 -327.120117188 330.600585938 c 1,0,1
EndSplineSet
EndChar

StartChar: Z
Encoding: 90 90 24
Width: 46
VWidth: 1392
GlyphClass: 1
Flags: W
LayerCount: 2
Back
Refer: 48 122 N 1 0 0 1 -1010 530 2
Fore
SplineSet
-306.239257812 1339.79980469 m 1,0,1
 -296.959960938 1328.20019531 -296.959960938 1328.20019531 -296.959960938 1320.66015625 c 128,-1,2
 -296.959960938 1313.12011719 -296.959960938 1313.12011719 -303.919921875 1303.25976562 c 0,3,4
 -317.099609375 1284.58789062 -317.099609375 1284.58789062 -320.370117188 1233.31445312 c 128,-1,5
 -323.639648438 1182.04003906 -323.639648438 1182.04003906 -329.439453125 1165.79980469 c 128,-1,6
 -335.239257812 1149.55957031 -335.239257812 1149.55957031 -350.319335938 1139.12011719 c 0,7,8
 -358.439453125 1131 -358.439453125 1131 -367.719726562 1131 c 256,9,10
 -377 1131 -377 1131 -387.439453125 1136.79980469 c 0,11,12
 -403.6796875 1141.43945312 -403.6796875 1141.43945312 -408.319335938 1146.08007812 c 128,-1,13
 -412.959960938 1150.71972656 -412.959960938 1150.71972656 -412.959960938 1158.25976562 c 128,-1,14
 -412.959960938 1165.79980469 -412.959960938 1165.79980469 -403.6796875 1277.16015625 c 1,15,-1
 -403.6796875 1282.95996094 l 1,16,-1
 -436.159179688 1282.95996094 l 1,17,-1
 -522 1280.63964844 l 2,18,19
 -540.559570312 1279.47949219 -540.559570312 1279.47949219 -561.439453125 1279.47949219 c 128,-1,20
 -582.319335938 1279.47949219 -582.319335938 1279.47949219 -589.279296875 1281.21972656 c 0,21,22
 -600.879882812 1284.12011719 -600.879882812 1284.12011719 -600.879882812 1302.6796875 c 2,23,-1
 -598.559570312 1349.08007812 l 1,24,-1
 -593.919921875 1418.6796875 l 1,25,-1
 -591.599609375 1431.43945312 l 1,26,-1
 -684.399414062 1429.12011719 l 1,27,-1
 -731.959960938 1429.12011719 l 2,28,29
 -784.740234375 1429.12011719 -784.740234375 1429.12011719 -787.9296875 1435.5 c 0,30,31
 -792.114257812 1443.87011719 -792.114257812 1443.87011719 -788.799804688 1460.43945312 c 1,32,-1
 -784.159179688 1518.43945312 l 1,33,-1
 -778.359375 1588.04003906 l 2,34,35
 -778.359375 1591.51953125 -778.359375 1591.51953125 -828.819335938 1591.51953125 c 128,-1,36
 -879.279296875 1591.51953125 -879.279296875 1591.51953125 -905.959960938 1588.62011719 c 128,-1,37
 -932.639648438 1585.71972656 -932.639648438 1585.71972656 -950.040039062 1585.71972656 c 0,38,39
 -986 1585.71972656 -986 1585.71972656 -986 1606.59960938 c 0,40,41
 -986 1633.28027344 -986 1633.28027344 -970.919921875 1643.71972656 c 0,42,43
 -965.25 1649.38964844 -965.25 1649.38964844 -947.719726562 1647.20019531 c 1,44,-1
 -876.959960938 1646.04003906 l 2,45,46
 -818.959960938 1646.04003906 -818.959960938 1646.04003906 -742.399414062 1648.359375 c 2,47,-1
 -677.439453125 1650.6796875 l 1,48,49
 -670.479492188 1639.07910156 -670.479492188 1639.07910156 -670.479492188 1630.95898438 c 128,-1,50
 -670.479492188 1622.83984375 -670.479492188 1622.83984375 -680.33984375 1600.21972656 c 128,-1,51
 -690.19921875 1577.59960938 -690.19921875 1577.59960938 -693.6796875 1520.75976562 c 2,52,-1
 -696 1488.28027344 l 1,53,-1
 -494.159179688 1488.28027344 l 1,54,55
 -487.19921875 1481.31933594 -487.19921875 1481.31933594 -487.19921875 1470.87890625 c 128,-1,56
 -487.19921875 1460.43945312 -487.19921875 1460.43945312 -496.479492188 1440.71972656 c 128,-1,57
 -505.759765625 1421 -505.759765625 1421 -509.239257812 1365.31933594 c 1,58,-1
 -510.399414062 1337.47949219 l 1,59,-1
 -306.239257812 1339.79980469 l 1,0,1
-502.279296875 559.120117188 m 1,60,61
 -499.573242188 556.412109375 -499.573242188 556.412109375 -490.486328125 560.0859375 c 128,-1,62
 -481.399414062 563.759765625 -481.399414062 563.759765625 -470.959960938 563.759765625 c 2,63,-1
 -457.040039062 564.919921875 l 1,64,-1
 -411.799804688 698.319335938 l 2,65,66
 -388.599609375 767.919921875 -388.599609375 767.919921875 -365.399414062 830.559570312 c 0,67,68
 -364.239257812 830.559570312 -364.239257812 830.559570312 -338.719726562 781.83984375 c 128,-1,69
 -313.19921875 733.120117188 -313.19921875 733.120117188 -287.099609375 664.100585938 c 128,-1,70
 -261 595.080078125 -261 595.080078125 -256.359375 584.639648438 c 0,71,72
 -254.040039062 581.16015625 -254.040039062 581.16015625 -246.5 581.16015625 c 128,-1,73
 -238.959960938 581.16015625 -238.959960938 581.16015625 -228.520507812 587.540039062 c 128,-1,74
 -218.080078125 593.919921875 -218.080078125 593.919921875 -214.599609375 600.299804688 c 128,-1,75
 -211.119140625 606.6796875 -211.119140625 606.6796875 -211.119140625 621.1796875 c 0,76,77
 -211.119140625 668.795898438 -211.119140625 668.795898438 -260.419921875 785.319335938 c 0,78,79
 -279.559570312 830.559570312 -279.559570312 830.559570312 -287.6796875 846.799804688 c 0,80,81
 -296.959960938 860.719726562 -296.959960938 860.719726562 -306.8203125 883.33984375 c 128,-1,82
 -316.6796875 905.959960938 -316.6796875 905.959960938 -318.419921875 912.33984375 c 128,-1,83
 -320.159179688 918.719726562 -320.159179688 918.719726562 -320.159179688 932.059570312 c 0,84,85
 -320.159179688 950.040039062 -320.159179688 950.040039062 -307.399414062 980.200195312 c 128,-1,86
 -294.639648438 1010.359375 -294.639648438 1010.359375 -286.51953125 1023.12011719 c 128,-1,87
 -278.399414062 1035.87988281 -278.399414062 1035.87988281 -264.479492188 1054.43945312 c 2,88,-1
 -238.959960938 1088.08007812 l 1,89,-1
 -242.439453125 1096.20019531 l 1,90,-1
 -244.759765625 1104.31933594 l 1,91,-1
 -261 1105.47949219 l 1,92,93
 -278.399414062 1105.47949219 -278.399414062 1105.47949219 -280.719726562 1104.31933594 c 0,94,95
 -293.479492188 1097.359375 -293.479492188 1097.359375 -321.319335938 1041.6796875 c 1,96,-1
 -344.51953125 992.959960938 l 1,97,98
 -351.579101562 971.78515625 -351.579101562 971.78515625 -367.719726562 986.580078125 c 0,99,100
 -374.6796875 992.959960938 -374.6796875 992.959960938 -403.6796875 1026.59960938 c 1,101,-1
 -441.959960938 1074.16015625 l 1,102,103
 -489.056640625 1067.43164062 -489.056640625 1067.43164062 -502.279296875 1038.78027344 c 0,104,105
 -505.759765625 1031.24023438 -505.759765625 1031.24023438 -505.759765625 1019.06054688 c 128,-1,106
 -505.759765625 1006.87988281 -505.759765625 1006.87988281 -503.439453125 1002.81933594 c 128,-1,107
 -501.119140625 998.759765625 -501.119140625 998.759765625 -488.939453125 996.440429688 c 128,-1,108
 -476.759765625 994.120117188 -476.759765625 994.120117188 -454.719726562 972.080078125 c 0,109,110
 -445.439453125 961.639648438 -445.439453125 961.639648438 -426.879882812 934.379882812 c 128,-1,111
 -408.319335938 907.120117188 -408.319335938 907.120117188 -399.040039062 889.719726562 c 2,112,-1
 -390.919921875 874.639648438 l 1,113,-1
 -446.599609375 722.6796875 l 1,114,115
 -503.439453125 573.040039062 -503.439453125 573.040039062 -503.439453125 566.080078125 c 1,116,-1
 -502.279296875 559.120117188 l 1,60,61
EndSplineSet
EndChar

StartChar: a
Encoding: 97 97 25
Width: 829
VWidth: 1392
GlyphClass: 1
Flags: W
LayerCount: 2
Back
SplineSet
472 -290 m 0,1,2
 486 -290 486 -290 502 -281 c 128,-1,3
 518 -272 518 -272 528 -257 c 0,4,5
 535 -247 535 -247 535 -231 c 0,6,7
 535 -223 535 -223 532 -217 c 0,8,9
 529 -209 529 -209 516.5 -199.5 c 128,-1,10
 504 -190 504 -190 492 -186 c 0,11,12
 483 -182 483 -182 473 -182 c 0,13,14
 443 -182 443 -182 416 -187 c 128,-1,15
 389 -192 389 -192 346 -204 c 2,16,-1
 318 -212 l 2,17,18
 275 -223 275 -223 260 -228 c 0,19,20
 229 -235 229 -235 218 -236.5 c 128,-1,21
 207 -238 207 -238 190 -238 c 0,22,23
 176 -238 176 -238 170.5 -237 c 128,-1,24
 165 -236 165 -236 165 -232 c 0,25,26
 165 -227 165 -227 179 -208 c 0,27,28
 196 -183 196 -183 196 -175 c 0,29,30
 196 -173 196 -173 194 -167 c 0,31,32
 191 -161 191 -161 181 -157 c 0,33,34
 175 -154 175 -154 171 -154 c 0,35,36
 165 -154 165 -154 160 -155 c 0,37,38
 128 -160 128 -160 111 -177 c 0,39,40
 102 -186 102 -186 97 -193.5 c 128,-1,41
 92 -201 92 -201 87 -214 c 0,42,43
 85 -224 85 -224 85 -225 c 2,44,-1
 87 -238 l 2,45,46
 88 -248 88 -248 93 -255 c 128,-1,47
 98 -262 98 -262 109 -271 c 0,48,49
 123 -282 123 -282 138.5 -285 c 128,-1,50
 154 -288 154 -288 185 -287 c 0,51,52
 215 -285 215 -285 229.5 -282 c 128,-1,53
 244 -279 244 -279 310 -260 c 0,54,55
 462 -216 462 -216 462 -226 c 0,56,57
 461 -229 461 -229 456 -236 c 128,-1,58
 451 -243 451 -243 443 -252 c 0,59,60
 433 -263 433 -263 433 -269 c 0,61,62
 433 -274 433 -274 443 -280 c 256,63,64
 453 -286 453 -286 462 -289 c 0,65,0
 465 -290 465 -290 472 -290 c 0,1,2
EndSplineSet
Fore
SplineSet
348 -32.48046875 m 0,0,1
 296.624919892 -44.080078125 296.624919892 -44.080078125 267.21236229 -44.080078125 c 128,-1,2
 237.799804688 -44.080078125 237.799804688 -44.080078125 237.799804688 -37.7001953125 c 128,-1,3
 237.799804688 -31.3203125 237.799804688 -31.3203125 255.779785156 -5.80029296875 c 128,-1,4
 273.759765625 19.7197265625 273.759765625 19.7197265625 273.759765625 25.5200195312 c 0,5,6
 273.759765625 42.9204101562 273.759765625 42.9204101562 256.360351562 49.8798828125 c 0,7,8
 249.400390625 53.3603515625 249.400390625 53.3603515625 243.600097656 53.3603515625 c 128,-1,9
 237.799804688 53.3603515625 237.799804688 53.3603515625 232 52.2001953125 c 0,10,11
 194.879882812 46.400390625 194.879882812 46.400390625 179.799804688 31.3203125 c 0,12,13
 145 -3.4794921875 145 -3.4794921875 145 -29 c 1,14,-1
 147.3203125 -44.080078125 l 1,15,16
 149.215655758 -63.0303198907 149.215655758 -63.0303198907 169.147866941 -79.0752185391 c 128,-1,17
 189.080078125 -95.1201171875 189.080078125 -95.1201171875 207.059570312 -98.599609375 c 128,-1,18
 225.040039062 -102.080078125 225.040039062 -102.080078125 260.419921875 -100.33984375 c 128,-1,19
 295.799804688 -98.599609375 295.799804688 -98.599609375 312.620117188 -95.1201171875 c 128,-1,20
 329.440429688 -91.6396484375 329.440429688 -91.6396484375 455.880371094 -55.099609375 c 128,-1,21
 582.3203125 -18.5595703125 582.3203125 -18.5595703125 582.3203125 -30.16015625 c 0,22,23
 579.458980313 -38.7417442821 579.458980313 -38.7417442821 564.069333907 -55.9109112036 c 128,-1,24
 548.6796875 -73.080078125 548.6796875 -73.080078125 548.6796875 -79.4599609375 c 0,25,26
 548.6796875 -92.0256438316 548.6796875 -92.0256438316 582.3203125 -103.240234375 c 0,27,28
 585.799804688 -104.400390625 585.799804688 -104.400390625 597.979980469 -104.400390625 c 128,-1,29
 610.16015625 -104.400390625 610.16015625 -104.400390625 628.719726562 -93.9599609375 c 0,30,31
 667 -72.4270553645 667 -72.4270553645 667 -35.9599609375 c 0,32,33
 667 -15.7302437486 667 -15.7302437486 649.020019531 -2.06531718682 c 0,34,35
 618.82927932 20.8798828125 618.82927932 20.8798828125 589.554776379 20.8798828125 c 0,36,37
 539.205050994 20.8798828125 539.205050994 20.8798828125 447.759765625 -4.6396484375 c 2,38,-1
 415.280273438 -13.919921875 l 1,39,40
 365.400390625 -26.6796875 365.400390625 -26.6796875 348 -32.48046875 c 0,0,1
EndSplineSet
EndChar

StartChar: b
Encoding: 98 98 26
Width: 976
VWidth: 1392
GlyphClass: 1
Flags: W
LayerCount: 2
Back
SplineSet
330 235 m 0,1,2
 338 235 338 235 345 240 c 0,3,4
 360 251 360 251 365.5 264.5 c 128,-1,5
 371 278 371 278 372 311 c 0,6,7
 375 360 375 360 386 387 c 0,8,9
 392 399 392 399 392 408 c 0,10,11
 392 415 392 415 389 418 c 2,12,-1
 386 423 l 1,13,-1
 330 421 l 2,14,15
 264 419 264 419 214 419 c 2,16,-1
 153 420 l 1,17,-1
 143 421 l 2,18,19
 137 421 137 421 133 417 c 0,20,21
 123 411 123 411 120 391 c 2,22,-1
 120 385 l 2,23,24
 120 379 120 379 124 375 c 0,25,26
 132 367 132 367 151 367 c 0,27,28
 166 367 166 367 194 370 c 0,29,30
 212 372 212 372 255 372 c 0,31,32
 279 372 279 372 289 371.5 c 128,-1,33
 299 371 299 371 299 369 c 2,34,-1
 294 309 l 1,35,-1
 290 253 l 1,36,-1
 295 248 l 2,37,38
 301 242 301 242 312 239 c 0,39,0
 323 235 323 235 330 235 c 0,1,2
507 248 m 2,41,-1
 512 253 l 1,42,-1
 508 309 l 1,43,-1
 503 369 l 2,44,45
 503 371 503 371 513 371.5 c 128,-1,46
 523 372 523 372 547 372 c 0,47,48
 590 372 590 372 608 370 c 0,49,50
 637 367 637 367 651 367 c 0,51,52
 670 367 670 367 678 375 c 0,53,54
 682 379 682 379 682 385 c 0,55,56
 682 408 682 408 669 417 c 0,57,58
 666 420 666 420 661.5 420.5 c 128,-1,59
 657 421 657 421 649 420 c 2,60,-1
 588 419 l 2,61,62
 538 419 538 419 472 421 c 2,63,-1
 416 423 l 1,64,-1
 413 418 l 2,65,66
 410 414 410 414 410 408 c 0,67,68
 410 399 410 399 416 387 c 0,69,70
 427 360 427 360 430 311 c 0,71,72
 431 278 431 278 436.5 264.5 c 128,-1,73
 442 251 442 251 457 240 c 0,74,75
 464 235 464 235 472 235 c 0,76,77
 479 235 479 235 490 239 c 0,78,40
 501 242 501 242 507 248 c 2,41,-1
305.5 -249 m 128,-1,80
 308 -248 308 -248 310 -247 c 0,81,82
 319 -244 319 -244 328 -244 c 2,83,-1
 340 -243 l 1,84,-1
 379 -128 l 2,85,86
 399 -68 399 -68 419 -14 c 0,87,88
 420 -14 420 -14 442 -55 c 0,89,90
 464 -98 464 -98 487 -159 c 0,91,92
 509 -217 509 -217 513 -226 c 0,93,94
 515 -229 515 -229 520 -229 c 0,95,96
 528 -229 528 -229 537 -223 c 0,97,98
 546 -218 546 -218 549 -212.5 c 128,-1,99
 552 -207 552 -207 552 -197 c 0,100,101
 552 -182 552 -182 548 -165.5 c 128,-1,102
 544 -149 544 -149 534 -118 c 0,103,104
 526 -92 526 -92 509.5 -53 c 128,-1,105
 493 -14 493 -14 486 0 c 0,106,107
 478 12 478 12 468 35 c 0,108,109
 461 51 461 51 459.5 56.5 c 128,-1,110
 458 62 458 62 458 75 c 0,111,112
 458 85 458 85 461 94 c 128,-1,113
 464 103 464 103 473 124 c 0,114,115
 480 141 480 141 487 152 c 128,-1,116
 494 163 494 163 506 179 c 2,117,-1
 528 208 l 1,118,-1
 525 215 l 1,119,-1
 523 222 l 1,120,-1
 509 223 l 2,121,122
 494 223 494 223 492 222 c 0,123,124
 481 216 481 216 457 168 c 2,125,-1
 437 126 l 2,126,127
 435 120 435 120 433 117.5 c 128,-1,128
 431 115 431 115 428 115 c 0,129,130
 423 115 423 115 417 120.5 c 128,-1,131
 411 126 411 126 386 155 c 2,132,-1
 353 196 l 1,133,-1
 346 195 l 2,134,135
 337 194 337 194 327 190 c 128,-1,136
 317 186 317 186 311 179 c 0,137,138
 304 172 304 172 301 165.5 c 128,-1,139
 298 159 298 159 298 148 c 0,140,141
 298 138 298 138 300 134.5 c 128,-1,142
 302 131 302 131 308 130 c 0,143,144
 323 127 323 127 342 108 c 0,145,146
 350 99 350 99 366 75.5 c 128,-1,147
 382 52 382 52 390 37 c 2,148,-1
 397 24 l 1,149,-1
 349 -107 l 2,150,151
 300 -236 300 -236 300 -242 c 2,152,-1
 301 -248 l 2,153,79
 303 -250 303 -250 305.5 -249 c 128,-1,80
EndSplineSet
Fore
SplineSet
382.799804688 525.48046875 m 1,0,1
 403.677148766 504.599609375 403.677148766 504.599609375 429.200195312 504.599609375 c 0,2,3
 438.48046875 504.599609375 438.48046875 504.599609375 451.240234375 513.879882812 c 128,-1,4
 464 523.16015625 464 523.16015625 470.379882812 538.8203125 c 128,-1,5
 476.759765625 554.48046875 476.759765625 554.48046875 479.080078125 602.040039062 c 128,-1,6
 481.400390625 649.599609375 481.400390625 649.599609375 491.260253906 672.219726562 c 128,-1,7
 501.120117188 694.83984375 501.120117188 694.83984375 501.120117188 702.959147044 c 128,-1,8
 501.120117188 711.078450338 501.120117188 711.078450338 494.16015625 722.6796875 c 1,9,-1
 429.200195312 720.360351562 l 2,10,11
 352.639648438 718.040039062 352.639648438 718.040039062 294.639648438 718.040039062 c 2,12,-1
 223.879882812 719.200195312 l 1,13,-1
 212.280273438 720.360351562 l 2,14,15
 205.3203125 720.360351562 205.3203125 720.360351562 200.6796875 715.719726562 c 0,16,17
 189.080078125 708.759765625 189.080078125 708.759765625 185.599609375 685.559570312 c 1,18,-1
 185.599609375 678.599609375 l 2,19,20
 185.599609375 657.719726562 185.599609375 657.719726562 221.559570312 657.719726562 c 0,21,22
 238.959960938 657.719726562 238.959960938 657.719726562 265.640136719 660.619628906 c 128,-1,23
 292.3203125 663.51953125 292.3203125 663.51953125 342.780273438 663.51953125 c 128,-1,24
 393.240234375 663.51953125 393.240234375 663.51953125 393.240234375 660.040039062 c 2,25,-1
 387.440429688 590.440429688 l 1,26,-1
 382.799804688 525.48046875 l 1,0,1
593.919921875 504.599609375 m 0,27,28
 619.439453125 504.599609375 619.439453125 504.599609375 640.3203125 525.48046875 c 1,29,-1
 635.6796875 590.440429688 l 1,30,-1
 629.879882812 660.040039062 l 2,31,32
 629.879882812 663.51953125 629.879882812 663.51953125 680.33984375 663.51953125 c 128,-1,33
 730.799804688 663.51953125 730.799804688 663.51953125 758.060058594 660.619628906 c 128,-1,34
 785.3203125 657.719726562 785.3203125 657.719726562 801.559570312 657.719726562 c 0,35,36
 837.51953125 657.719726562 837.51953125 657.719726562 837.51953125 678.599609375 c 0,37,38
 837.51953125 705.280273438 837.51953125 705.280273438 822.440429688 715.719726562 c 0,39,40
 816.768470277 721.391685973 816.768470277 721.391685973 799.240234375 719.200195312 c 1,41,-1
 728.48046875 718.040039062 l 2,42,43
 670.48046875 718.040039062 670.48046875 718.040039062 593.919921875 720.360351562 c 2,44,-1
 528.959960938 722.6796875 l 1,45,46
 522 711.078450338 522 711.078450338 522 702.959147044 c 128,-1,47
 522 694.83984375 522 694.83984375 531.859863281 672.219726562 c 128,-1,48
 541.719726562 649.599609375 541.719726562 649.599609375 544.040039062 602.040039062 c 128,-1,49
 546.360351562 554.48046875 546.360351562 554.48046875 552.740234375 538.8203125 c 128,-1,50
 559.120117188 523.16015625 559.120117188 523.16015625 571.879882812 513.879882812 c 128,-1,51
 584.639648438 504.599609375 584.639648438 504.599609375 593.919921875 504.599609375 c 0,27,28
395.559570312 -55.6796875 m 1,52,53
 398.266276042 -58.3863932292 398.266276042 -58.3863932292 407.353352865 -54.7132161458 c 128,-1,54
 416.440429688 -51.0400390625 416.440429688 -51.0400390625 426.879882812 -51.0400390625 c 2,55,-1
 440.799804688 -49.8798828125 l 1,56,-1
 486.040039062 83.51953125 l 2,57,58
 509.240234375 153.120117188 509.240234375 153.120117188 532.440429688 215.759765625 c 0,59,60
 533.599609375 215.759765625 533.599609375 215.759765625 559.119628906 167.040039062 c 128,-1,61
 584.639648438 118.3203125 584.639648438 118.3203125 610.739746094 49.3002929688 c 128,-1,62
 636.83984375 -19.7197265625 636.83984375 -19.7197265625 641.48046875 -30.16015625 c 0,63,64
 643.799804688 -33.6396484375 643.799804688 -33.6396484375 651.33984375 -33.6396484375 c 128,-1,65
 658.879882812 -33.6396484375 658.879882812 -33.6396484375 669.319824219 -27.259765625 c 128,-1,66
 679.759765625 -20.8798828125 679.759765625 -20.8798828125 683.240234375 -14.5 c 128,-1,67
 686.719726562 -8.1201171875 686.719726562 -8.1201171875 686.719726562 6.3798828125 c 0,68,69
 686.719726562 53.9924914955 686.719726562 53.9924914955 637.419921875 170.51953125 c 0,70,71
 618.280273438 215.759765625 618.280273438 215.759765625 610.16015625 232 c 0,72,73
 600.879882812 245.919921875 600.879882812 245.919921875 591.020019531 268.540039062 c 128,-1,74
 581.16015625 291.16015625 581.16015625 291.16015625 579.419921875 297.540039062 c 128,-1,75
 577.6796875 303.919921875 577.6796875 303.919921875 577.6796875 317.259765625 c 0,76,77
 577.6796875 335.241644915 577.6796875 335.241644915 590.439941406 365.400607614 c 128,-1,78
 603.200195312 395.559570312 603.200195312 395.559570312 611.3203125 408.3203125 c 128,-1,79
 619.440429688 421.080078125 619.440429688 421.080078125 633.360351562 439.639648438 c 2,80,-1
 658.879882812 473.280273438 l 1,81,-1
 655.400390625 481.400390625 l 1,82,-1
 653.080078125 489.51953125 l 1,83,-1
 636.83984375 490.6796875 l 1,84,85
 619.440429688 490.6796875 619.440429688 490.6796875 617.120117188 489.51953125 c 0,86,87
 604.360351562 482.559570312 604.360351562 482.559570312 576.51953125 426.879882812 c 1,88,-1
 553.3203125 378.16015625 l 1,89,90
 546.260862899 356.984778596 546.260862899 356.984778596 530.120117188 371.780273438 c 0,91,92
 523.16015625 378.16015625 523.16015625 378.16015625 494.16015625 411.799804688 c 1,93,-1
 455.879882812 459.360351562 l 1,94,95
 408.786758233 452.631953246 408.786758233 452.631953246 395.559570312 423.98046875 c 0,96,97
 392.080078125 416.440429688 392.080078125 416.440429688 392.080078125 404.260253906 c 128,-1,98
 392.080078125 392.080078125 392.080078125 392.080078125 394.400390625 388.01953125 c 128,-1,99
 396.719726562 383.959960938 396.719726562 383.959960938 408.899902344 381.640136719 c 128,-1,100
 421.080078125 379.3203125 421.080078125 379.3203125 443.120117188 357.280273438 c 0,101,102
 452.400390625 346.83984375 452.400390625 346.83984375 470.959960938 319.580078125 c 128,-1,103
 489.51953125 292.3203125 489.51953125 292.3203125 498.799804688 274.919921875 c 2,104,-1
 506.919921875 259.83984375 l 1,105,-1
 451.240234375 107.879882812 l 1,106,107
 394.400390625 -41.759765625 394.400390625 -41.759765625 394.400390625 -48.7197265625 c 1,108,-1
 395.559570312 -55.6796875 l 1,52,53
EndSplineSet
EndChar

StartChar: c
Encoding: 99 99 27
Width: 734
VWidth: 1392
GlyphClass: 1
Flags: W
LayerCount: 2
Back
SplineSet
393 407 m 0,1,2
 393 398 393 398 387 387 c 0,3,4
 376 360 376 360 373 311 c 0,5,6
 372 278 372 278 366.5 264.5 c 128,-1,7
 361 251 361 251 346 240 c 0,8,9
 339 235 339 235 331 235 c 0,10,11
 324 235 324 235 313 239 c 0,12,13
 302 242 302 242 296 248 c 2,14,-1
 291 253 l 1,15,-1
 295 309 l 1,16,-1
 300 369 l 2,17,18
 300 371 300 371 290 371.5 c 128,-1,19
 280 372 280 372 256 372 c 0,20,21
 213 372 213 372 195 370 c 0,22,23
 167 367 167 367 152 367 c 0,24,25
 133 367 133 367 125 375 c 0,26,27
 121 379 121 379 121 385 c 0,28,29
 120 387 120 387 120 391 c 0,30,31
 120 401 120 401 126 411 c 0,32,33
 137 438 137 438 140 487 c 0,34,35
 141 520 141 520 146.5 533.5 c 128,-1,36
 152 547 152 547 167 558 c 0,37,38
 174 563 174 563 182 563 c 0,39,40
 189 563 189 563 200 559 c 0,41,42
 211 556 211 556 217 550 c 2,43,-1
 222 545 l 1,44,-1
 218 489 l 1,45,-1
 213 429 l 2,46,47
 213 427 213 427 223 426.5 c 128,-1,48
 233 426 233 426 257 426 c 0,49,50
 300 426 300 426 318 428 c 0,51,52
 346 431 346 431 361 431 c 0,53,54
 380 431 380 431 388 423 c 0,55,56
 392 419 392 419 392 413 c 0,57,0
 393 411 393 411 393 407 c 0,1,2
226.5 -249 m 128,-1,59
 229 -248 229 -248 231 -247 c 0,60,61
 240 -244 240 -244 249 -244 c 2,62,-1
 261 -243 l 1,63,-1
 300 -128 l 2,64,65
 320 -68 320 -68 340 -14 c 0,66,67
 341 -14 341 -14 363 -55 c 0,68,69
 385 -98 385 -98 408 -159 c 0,70,71
 430 -217 430 -217 434 -226 c 0,72,73
 436 -229 436 -229 441 -229 c 0,74,75
 449 -229 449 -229 458 -223 c 0,76,77
 467 -218 467 -218 470 -212.5 c 128,-1,78
 473 -207 473 -207 473 -197 c 0,79,80
 473 -182 473 -182 469 -165.5 c 128,-1,81
 465 -149 465 -149 455 -118 c 0,82,83
 447 -92 447 -92 430.5 -53 c 128,-1,84
 414 -14 414 -14 407 0 c 0,85,86
 399 12 399 12 389 35 c 0,87,88
 382 51 382 51 380.5 56.5 c 128,-1,89
 379 62 379 62 379 75 c 0,90,91
 379 85 379 85 382 94 c 128,-1,92
 385 103 385 103 394 124 c 0,93,94
 401 141 401 141 408 152 c 128,-1,95
 415 163 415 163 427 179 c 2,96,-1
 449 208 l 1,97,-1
 446 215 l 1,98,-1
 444 222 l 1,99,-1
 430 223 l 2,100,101
 415 223 415 223 413 222 c 0,102,103
 402 216 402 216 378 168 c 2,104,-1
 358 126 l 2,105,106
 356 120 356 120 354 117.5 c 128,-1,107
 352 115 352 115 349 115 c 0,108,109
 344 115 344 115 338 120.5 c 128,-1,110
 332 126 332 126 307 155 c 2,111,-1
 274 196 l 1,112,-1
 267 195 l 2,113,114
 258 194 258 194 248 190 c 128,-1,115
 238 186 238 186 232 179 c 0,116,117
 225 172 225 172 222 165.5 c 128,-1,118
 219 159 219 159 219 148 c 0,119,120
 219 138 219 138 221 134.5 c 128,-1,121
 223 131 223 131 229 130 c 0,122,123
 244 127 244 127 263 108 c 0,124,125
 271 99 271 99 287 75.5 c 128,-1,126
 303 52 303 52 311 37 c 2,127,-1
 318 24 l 1,128,-1
 270 -107 l 2,129,130
 221 -236 221 -236 221 -242 c 2,131,-1
 222 -248 l 2,132,58
 224 -250 224 -250 226.5 -249 c 128,-1,59
EndSplineSet
Fore
SplineSet
465.16015625 731.959960938 m 0,0,1
 501.120117188 731.959960938 501.120117188 731.959960938 501.120117188 711.080078125 c 0,2,3
 502.280273438 708.759765625 502.280273438 708.759765625 502.280273438 701.219726562 c 128,-1,4
 502.280273438 693.6796875 502.280273438 693.6796875 495.3203125 680.919921875 c 0,5,6
 482.559570312 649.599609375 482.559570312 649.599609375 480.239746094 602.040039062 c 128,-1,7
 477.919921875 554.48046875 477.919921875 554.48046875 471.540039062 538.8203125 c 128,-1,8
 465.16015625 523.16015625 465.16015625 523.16015625 452.399902344 513.879882812 c 128,-1,9
 439.639648438 504.599609375 439.639648438 504.599609375 430.360351562 504.599609375 c 0,10,11
 404.837305016 504.599609375 404.837305016 504.599609375 383.959960938 525.48046875 c 1,12,-1
 388.599609375 590.440429688 l 1,13,-1
 394.400390625 660.040039062 l 2,14,15
 394.400390625 663.51953125 394.400390625 663.51953125 343.940429688 663.51953125 c 128,-1,16
 293.48046875 663.51953125 293.48046875 663.51953125 266.800292969 660.619628906 c 128,-1,17
 240.120117188 657.719726562 240.120117188 657.719726562 222.719726562 657.719726562 c 0,18,19
 186.759765625 657.719726562 186.759765625 657.719726562 186.759765625 678.599609375 c 0,20,21
 185.599609375 680.919921875 185.599609375 680.919921875 185.599609375 689.040039062 c 128,-1,22
 185.599609375 697.16015625 185.599609375 697.16015625 192.559570312 708.759765625 c 0,23,24
 205.3203125 740.080078125 205.3203125 740.080078125 207.640136719 787.640136719 c 128,-1,25
 209.959960938 835.200195312 209.959960938 835.200195312 216.33984375 850.860351562 c 128,-1,26
 222.719726562 866.51953125 222.719726562 866.51953125 235.479980469 875.799804688 c 128,-1,27
 248.240234375 885.080078125 248.240234375 885.080078125 257.51953125 885.080078125 c 0,28,29
 283.040039062 885.080078125 283.040039062 885.080078125 303.919921875 864.200195312 c 1,30,-1
 299.280273438 799.240234375 l 1,31,-1
 293.48046875 729.639648438 l 2,32,33
 293.48046875 726.16015625 293.48046875 726.16015625 343.940429688 726.16015625 c 128,-1,34
 394.400390625 726.16015625 394.400390625 726.16015625 421.080078125 729.060058594 c 128,-1,35
 447.759765625 731.959960938 447.759765625 731.959960938 465.16015625 731.959960938 c 0,0,1
303.919921875 -55.6796875 m 1,36,37
 306.626627604 -58.3863932292 306.626627604 -58.3863932292 315.713216146 -54.7132161458 c 128,-1,38
 324.799804688 -51.0400390625 324.799804688 -51.0400390625 335.240234375 -51.0400390625 c 2,39,-1
 349.16015625 -49.8798828125 l 1,40,-1
 394.400390625 83.51953125 l 2,41,42
 417.599609375 153.120117188 417.599609375 153.120117188 440.799804688 215.759765625 c 0,43,44
 441.959960938 215.759765625 441.959960938 215.759765625 467.479980469 167.040039062 c 128,-1,45
 493 118.3203125 493 118.3203125 519.100097656 49.3002929688 c 128,-1,46
 545.200195312 -19.7197265625 545.200195312 -19.7197265625 549.83984375 -30.16015625 c 0,47,48
 552.16015625 -33.6396484375 552.16015625 -33.6396484375 559.700195312 -33.6396484375 c 128,-1,49
 567.240234375 -33.6396484375 567.240234375 -33.6396484375 577.680175781 -27.259765625 c 128,-1,50
 588.120117188 -20.8798828125 588.120117188 -20.8798828125 591.599609375 -14.5 c 128,-1,51
 595.080078125 -8.1201171875 595.080078125 -8.1201171875 595.080078125 6.3798828125 c 0,52,53
 595.080078125 53.9924914955 595.080078125 53.9924914955 545.780273438 170.51953125 c 0,54,55
 526.639648438 215.759765625 526.639648438 215.759765625 518.51953125 232 c 0,56,57
 509.240234375 245.919921875 509.240234375 245.919921875 499.379882812 268.540039062 c 128,-1,58
 489.51953125 291.16015625 489.51953125 291.16015625 487.780273438 297.540039062 c 128,-1,59
 486.040039062 303.919921875 486.040039062 303.919921875 486.040039062 317.259765625 c 0,60,61
 486.040039062 335.241644915 486.040039062 335.241644915 498.799804688 365.400607614 c 128,-1,62
 511.559570312 395.559570312 511.559570312 395.559570312 519.6796875 408.3203125 c 128,-1,63
 527.799804688 421.080078125 527.799804688 421.080078125 541.719726562 439.639648438 c 2,64,-1
 567.240234375 473.280273438 l 1,65,-1
 563.759765625 481.400390625 l 1,66,-1
 561.440429688 489.51953125 l 1,67,-1
 545.200195312 490.6796875 l 1,68,69
 527.799804688 490.6796875 527.799804688 490.6796875 525.48046875 489.51953125 c 0,70,71
 512.719726562 482.559570312 512.719726562 482.559570312 484.879882812 426.879882812 c 1,72,-1
 461.6796875 378.16015625 l 1,73,74
 457.427625853 365.400390625 457.427625853 365.400390625 451.43402777 365.400390625 c 128,-1,75
 445.440429688 365.400390625 445.440429688 365.400390625 438.48046875 371.780273438 c 128,-1,76
 431.51953125 378.16015625 431.51953125 378.16015625 402.51953125 411.799804688 c 1,77,-1
 364.240234375 459.360351562 l 1,78,79
 317.147109795 452.631953246 317.147109795 452.631953246 303.919921875 423.98046875 c 0,80,81
 300.440429688 416.440429688 300.440429688 416.440429688 300.440429688 404.260253906 c 128,-1,82
 300.440429688 392.080078125 300.440429688 392.080078125 302.759765625 388.01953125 c 128,-1,83
 305.080078125 383.959960938 305.080078125 383.959960938 317.260253906 381.640136719 c 128,-1,84
 329.440429688 379.3203125 329.440429688 379.3203125 351.48046875 357.280273438 c 0,85,86
 360.759765625 346.83984375 360.759765625 346.83984375 379.3203125 319.580078125 c 128,-1,87
 397.879882812 292.3203125 397.879882812 292.3203125 407.16015625 274.919921875 c 2,88,-1
 415.280273438 259.83984375 l 1,89,-1
 359.599609375 107.879882812 l 1,90,91
 302.759765625 -41.759765625 302.759765625 -41.759765625 302.759765625 -48.7197265625 c 1,92,-1
 303.919921875 -55.6796875 l 1,36,37
EndSplineSet
EndChar

StartChar: d
Encoding: 100 100 28
Width: 829
VWidth: 1392
GlyphClass: 1
Flags: W
LayerCount: 2
Back
SplineSet
268 -244 m 0,1,2
 284 -244 284 -244 299.5 -241 c 128,-1,3
 315 -238 315 -238 320 -234 c 0,4,5
 328 -226 328 -226 328 -214 c 0,6,7
 328 -207 328 -207 324 -199.5 c 128,-1,8
 320 -192 320 -192 313 -188 c 0,9,10
 300 -180 300 -180 264.5 -171 c 128,-1,11
 229 -162 229 -162 208 -162 c 0,12,13
 200 -162 200 -162 195 -164 c 128,-1,14
 190 -166 190 -166 190 -168 c 0,15,16
 190 -172 190 -172 198 -176.5 c 128,-1,17
 206 -181 206 -181 220 -183 c 0,18,19
 251 -188 251 -188 263.5 -194 c 128,-1,20
 276 -200 276 -200 276 -210 c 0,21,22
 276 -216 276 -216 270.5 -220 c 128,-1,23
 265 -224 265 -224 256 -226 c 0,24,25
 239 -229 239 -229 239 -235 c 0,26,27
 239 -239 239 -239 249 -242 c 0,28,0
 259 -244 259 -244 268 -244 c 0,1,2
410 -244 m 0,30,31
 426 -244 426 -244 441 -241 c 128,-1,32
 456 -238 456 -238 461 -234 c 0,33,34
 470 -225 470 -225 470 -214 c 0,35,36
 470 -197 470 -197 455 -188 c 0,37,38
 441 -180 441 -180 406 -171 c 128,-1,39
 371 -162 371 -162 350 -162 c 0,40,41
 332 -162 332 -162 332 -168 c 0,42,43
 332 -172 332 -172 340 -176.5 c 128,-1,44
 348 -181 348 -181 362 -183 c 0,45,46
 393 -188 393 -188 405 -194 c 128,-1,47
 417 -200 417 -200 417 -210 c 0,48,49
 417 -216 417 -216 411.5 -220 c 128,-1,50
 406 -224 406 -224 398 -226 c 0,51,52
 381 -229 381 -229 381 -235 c 0,53,54
 381 -239 381 -239 391 -242 c 0,55,29
 401 -244 401 -244 410 -244 c 0,30,31
472 -400 m 0,57,58
 486 -400 486 -400 502 -391 c 128,-1,59
 518 -382 518 -382 528 -367 c 0,60,61
 535 -357 535 -357 535 -341 c 0,62,63
 535 -333 535 -333 532 -327 c 0,64,65
 529 -319 529 -319 516.5 -309.5 c 128,-1,66
 504 -300 504 -300 492 -296 c 0,67,68
 483 -292 483 -292 473 -292 c 0,69,70
 443 -292 443 -292 416 -297 c 128,-1,71
 389 -302 389 -302 346 -314 c 2,72,-1
 318 -322 l 2,73,74
 275 -333 275 -333 260 -338 c 0,75,76
 229 -345 229 -345 218 -346.5 c 128,-1,77
 207 -348 207 -348 190 -348 c 0,78,79
 176 -348 176 -348 170.5 -347 c 128,-1,80
 165 -346 165 -346 165 -342 c 0,81,82
 165 -337 165 -337 179 -318 c 0,83,84
 196 -293 196 -293 196 -285 c 0,85,86
 196 -283 196 -283 194 -277 c 0,87,88
 191 -271 191 -271 181 -267 c 0,89,90
 175 -264 175 -264 171 -264 c 0,91,92
 165 -264 165 -264 160 -265 c 0,93,94
 128 -270 128 -270 111 -287 c 0,95,96
 102 -296 102 -296 97 -303.5 c 128,-1,97
 92 -311 92 -311 87 -324 c 0,98,99
 85 -334 85 -334 85 -335 c 2,100,-1
 87 -348 l 2,101,102
 88 -358 88 -358 93 -365 c 128,-1,103
 98 -372 98 -372 109 -381 c 0,104,105
 123 -392 123 -392 138.5 -395 c 128,-1,106
 154 -398 154 -398 185 -397 c 0,107,108
 215 -395 215 -395 229.5 -392 c 128,-1,109
 244 -389 244 -389 310 -370 c 0,110,111
 462 -326 462 -326 462 -336 c 0,112,113
 461 -339 461 -339 456 -346 c 128,-1,114
 451 -353 451 -353 443 -362 c 0,115,116
 433 -373 433 -373 433 -379 c 0,117,118
 433 -384 433 -384 443 -390 c 256,119,120
 453 -396 453 -396 462 -399 c 0,121,56
 465 -400 465 -400 472 -400 c 0,57,58
EndSplineSet
Fore
SplineSet
323.639648438 -40.599609375 m 0,0,1
 323.639648438 -51.0400390625 323.639648438 -51.0400390625 349.739746094 -51.0400390625 c 0,2,3
 403.099487279 -51.0400390625 403.099487279 -51.0400390625 417.599609375 -39.4404296875 c 0,4,5
 426.879882812 -30.16015625 426.879882812 -30.16015625 426.879882812 -19.1401367188 c 0,6,7
 426.879882812 3.97710058429 426.879882812 3.97710058429 410.640136719 13.5886479484 c 128,-1,8
 394.400390625 23.2001953125 394.400390625 23.2001953125 353.219726562 33.6396484375 c 128,-1,9
 312.040039062 44.080078125 312.040039062 44.080078125 289.419921875 44.080078125 c 128,-1,10
 266.799804688 44.080078125 266.799804688 44.080078125 266.799804688 38.2802734375 c 0,11,12
 266.799804688 24.6920241112 266.799804688 24.6920241112 302.1796875 19.3059729931 c 128,-1,13
 337.559570312 13.919921875 337.559570312 13.919921875 352.059570312 6.9599609375 c 128,-1,14
 366.559570312 0 366.559570312 0 366.559570312 -9.27978515625 c 0,15,16
 366.559570312 -25.0038097813 366.559570312 -25.0038097813 345.099609375 -29.3217291094 c 128,-1,17
 323.639648438 -33.6396484375 323.639648438 -33.6396484375 323.639648438 -40.599609375 c 0,0,1
488.360351562 -40.599609375 m 0,18,19
 488.360351562 -51.0400390625 488.360351562 -51.0400390625 514.459960938 -51.0400390625 c 0,20,21
 566.660034154 -51.0400390625 566.660034154 -51.0400390625 581.16015625 -39.4404296875 c 0,22,23
 591.599609375 -29 591.599609375 -29 591.599609375 -12.759765625 c 128,-1,24
 591.599609375 3.48046875 591.599609375 3.48046875 574.779785156 13.3403320312 c 128,-1,25
 557.959960938 23.2001953125 557.959960938 23.2001953125 517.360351562 33.6396484375 c 128,-1,26
 476.759765625 44.080078125 476.759765625 44.080078125 454.139648438 44.080078125 c 128,-1,27
 431.51953125 44.080078125 431.51953125 44.080078125 431.51953125 38.2802734375 c 0,28,29
 431.51953125 24.6918646413 431.51953125 24.6918646413 466.899902344 19.3058932581 c 128,-1,30
 502.280273438 13.919921875 502.280273438 13.919921875 516.200195312 6.9599609375 c 128,-1,31
 530.120117188 0 530.120117188 0 530.120117188 -9.27978515625 c 0,32,33
 530.120117188 -24.6495666664 530.120117188 -24.6495666664 509.240234375 -29.144607552 c 128,-1,34
 488.360351562 -33.6396484375 488.360351562 -33.6396484375 488.360351562 -40.599609375 c 0,18,19
348 -160.080078125 m 0,35,36
 296.631098495 -171.6796875 296.631098495 -171.6796875 267.215451591 -171.6796875 c 128,-1,37
 237.799804688 -171.6796875 237.799804688 -171.6796875 237.799804688 -165.299804688 c 128,-1,38
 237.799804688 -158.919921875 237.799804688 -158.919921875 255.779785156 -133.399902344 c 128,-1,39
 273.759765625 -107.879882812 273.759765625 -107.879882812 273.759765625 -102.080078125 c 0,40,41
 273.759765625 -84.6806640625 273.759765625 -84.6806640625 256.360351562 -77.7197265625 c 0,42,43
 249.400390625 -74.240234375 249.400390625 -74.240234375 243.600097656 -74.240234375 c 128,-1,44
 237.799804688 -74.240234375 237.799804688 -74.240234375 232 -75.400390625 c 0,45,46
 194.879882812 -81.2001953125 194.879882812 -81.2001953125 179.799804688 -96.2802734375 c 0,47,48
 145 -131.080078125 145 -131.080078125 145 -156.599609375 c 1,49,-1
 147.3203125 -171.6796875 l 1,50,51
 149.215481984 -190.629787079 149.215481984 -190.629787079 169.147780054 -206.674756821 c 128,-1,52
 189.080078125 -222.719726562 189.080078125 -222.719726562 207.059570312 -226.200195312 c 128,-1,53
 225.040039062 -229.6796875 225.040039062 -229.6796875 260.419921875 -227.939941406 c 128,-1,54
 295.799804688 -226.200195312 295.799804688 -226.200195312 312.620117188 -222.719726562 c 128,-1,55
 329.440429688 -219.240234375 329.440429688 -219.240234375 455.880371094 -182.700195312 c 128,-1,56
 582.3203125 -146.16015625 582.3203125 -146.16015625 582.3203125 -157.759765625 c 0,57,58
 579.459188392 -166.343137949 579.459188392 -166.343137949 564.069437946 -183.511412725 c 128,-1,59
 548.6796875 -200.6796875 548.6796875 -200.6796875 548.6796875 -207.060058594 c 0,60,61
 548.6796875 -219.628399837 548.6796875 -219.628399837 582.3203125 -230.83984375 c 0,62,63
 585.799804688 -232 585.799804688 -232 597.979980469 -232 c 128,-1,64
 610.16015625 -232 610.16015625 -232 628.719726562 -221.559570312 c 0,65,66
 667 -200.028678855 667 -200.028678855 667 -163.559570312 c 0,67,68
 667 -143.329853124 667 -143.329853124 649.020019531 -129.664926562 c 0,69,70
 618.82927932 -106.719726562 618.82927932 -106.719726562 589.554776379 -106.719726562 c 0,71,72
 539.208550355 -106.719726562 539.208550355 -106.719726562 447.759765625 -132.240234375 c 2,73,-1
 415.280273438 -141.51953125 l 1,74,75
 365.400390625 -154.280273438 365.400390625 -154.280273438 348 -160.080078125 c 0,35,36
EndSplineSet
EndChar

StartChar: e
Encoding: 101 101 29
Width: 863
VWidth: 1392
GlyphClass: 1
Flags: W
LayerCount: 2
Back
SplineSet
302 -453 m 256,1,2
 308 -453 308 -453 324 -450 c 0,3,4
 338 -447 338 -447 347 -441 c 128,-1,5
 356 -435 356 -435 356 -430 c 0,6,7
 356 -423 356 -423 340 -419 c 0,8,9
 312 -412 312 -412 293.5 -395.5 c 128,-1,10
 275 -379 275 -379 275 -364 c 0,11,12
 275 -354 275 -354 284 -336 c 0,13,14
 301 -302 301 -302 306 -287.5 c 128,-1,15
 311 -273 311 -273 311 -254 c 256,16,17
 311 -235 311 -235 309 -226.5 c 128,-1,18
 307 -218 307 -218 301 -208 c 0,19,20
 288 -186 288 -186 258 -172.5 c 128,-1,21
 228 -159 228 -159 191 -159 c 0,22,23
 152 -159 152 -159 126 -186.5 c 128,-1,24
 100 -214 100 -214 100 -255 c 0,25,26
 100 -279 100 -279 110.5 -289.5 c 128,-1,27
 121 -300 121 -300 145 -300 c 0,28,29
 156 -300 156 -300 161.5 -298 c 128,-1,30
 167 -296 167 -296 170 -291 c 0,31,32
 174 -286 174 -286 174 -281 c 0,33,34
 174 -275 174 -275 169 -264 c 0,35,36
 164 -251 164 -251 164 -244 c 0,37,38
 164 -228 164 -228 183 -218 c 0,39,40
 190 -214 190 -214 204 -214 c 256,41,42
 218 -214 218 -214 233 -218 c 128,-1,43
 248 -222 248 -222 255 -228 c 0,44,45
 260 -233 260 -233 260 -238 c 0,46,47
 260 -244 260 -244 255 -256 c 128,-1,48
 250 -268 250 -268 247 -274 c 0,49,50
 229 -314 229 -314 229 -356 c 0,51,52
 229 -389 229 -389 245.5 -416 c 128,-1,53
 262 -443 262 -443 285 -450 c 0,54,0
 296 -453 296 -453 302 -453 c 256,1,2
567 -453 m 0,56,57
 573 -453 573 -453 589 -450 c 0,58,59
 603 -447 603 -447 612 -441.5 c 128,-1,60
 621 -436 621 -436 621 -431 c 0,61,62
 621 -423 621 -423 605 -419 c 0,63,64
 577 -412 577 -412 558.5 -395.5 c 128,-1,65
 540 -379 540 -379 540 -364 c 0,66,67
 540 -354 540 -354 549 -336 c 0,68,69
 566 -302 566 -302 571 -287.5 c 128,-1,70
 576 -273 576 -273 576 -254 c 256,71,72
 576 -235 576 -235 574 -226.5 c 128,-1,73
 572 -218 572 -218 566 -208 c 0,74,75
 553 -186 553 -186 523 -172.5 c 128,-1,76
 493 -159 493 -159 456 -159 c 0,77,78
 417 -159 417 -159 391 -186.5 c 128,-1,79
 365 -214 365 -214 365 -255 c 0,80,81
 365 -279 365 -279 375.5 -289.5 c 128,-1,82
 386 -300 386 -300 410 -300 c 0,83,84
 421 -300 421 -300 426.5 -298 c 128,-1,85
 432 -296 432 -296 435 -291 c 0,86,87
 439 -286 439 -286 439 -281 c 0,88,89
 439 -275 439 -275 434 -264 c 0,90,91
 429 -251 429 -251 429 -244 c 0,92,93
 429 -228 429 -228 448 -218 c 0,94,95
 455 -214 455 -214 469 -214 c 256,96,97
 483 -214 483 -214 498 -218 c 128,-1,98
 513 -222 513 -222 520 -228 c 0,99,100
 525 -233 525 -233 525 -238 c 0,101,102
 525 -244 525 -244 520 -256 c 128,-1,103
 515 -268 515 -268 512 -274 c 0,104,105
 494 -314 494 -314 494 -356 c 0,106,107
 494 -389 494 -389 510.5 -416 c 128,-1,108
 527 -443 527 -443 550 -450 c 0,109,55
 560 -453 560 -453 567 -453 c 0,56,57
EndSplineSet
Fore
SplineSet
396.719726562 -293.48046875 m 256,0,1
 403.6796875 -293.48046875 403.6796875 -293.48046875 421.080078125 -290 c 128,-1,2
 438.48046875 -286.51953125 438.48046875 -286.51953125 448.919921875 -279.559570312 c 128,-1,3
 459.360351562 -272.599609375 459.360351562 -272.599609375 459.360351562 -265.639648438 c 128,-1,4
 459.360351562 -258.6796875 459.360351562 -258.6796875 433.840332031 -252.299804688 c 128,-1,5
 408.3203125 -245.919921875 408.3203125 -245.919921875 386.860351562 -226.780273438 c 128,-1,6
 365.400390625 -207.639648438 365.400390625 -207.639648438 365.400390625 -193.139648438 c 128,-1,7
 365.400390625 -178.639648438 365.400390625 -178.639648438 380.479980469 -148.479980469 c 128,-1,8
 395.559570312 -118.3203125 395.559570312 -118.3203125 401.360351562 -101.5 c 128,-1,9
 407.16015625 -84.6796875 407.16015625 -84.6796875 407.16015625 -62.6396484375 c 256,10,11
 407.16015625 -28.6140407682 407.16015625 -28.6140407682 393.8203125 -6.18690319658 c 128,-1,12
 380.48046875 16.240234375 380.48046875 16.240234375 345.6796875 31.900390625 c 128,-1,13
 310.879882812 47.5595703125 310.879882812 47.5595703125 266.799804688 47.5595703125 c 128,-1,14
 222.719726562 47.5595703125 222.719726562 47.5595703125 192.559570312 15.66015625 c 128,-1,15
 162.400390625 -16.240234375 162.400390625 -16.240234375 162.400390625 -63.7998046875 c 0,16,17
 162.400390625 -91.6396484375 162.400390625 -91.6396484375 174.580078125 -103.8203125 c 128,-1,18
 186.759765625 -116 186.759765625 -116 207.060058594 -116 c 128,-1,19
 227.360351562 -116 227.360351562 -116 233.740234375 -113.6796875 c 0,20,21
 248.240234375 -108.408372637 248.240234375 -108.408372637 248.240234375 -97.7041863185 c 128,-1,22
 248.240234375 -87 248.240234375 -87 242.439941406 -73.080078125 c 128,-1,23
 236.639648438 -59.16015625 236.639648438 -59.16015625 236.639648438 -51.0400390625 c 0,24,25
 236.639648438 -32.48046875 236.639648438 -32.48046875 258.6796875 -20.8798828125 c 0,26,27
 266.799804688 -16.240234375 266.799804688 -16.240234375 283.040039062 -16.240234375 c 256,28,29
 323.25553358 -16.240234375 323.25553358 -16.240234375 342.200195312 -32.48046875 c 0,30,31
 348 -38.2802734375 348 -38.2802734375 348 -44.66015625 c 0,32,33
 348 -55.6839187228 348 -55.6839187228 330.020019531 -93.9620765489 c 128,-1,34
 312.040039062 -132.240234375 312.040039062 -132.240234375 312.040039062 -175.740234375 c 128,-1,35
 312.040039062 -219.240234375 312.040039062 -219.240234375 331.1796875 -250.559570312 c 0,36,37
 357.409720219 -293.48046875 357.409720219 -293.48046875 396.719726562 -293.48046875 c 256,0,1
638.580078125 -250.559570312 m 0,38,39
 664.808772577 -293.48046875 664.808772577 -293.48046875 703.540039062 -293.48046875 c 0,40,41
 711.080078125 -293.48046875 711.080078125 -293.48046875 728.479980469 -290 c 128,-1,42
 745.879882812 -286.51953125 745.879882812 -286.51953125 756.3203125 -280.139648438 c 128,-1,43
 766.759765625 -273.759765625 766.759765625 -273.759765625 766.759765625 -267.959960938 c 0,44,45
 766.759765625 -258.6796875 766.759765625 -258.6796875 741.239746094 -252.299804688 c 128,-1,46
 715.719726562 -245.919921875 715.719726562 -245.919921875 694.259765625 -226.780273438 c 128,-1,47
 672.799804688 -207.639648438 672.799804688 -207.639648438 672.799804688 -193.139648438 c 128,-1,48
 672.799804688 -178.639648438 672.799804688 -178.639648438 687.879882812 -148.479980469 c 128,-1,49
 702.959960938 -118.3203125 702.959960938 -118.3203125 708.759765625 -101.5 c 128,-1,50
 714.559570312 -84.6796875 714.559570312 -84.6796875 714.559570312 -62.6396484375 c 256,51,52
 714.559570312 -28.6124132097 714.559570312 -28.6124132097 701.219726562 -6.18608941733 c 128,-1,53
 687.879882812 16.240234375 687.879882812 16.240234375 653.080078125 31.900390625 c 128,-1,54
 618.280273438 47.5595703125 618.280273438 47.5595703125 574.200195312 47.5595703125 c 128,-1,55
 530.120117188 47.5595703125 530.120117188 47.5595703125 499.959960938 15.66015625 c 128,-1,56
 469.799804688 -16.240234375 469.799804688 -16.240234375 469.799804688 -63.7998046875 c 0,57,58
 469.799804688 -91.6396484375 469.799804688 -91.6396484375 481.98046875 -103.8203125 c 128,-1,59
 494.16015625 -116 494.16015625 -116 514.459960938 -116 c 128,-1,60
 534.759765625 -116 534.759765625 -116 541.139648438 -113.6796875 c 0,61,62
 555.639648438 -108.408372637 555.639648438 -108.408372637 555.639648438 -97.7041863185 c 128,-1,63
 555.639648438 -87 555.639648438 -87 549.83984375 -73.080078125 c 128,-1,64
 544.040039062 -59.16015625 544.040039062 -59.16015625 544.040039062 -51.0400390625 c 0,65,66
 544.040039062 -32.48046875 544.040039062 -32.48046875 566.080078125 -20.8798828125 c 0,67,68
 574.200195312 -16.240234375 574.200195312 -16.240234375 590.440429688 -16.240234375 c 256,69,70
 630.657226014 -16.240234375 630.657226014 -16.240234375 649.599609375 -32.48046875 c 0,71,72
 655.400390625 -38.2802734375 655.400390625 -38.2802734375 655.400390625 -44.66015625 c 0,73,74
 655.400390625 -55.6754550896 655.400390625 -55.6754550896 637.420410156 -93.9578447323 c 128,-1,75
 619.440429688 -132.240234375 619.440429688 -132.240234375 619.440429688 -175.740234375 c 128,-1,76
 619.440429688 -219.240234375 619.440429688 -219.240234375 638.580078125 -250.559570312 c 0,38,39
EndSplineSet
EndChar

StartChar: f
Encoding: 102 102 30
Width: 750
VWidth: 1392
GlyphClass: 1
Flags: W
LayerCount: 2
Back
SplineSet
82.5 -440.5 m 128,-1,1
 86 -444 86 -444 88 -444 c 0,2,3
 91 -444 91 -444 152 -380 c 2,4,-1
 178 -353 l 1,5,-1
 183 -356 l 2,6,7
 191 -362 191 -362 209 -365 c 0,8,9
 224 -369 224 -369 232 -369 c 256,10,11
 240 -369 240 -369 245 -368 c 0,12,13
 285 -362 285 -362 313.5 -343.5 c 128,-1,14
 342 -325 342 -325 348 -301 c 0,15,16
 349 -298 349 -298 349 -293 c 0,17,18
 349 -291 349 -291 344 -278 c 0,19,20
 335 -262 335 -262 329 -255 c 0,21,22
 325 -250 325 -250 323 -246.5 c 128,-1,23
 321 -243 321 -243 323 -241 c 0,24,25
 326 -237 326 -237 337 -231.5 c 128,-1,26
 348 -226 348 -226 350 -228 c 0,27,28
 356 -231 356 -231 373 -245 c 0,29,30
 389 -257 389 -257 396.5 -259.5 c 128,-1,31
 404 -262 404 -262 408 -256 c 0,32,33
 412 -252 412 -252 406.5 -244.5 c 128,-1,34
 401 -237 401 -237 378 -218 c 0,35,36
 373 -213 373 -213 373 -210 c 0,37,38
 373 -204 373 -204 385 -195 c 0,39,40
 412 -176 412 -176 412 -167 c 256,41,42
 412 -158 412 -158 393 -149 c 0,43,44
 387 -146 387 -146 382 -146 c 0,45,46
 371 -146 371 -146 352 -165 c 0,47,48
 335 -180 335 -180 334 -180 c 0,49,50
 332 -179 332 -179 328 -177 c 128,-1,51
 324 -175 324 -175 319 -171 c 0,52,53
 314 -169 314 -169 306.5 -164.5 c 128,-1,54
 299 -160 299 -160 295 -159 c 0,55,56
 289 -156 289 -156 286 -156 c 128,-1,57
 283 -156 283 -156 279 -159 c 0,58,59
 267 -169 267 -169 270 -174 c 0,60,61
 272 -176 272 -176 278 -180.5 c 128,-1,62
 284 -185 284 -185 293 -190 c 2,63,-1
 314 -204 l 1,64,-1
 310 -210 l 2,65,66
 308 -214 308 -214 297 -223 c 0,67,68
 291 -227 291 -227 287 -228 c 128,-1,69
 283 -229 283 -229 274 -228 c 0,70,71
 268 -227 268 -227 253 -227 c 0,72,73
 236 -227 236 -227 218.5 -229 c 128,-1,74
 201 -231 201 -231 192 -234 c 0,75,76
 166 -242 166 -242 149 -260 c 128,-1,77
 132 -278 132 -278 132 -297 c 0,78,79
 132 -313 132 -313 139 -329 c 2,80,-1
 145 -340 l 1,81,-1
 118 -361 l 2,82,83
 95 -379 95 -379 80 -394.5 c 128,-1,84
 65 -410 65 -410 65 -415 c 0,85,86
 65 -424 65 -424 78 -436 c 0,87,0
 79 -437 79 -437 82.5 -440.5 c 128,-1,1
234 -337 m 0,89,90
 223 -337 223 -337 214 -330 c 128,-1,91
 205 -323 205 -323 200 -310 c 0,92,93
 197 -301 197 -301 197 -295 c 0,94,95
 197 -279 197 -279 218 -265 c 0,96,97
 224 -260 224 -260 228.5 -258 c 128,-1,98
 233 -256 233 -256 238 -256 c 0,99,100
 258 -256 258 -256 269 -267 c 128,-1,101
 280 -278 280 -278 280 -294 c 0,102,103
 280 -318 280 -318 249 -333 c 0,104,88
 242 -337 242 -337 234 -337 c 0,89,90
EndSplineSet
Fore
SplineSet
183.280273438 -186.759765625 m 2,0,1
 121.799804688 -234.873447494 121.799804688 -234.873447494 121.799804688 -251.137695078 c 0,2,3
 121.799804688 -258.67578078 121.799804688 -258.67578078 133.979980469 -270.857909921 c 128,-1,4
 146.16015625 -283.040039062 146.16015625 -283.040039062 149.060058594 -283.040039062 c 128,-1,5
 151.959960938 -283.040039062 151.959960938 -283.040039062 222.719726562 -208.799804688 c 2,6,-1
 252.879882812 -177.48046875 l 1,7,8
 283.815972649 -196.040039062 283.815972649 -196.040039062 315.51953125 -196.040039062 c 256,9,10
 324.799804688 -196.040039062 324.799804688 -196.040039062 330.599609375 -194.879882812 c 0,11,12
 377 -187.919921875 377 -187.919921875 410.059570312 -166.459960938 c 0,13,14
 451.240234375 -139.729143522 451.240234375 -139.729143522 451.240234375 -107.879882812 c 0,15,16
 451.240234375 -105.559570312 451.240234375 -105.559570312 445.440429688 -90.48046875 c 0,17,18
 435 -71.919921875 435 -71.919921875 429.200195312 -64.9599609375 c 0,19,20
 417.600142052 -51.0395063853 417.600142052 -51.0395063853 421.079856182 -46.9797141301 c 128,-1,21
 424.559570312 -42.919921875 424.559570312 -42.919921875 437.3203125 -36.5400390625 c 128,-1,22
 450.080078125 -30.16015625 450.080078125 -30.16015625 454.720214844 -33.0600585938 c 128,-1,23
 459.360351562 -35.9599609375 459.360351562 -35.9599609375 478.5 -51.0400390625 c 128,-1,24
 497.639648438 -66.1201171875 497.639648438 -66.1201171875 506.33984375 -69.01953125 c 128,-1,25
 515.040039062 -71.919921875 515.040039062 -71.919921875 519.680175781 -66.1201171875 c 128,-1,26
 524.3203125 -60.3203125 524.3203125 -60.3203125 517.940429688 -51.6201171875 c 128,-1,27
 511.559570312 -42.919921875 511.559570312 -42.919921875 484.879882812 -20.8798828125 c 0,28,29
 479.080078125 -15.080078125 479.080078125 -15.080078125 479.080078125 -9.85986328125 c 128,-1,30
 479.080078125 -4.6396484375 479.080078125 -4.6396484375 493 5.7998046875 c 0,31,32
 524.3203125 27.83984375 524.3203125 27.83984375 524.3203125 38.2802734375 c 256,33,34
 524.3203125 48.7197265625 524.3203125 48.7197265625 502.280273438 59.16015625 c 0,35,36
 495.3203125 62.6396484375 495.3203125 62.6396484375 486.040039062 62.6396484375 c 128,-1,37
 476.759765625 62.6396484375 476.759765625 62.6396484375 454.719726562 40.599609375 c 0,38,39
 435 23.2001953125 435 23.2001953125 433.259765625 23.7802734375 c 0,40,41
 425.554508139 26.3486925996 425.554508139 26.3486925996 416.440429688 33.6396484375 c 0,42,43
 410.639648438 35.9599609375 410.639648438 35.9599609375 401.940429688 41.1796875 c 128,-1,44
 393.240234375 46.400390625 393.240234375 46.400390625 387.439941406 48.7202148438 c 128,-1,45
 381.639648438 51.0400390625 381.639648438 51.0400390625 378.16015625 51.0400390625 c 128,-1,46
 374.6796875 51.0400390625 374.6796875 51.0400390625 365.399902344 43.5 c 128,-1,47
 356.120117188 35.9599609375 356.120117188 35.9599609375 359.020019531 31.8999023438 c 0,48,49
 365.123673847 23.3543752127 365.123673847 23.3543752127 386.280273438 11.599609375 c 1,50,-1
 410.639648438 -4.6396484375 l 1,51,52
 394.632851635 -28.6515282128 394.632851635 -28.6515282128 379.3203125 -32.48046875 c 0,53,54
 374.6796875 -33.6396484375 374.6796875 -33.6396484375 365.979980469 -32.4799804688 c 128,-1,55
 357.280273438 -31.3203125 357.280273438 -31.3203125 338.720214844 -31.3203125 c 0,56,57
 293.475912006 -31.3203125 293.475912006 -31.3203125 266.217936472 -40.0200195312 c 128,-1,58
 238.959960938 -48.7197265625 238.959960938 -48.7197265625 219.240234375 -69.599609375 c 128,-1,59
 199.51953125 -90.48046875 199.51953125 -90.48046875 199.51953125 -110.780273438 c 128,-1,60
 199.51953125 -131.080078125 199.51953125 -131.080078125 207.639648438 -149.639648438 c 1,61,-1
 214.599609375 -162.400390625 l 1,62,-1
 183.280273438 -186.759765625 l 2,0,1
335.240234375 -154.280273438 m 0,63,64
 327.120117188 -158.919921875 327.120117188 -158.919921875 316.100097656 -158.919921875 c 0,65,66
 290.446196605 -158.919921875 290.446196605 -158.919921875 278.400390625 -127.599609375 c 0,67,68
 274.919921875 -117.16015625 274.919921875 -117.16015625 274.919921875 -110.200195312 c 0,69,70
 274.919921875 -91.6396484375 274.919921875 -91.6396484375 299.280273438 -75.400390625 c 0,71,72
 311.807031414 -64.9599609375 311.807031414 -64.9599609375 328.743359457 -64.9599609375 c 128,-1,73
 345.6796875 -64.9599609375 345.6796875 -64.9599609375 358.440429688 -77.7197265625 c 128,-1,74
 371.200195312 -90.48046875 371.200195312 -90.48046875 371.200195312 -109.040039062 c 0,75,76
 371.200195312 -136.879882812 371.200195312 -136.879882812 335.240234375 -154.280273438 c 0,63,64
EndSplineSet
EndChar

StartChar: g
Encoding: 103 103 31
Width: 769
VWidth: 1392
GlyphClass: 1
Flags: W
LayerCount: 2
Back
SplineSet
107 -450 m 0,1,2
 119 -450 119 -450 143 -424 c 0,3,4
 145 -422 145 -422 150 -417 c 128,-1,5
 155 -412 155 -412 159 -412 c 0,6,7
 165 -412 165 -412 186 -422 c 0,8,9
 202 -430 202 -430 212 -430 c 0,10,11
 218 -430 218 -430 225.5 -424.5 c 128,-1,12
 233 -419 233 -419 233 -414 c 0,13,14
 233 -407 233 -407 193 -393 c 0,15,16
 189 -392 189 -392 182.5 -389.5 c 128,-1,17
 176 -387 176 -387 176 -385 c 2,18,19
 176 -385 176 -385 187 -372 c 0,20,21
 197 -363 197 -363 200.5 -361.5 c 128,-1,22
 204 -360 204 -360 215 -360 c 0,23,24
 250 -360 250 -360 273 -355.5 c 128,-1,25
 296 -351 296 -351 322 -338 c 0,26,27
 366 -317 366 -317 366 -279 c 0,28,29
 366 -274 366 -274 364 -269.5 c 128,-1,30
 362 -265 362 -265 359.5 -261 c 128,-1,31
 357 -257 357 -257 355 -254 c 0,32,33
 343 -239 343 -239 345 -238 c 2,34,-1
 382 -209 l 2,35,36
 412 -187 412 -187 421.5 -177.5 c 128,-1,37
 431 -168 431 -168 430 -163 c 0,38,39
 428 -158 428 -158 416.5 -147.5 c 128,-1,40
 405 -137 405 -137 401 -137 c 0,41,42
 393 -137 393 -137 331 -195 c 0,43,44
 301 -225 301 -225 298 -223 c 0,45,46
 294 -219 294 -219 265 -219 c 0,47,48
 251 -219 251 -219 246 -220 c 0,49,50
 231 -222 231 -222 210 -229 c 128,-1,51
 189 -236 189 -236 175 -244 c 256,52,53
 161 -252 161 -252 148 -263.5 c 128,-1,54
 135 -275 135 -275 131 -284 c 0,55,56
 127 -292 127 -292 127 -301 c 0,57,58
 127 -309 127 -309 132.5 -317.5 c 128,-1,59
 138 -326 138 -326 150 -338 c 2,60,-1
 163 -353 l 1,61,-1
 152 -362 l 1,62,-1
 137 -369 l 2,63,64
 134 -369 134 -369 108 -357 c 0,65,66
 97 -351 97 -351 88.5 -347.5 c 128,-1,67
 80 -344 80 -344 76 -343 c 0,68,69
 72 -343 72 -343 67 -348 c 0,70,71
 64 -351 64 -351 64 -354 c 0,72,73
 64 -358 64 -358 67.5 -362 c 128,-1,74
 71 -366 71 -366 77 -368 c 0,75,76
 93 -373 93 -373 101 -380 c 2,77,-1
 115 -389 l 1,78,-1
 92 -408 l 2,79,80
 70 -428 70 -428 70 -432 c 0,81,82
 70 -434 70 -434 77.5 -439.5 c 128,-1,83
 85 -445 85 -445 93 -447 c 0,84,0
 100 -450 100 -450 107 -450 c 0,1,2
238 -334 m 2,86,-1
 222 -325 l 2,87,88
 201 -313 201 -313 201 -298 c 0,89,90
 201 -282 201 -282 230 -262 c 0,91,92
 243 -253 243 -253 253 -253 c 0,93,94
 262 -253 262 -253 272 -260 c 0,95,96
 291 -273 291 -273 291 -287 c 0,97,98
 291 -290 291 -290 287 -302 c 0,99,100
 280 -317 280 -317 252 -329 c 0,101,85
 242 -334 242 -334 238 -334 c 2,86,-1
EndSplineSet
Fore
SplineSet
205.3203125 -196.040039062 m 1,0,1
 205.3203125 -196.040039062 205.3203125 -196.040039062 134.559570312 -165.879882812 c 1,2,3
 129.919921875 -165.879882812 129.919921875 -165.879882812 125.279785156 -170.520019531 c 128,-1,4
 120.639648438 -175.16015625 120.639648438 -175.16015625 120.639648438 -179.220214844 c 0,5,6
 120.639648438 -189.852484801 120.639648438 -189.852484801 137.459960938 -195.266086151 c 128,-1,7
 154.280273438 -200.6796875 154.280273438 -200.6796875 163.559570312 -208.799804688 c 1,8,-1
 179.799804688 -219.240234375 l 1,9,-1
 153.120117188 -241.280273438 l 1,10,11
 127.599609375 -264.48046875 127.599609375 -264.48046875 127.599609375 -267.960449219 c 128,-1,12
 127.599609375 -271.440429688 127.599609375 -271.440429688 136.299804688 -277.8203125 c 0,13,14
 152.9091474 -290 152.9091474 -290 168.674788544 -290 c 128,-1,15
 184.440429688 -290 184.440429688 -290 212.280273438 -259.83984375 c 0,16,17
 226.19433676 -245.919921875 226.19433676 -245.919921875 231.997070724 -245.919921875 c 128,-1,18
 237.799804688 -245.919921875 237.799804688 -245.919921875 259.259765625 -256.359863281 c 128,-1,19
 280.719726562 -266.799804688 280.719726562 -266.799804688 290 -266.799804688 c 128,-1,20
 299.280273438 -266.799804688 299.280273438 -266.799804688 307.98046875 -260.419921875 c 128,-1,21
 316.6796875 -254.040039062 316.6796875 -254.040039062 316.6796875 -247.080078125 c 128,-1,22
 316.6796875 -240.120117188 316.6796875 -240.120117188 291.159667969 -231.419921875 c 0,23,24
 250.559570312 -217.57867936 250.559570312 -217.57867936 250.559570312 -216.089144368 c 128,-1,25
 250.559570312 -214.599609375 250.559570312 -214.599609375 263.3203125 -199.51953125 c 0,26,27
 274.919921875 -189.080078125 274.919921875 -189.080078125 278.98046875 -187.33984375 c 128,-1,28
 283.040039062 -185.599609375 283.040039062 -185.599609375 309.720214844 -185.599609375 c 0,29,30
 368.880859375 -185.599609375 368.880859375 -185.599609375 419.920410156 -160.659667969 c 128,-1,31
 470.959960938 -135.719726562 470.959960938 -135.719726562 470.959960938 -91.6396484375 c 0,32,33
 470.959960938 -81.7873556743 470.959960938 -81.7873556743 458.200195312 -62.6396484375 c 0,34,35
 444.280273438 -45.240234375 444.280273438 -45.240234375 446.599609375 -44.080078125 c 2,36,-1
 489.51953125 -10.4404296875 l 1,37,38
 547.385627713 31.9945994644 547.385627713 31.9945994644 545.200195312 42.919921875 c 0,39,40
 542.879882812 48.7197265625 542.879882812 48.7197265625 529.540039062 60.900390625 c 128,-1,41
 516.200195312 73.080078125 516.200195312 73.080078125 509.240234375 73.080078125 c 128,-1,42
 502.280273438 73.080078125 502.280273438 73.080078125 430.360351562 5.7998046875 c 0,43,44
 395.559570312 -29 395.559570312 -29 391.5 -25.5200195312 c 128,-1,45
 387.440429688 -22.0400390625 387.440429688 -22.0400390625 362.5 -22.0400390625 c 128,-1,46
 337.559570312 -22.0400390625 337.559570312 -22.0400390625 325.959960938 -23.7797851562 c 128,-1,47
 314.360351562 -25.51953125 314.360351562 -25.51953125 290 -33.6396484375 c 0,48,49
 247.189742599 -47.9097342379 247.189742599 -47.9097342379 225.094871299 -67.454867119 c 128,-1,50
 203 -87 203 -87 198.359863281 -96.8598632812 c 128,-1,51
 193.719726562 -106.719726562 193.719726562 -106.719726562 193.719726562 -116.580078125 c 0,52,53
 193.719726562 -133.399414062 193.719726562 -133.399414062 220.400390625 -160.080078125 c 1,54,-1
 235.48046875 -177.48046875 l 1,55,-1
 222.719726562 -187.919921875 l 1,56,-1
 205.3203125 -196.040039062 l 1,0,1
322.48046875 -155.440429688 m 1,57,-1
 303.919921875 -145 l 2,58,59
 279.559570312 -131.080078125 279.559570312 -131.080078125 279.559570312 -113.100097656 c 128,-1,60
 279.559570312 -95.1201171875 279.559570312 -95.1201171875 313.200195312 -71.919921875 c 0,61,62
 328.280273438 -61.48046875 328.280273438 -61.48046875 339.300292969 -61.48046875 c 128,-1,63
 350.3203125 -61.48046875 350.3203125 -61.48046875 367.140136719 -73.080078125 c 128,-1,64
 383.959960938 -84.6796875 383.959960938 -84.6796875 383.959960938 -100.919921875 c 0,65,66
 383.959960938 -130.251365191 383.959960938 -130.251365191 338.719726562 -149.639648438 c 0,67,68
 327.120117188 -155.440429688 327.120117188 -155.440429688 322.48046875 -155.440429688 c 1,57,-1
EndSplineSet
EndChar

